<svg width="211" height="195" viewBox="0 0 211 195" fill="none" xmlns="http://www.w3.org/2000/svg">
<path d="M53.0832 17.7354C54.032 16.6426 55.0305 15.5993 56.0788 14.6055C65.8067 5.41732 79.2499 0.669398 92.645 0.0646351C116.903 -1.02288 141.316 11.6931 154.242 32.1595C164.002 47.6181 167.568 66.8485 179.828 80.4345C183.895 84.8906 188.778 88.6041 192.903 93.0178C198.089 98.6294 200.956 105.982 200.931 113.606C200.906 121.23 197.992 128.563 192.77 134.142C186.507 140.81 178.042 144.958 169.45 148.141C137.761 159.892 103.007 160.083 69.2395 158.152C59.6715 157.621 49.9809 156.873 40.9407 153.712C31.9004 150.55 23.4518 144.64 19.2142 136.083C14.9766 127.526 15.8827 116.19 22.8335 109.606C29.9655 102.869 41.7296 102.121 47.7209 94.3652C52.3743 88.3335 52.0331 79.8138 49.9489 72.4983C47.8648 65.1828 44.2668 58.2917 43.0195 50.7958C41.0313 39.0506 45.2529 26.7697 53.0832 17.7354Z" fill="#08AF24"/>
<path opacity="0.9" d="M53.0832 17.7354C54.032 16.6426 55.0305 15.5993 56.0788 14.6055C65.8067 5.41732 79.2499 0.669398 92.645 0.0646351C116.903 -1.02288 141.316 11.6931 154.242 32.1595C164.002 47.6181 167.568 66.8485 179.828 80.4345C183.895 84.8906 188.778 88.6041 192.903 93.0178C198.089 98.6294 200.956 105.982 200.931 113.606C200.906 121.23 197.992 128.563 192.77 134.142C186.507 140.81 178.042 144.958 169.45 148.141C137.761 159.892 103.007 160.083 69.2395 158.152C59.6715 157.621 49.9809 156.873 40.9407 153.712C31.9004 150.55 23.4518 144.64 19.2142 136.083C14.9766 127.526 15.8827 116.19 22.8335 109.606C29.9655 102.869 41.7296 102.121 47.7209 94.3652C52.3743 88.3335 52.0331 79.8138 49.9489 72.4983C47.8648 65.1828 44.2668 58.2917 43.0195 50.7958C41.0313 39.0506 45.2529 26.7697 53.0832 17.7354Z" fill="white"/>
<path d="M103.354 195C160.432 195 206.704 192.311 206.704 188.994C206.704 185.678 160.432 182.989 103.354 182.989C46.2751 182.989 0.00366211 185.678 0.00366211 188.994C0.00366211 192.311 46.2751 195 103.354 195Z" fill="#F5F5F5"/>
<path d="M13.5267 174.269C13.5267 174.269 10.515 167.728 13.9584 161.282C17.4018 154.837 18.3933 153.325 16.2025 151.998C14.0118 150.672 13.0043 157.155 13.0043 157.155C13.0043 157.155 11.16 152.699 12.6845 148.036C14.209 143.373 15.1684 135.776 13.0843 134.959C11.0001 134.142 12.6845 144.434 10.8775 147.945C9.9557 145.481 9.36079 142.908 9.10783 140.29C8.85731 136.545 9.24642 130.566 7.59935 129.033C5.95227 127.5 4.90219 128.561 6.53328 136.826C7.50375 141.766 8.03882 146.78 8.13238 151.813C8.13238 151.813 4.55572 140.969 2.15706 140.672C-0.241591 140.375 -0.236262 143.855 1.81592 146.911C3.8681 149.967 7.82855 155.399 8.47885 158.221C8.47885 158.221 4.55572 150.062 1.01637 152.566C-2.52298 155.07 4.08665 159.993 7.029 161.775C9.97135 163.558 12.0129 174.72 12.0129 174.72L13.5267 174.269Z" fill="#08AF24"/>
<path opacity="0.6" d="M13.5267 174.269C13.5267 174.269 10.515 167.728 13.9584 161.282C17.4018 154.837 18.3933 153.325 16.2025 151.998C14.0118 150.672 13.0043 157.155 13.0043 157.155C13.0043 157.155 11.16 152.699 12.6845 148.036C14.209 143.373 15.1684 135.776 13.0843 134.959C11.0001 134.142 12.6845 144.434 10.8775 147.945C9.9557 145.481 9.36079 142.908 9.10783 140.29C8.85731 136.545 9.24642 130.566 7.59935 129.033C5.95227 127.5 4.90219 128.561 6.53328 136.826C7.50375 141.766 8.03882 146.78 8.13238 151.813C8.13238 151.813 4.55572 140.969 2.15706 140.672C-0.241591 140.375 -0.236262 143.855 1.81592 146.911C3.8681 149.967 7.82855 155.399 8.47885 158.221C8.47885 158.221 4.55572 150.062 1.01637 152.566C-2.52298 155.07 4.08665 159.993 7.029 161.775C9.97135 163.558 12.0129 174.72 12.0129 174.72L13.5267 174.269Z" fill="white"/>
<path d="M11.1387 176.948C11.1387 176.948 14.0704 170.364 10.5524 163.972C7.03433 157.58 6.02156 156.073 8.19635 154.72C10.3711 153.367 11.4585 159.829 11.4585 159.829C11.4585 159.829 13.2548 155.346 11.6717 150.704C10.0886 146.063 9.03854 138.503 11.1387 137.638C13.2389 136.774 11.6717 147.108 13.5054 150.588C14.3966 148.112 14.9593 145.532 15.1791 142.911C15.387 139.161 14.9232 133.187 16.549 131.628C18.1748 130.068 19.2462 131.097 17.727 139.405C16.8137 144.357 16.3375 149.378 16.3038 154.413C16.3038 154.413 19.7472 143.521 22.1672 143.166C24.5872 142.811 24.5978 146.349 22.5829 149.405C20.5681 152.46 16.6769 157.993 16.0586 160.81C16.0586 160.81 19.8805 152.593 23.4411 155.039C27.0018 157.484 20.4615 162.513 17.5404 164.338C14.6194 166.163 12.7111 177.356 12.7111 177.356L11.1387 176.948Z" fill="#08AF24"/>
<path opacity="0.7" d="M11.1387 176.948C11.1387 176.948 14.0704 170.364 10.5524 163.972C7.03433 157.58 6.02156 156.073 8.19635 154.72C10.3711 153.367 11.4585 159.829 11.4585 159.829C11.4585 159.829 13.2548 155.346 11.6717 150.704C10.0886 146.063 9.03854 138.503 11.1387 137.638C13.2389 136.774 11.6717 147.108 13.5054 150.588C14.3966 148.112 14.9593 145.532 15.1791 142.911C15.387 139.161 14.9232 133.187 16.549 131.628C18.1748 130.068 19.2462 131.097 17.727 139.405C16.8137 144.357 16.3375 149.378 16.3038 154.413C16.3038 154.413 19.7472 143.521 22.1672 143.166C24.5872 142.811 24.5978 146.349 22.5829 149.405C20.5681 152.46 16.6769 157.993 16.0586 160.81C16.0586 160.81 19.8805 152.593 23.4411 155.039C27.0018 157.484 20.4615 162.513 17.5404 164.338C14.6194 166.163 12.7111 177.356 12.7111 177.356L11.1387 176.948Z" fill="white"/>
<path d="M24.6725 172.253H0.451416L2.41298 189.505H22.7163L24.6725 172.253Z" fill="#08AF24"/>
<path d="M108.423 95.2982H73.9568V69.792H95.63L97.5969 80.3754L108.423 84.7466V95.2982Z" fill="#263238"/>
<path opacity="0.1" d="M108.423 95.2982H73.9568V69.792H95.63L97.5969 80.3754L108.423 84.7466V95.2982Z" fill="white"/>
<path opacity="0.1" d="M92.4318 95.2982H72.8907V69.792H79.639L81.6059 80.3754L92.4318 84.7466V95.2982Z" fill="white"/>
<path opacity="0.2" d="M94.969 74.6567L94.388 71.5215H81.9363L82.5173 74.6567H94.969Z" fill="black"/>
<path opacity="0.2" d="M82.7786 76.0576L83.1943 78.2963H95.646L95.2303 76.0576H82.7786Z" fill="black"/>
<path opacity="0.3" d="M81.6058 80.376H97.5969L108.423 84.7472H92.4318L81.6058 80.376Z" fill="white"/>
<path d="M134.211 50.7899C137.58 52.4981 136.615 60.7208 128.001 76.0733L122.1 71.2988C123.503 66.5272 125.315 61.8842 127.516 57.4211C131.007 50.4929 134.211 50.7899 134.211 50.7899Z" fill="#08AF24"/>
<path opacity="0.4" d="M134.211 50.7899C137.58 52.4981 136.615 60.7208 128.001 76.0733L122.1 71.2988C123.503 66.5272 125.315 61.8842 127.516 57.4211C131.007 50.4929 134.211 50.7899 134.211 50.7899Z" fill="white"/>
<path d="M163.144 87.7441H140.224C138.044 99.6007 131.215 141.547 136.114 178.92L143.864 177.96C143.864 177.96 143.145 128.343 150.005 110.004C150.794 119.818 151.727 130.263 152.542 135.823C154.525 149.499 158.789 179.398 158.789 179.398H166.694C166.694 179.398 165.095 150.783 164.327 137.335C163.528 122.741 163.176 90.7255 163.144 87.7441Z" fill="#263238"/>
<path d="M132.569 50.9065C134.941 50.376 147.452 47.5856 157.547 47.9781C157.547 47.9781 160.793 81.0863 163.837 94.5449L137.436 99.1496C137.436 99.1496 131.508 66.2059 132.153 51.4051C132.158 51.288 132.201 51.1755 132.276 51.0853C132.351 50.9951 132.454 50.9322 132.569 50.9065Z" fill="#08AF24"/>
<path opacity="0.6" d="M132.569 50.9065C134.941 50.376 147.452 47.5856 157.547 47.9781C157.547 47.9781 160.793 81.0863 163.837 94.5449L137.436 99.1496C137.436 99.1496 131.508 66.2059 132.153 51.4051C132.158 51.288 132.201 51.1755 132.276 51.0853C132.351 50.9951 132.454 50.9322 132.569 50.9065Z" fill="white"/>
<path d="M155.191 47.5332C155.191 47.5332 152.169 60.1802 160.431 70.9227L162.472 84.4131L164.844 95.5854L151.711 99.0336L147.004 88.5457L146.529 100.126L136.077 101.644L134.941 88.3812C134.941 88.3812 133.134 77.9093 132.671 72.1587C132.671 72.1587 131.103 58.8327 133.545 50.3342L136.983 49.5968C136.983 49.5968 137.175 57.7187 142.398 64.2332C142.398 64.2332 147.356 51.2307 151.854 47.5491L155.191 47.5332Z" fill="#08AF24"/>
<path opacity="0.2" d="M155.191 47.5332C155.191 47.5332 152.169 60.1802 160.431 70.9227L162.472 84.4131L164.844 95.5854L151.711 99.0336L147.004 88.5457L146.529 100.126L136.077 101.644L134.941 88.3812C134.941 88.3812 133.134 77.9093 132.671 72.1587C132.671 72.1587 131.103 58.8327 133.545 50.3342L136.983 49.5968C136.983 49.5968 137.175 57.7187 142.398 64.2332C142.398 64.2332 147.356 51.2307 151.854 47.5491L155.191 47.5332Z" fill="black"/>
<path d="M123.225 68.8267C123.225 68.8267 121.658 73.0972 120.459 73.2351C119.259 73.3731 111.461 60.3547 111.461 60.3547C111.461 60.3547 110.566 57.7712 109.089 57.071C107.613 56.3707 103.226 53.888 102.096 54.4503C100.966 55.0127 101.563 59.3097 101.563 60.2858C101.563 61.1452 105.294 62.4078 106.413 62.6199C107.138 62.7688 107.89 62.7024 108.577 62.429C108.577 62.429 114.83 77.7496 118.886 80.4339C122.943 83.1182 129.051 73.9884 129.051 73.9884L123.225 68.8267Z" fill="#EBB376"/>
<path d="M121.088 71.0021L122.196 70.1162L128.939 75.7925L127.857 77.7182L121.088 71.0021Z" fill="#08AF24"/>
<path opacity="0.3" d="M121.088 71.0021L122.196 70.1162L128.939 75.7925L127.857 77.7182L121.088 71.0021Z" fill="white"/>
<path d="M143.022 185.43L138.566 185.897L137.729 176.327L142.185 175.854L143.022 185.43Z" fill="#EBB376"/>
<path d="M165.281 185.106H160.959L160.601 175.144H164.924L165.281 185.106Z" fill="#EBB376"/>
<path d="M160.356 184.623H165.607C165.693 184.624 165.777 184.654 165.844 184.708C165.912 184.762 165.96 184.836 165.98 184.92L166.827 188.75C166.845 188.832 166.847 188.916 166.832 188.998C166.817 189.08 166.786 189.159 166.74 189.229C166.694 189.299 166.635 189.359 166.566 189.406C166.497 189.454 166.419 189.487 166.337 189.504C166.291 189.509 166.244 189.509 166.198 189.504C164.498 189.477 163.261 189.376 161.129 189.376C159.813 189.376 155.852 189.509 154.034 189.509C152.217 189.509 151.988 187.726 152.729 187.562C156.06 186.841 158.565 185.838 159.631 184.91C159.828 184.726 160.087 184.624 160.356 184.623Z" fill="#263238"/>
<path d="M158.928 185.366C158.635 185.387 158.344 185.308 158.102 185.143C158.023 185.08 157.963 184.998 157.924 184.906C157.886 184.813 157.872 184.712 157.883 184.613C157.882 184.554 157.899 184.496 157.93 184.447C157.961 184.397 158.006 184.357 158.059 184.332C158.539 184.082 159.935 184.936 160.09 185.037C160.107 185.046 160.121 185.06 160.129 185.077C160.138 185.094 160.141 185.114 160.138 185.133C160.135 185.153 160.126 185.172 160.113 185.188C160.1 185.204 160.083 185.216 160.063 185.223C159.69 185.307 159.31 185.355 158.928 185.366ZM158.288 184.469C158.242 184.469 158.196 184.48 158.155 184.501C158.128 184.501 158.091 184.538 158.086 184.618C158.078 184.686 158.086 184.754 158.111 184.818C158.135 184.881 158.174 184.938 158.224 184.984C158.709 185.206 159.26 185.234 159.765 185.064C159.314 184.775 158.813 184.573 158.288 184.469Z" fill="#08AF24"/>
<path d="M160.036 185.212H159.983C159.541 184.968 158.677 184.024 158.762 183.568C158.778 183.493 158.82 183.425 158.88 183.377C158.94 183.328 159.016 183.302 159.093 183.303C159.171 183.292 159.25 183.299 159.325 183.32C159.4 183.342 159.47 183.38 159.53 183.43C160.031 183.838 160.132 185.074 160.138 185.133C160.138 185.151 160.134 185.17 160.126 185.187C160.118 185.203 160.105 185.218 160.09 185.228C160.071 185.229 160.052 185.223 160.036 185.212ZM159.168 183.467H159.114C158.986 183.467 158.976 183.541 158.965 183.568C158.912 183.849 159.461 184.565 159.908 184.899C159.871 184.407 159.685 183.937 159.375 183.552C159.317 183.502 159.244 183.472 159.168 183.467Z" fill="#08AF24"/>
<path d="M138.091 184.47H143.331C143.417 184.472 143.499 184.503 143.566 184.556C143.632 184.61 143.679 184.684 143.699 184.767L144.552 188.597C144.587 188.762 144.555 188.933 144.463 189.074C144.371 189.216 144.227 189.315 144.061 189.35H143.923C142.222 189.319 140.986 189.218 138.854 189.218C137.537 189.218 133.571 189.356 131.759 189.356C129.947 189.356 129.707 187.568 130.453 187.403C133.785 186.682 136.29 185.679 137.356 184.751C137.556 184.567 137.819 184.467 138.091 184.47Z" fill="#263238"/>
<path d="M136.663 185.228C136.369 185.25 136.076 185.173 135.831 185.01C135.756 184.945 135.698 184.863 135.66 184.771C135.623 184.679 135.609 184.579 135.618 184.48C135.617 184.421 135.633 184.363 135.664 184.313C135.695 184.263 135.74 184.223 135.794 184.199C136.274 183.949 137.67 184.804 137.825 184.904C137.842 184.914 137.855 184.928 137.864 184.945C137.872 184.962 137.875 184.981 137.873 185C137.87 185.021 137.861 185.041 137.847 185.057C137.833 185.073 137.814 185.085 137.793 185.09C137.423 185.178 137.044 185.225 136.663 185.228ZM136.018 184.337C135.974 184.332 135.929 184.341 135.89 184.363C135.858 184.363 135.826 184.4 135.821 184.485C135.814 184.553 135.823 184.621 135.847 184.684C135.871 184.748 135.909 184.805 135.959 184.851C136.446 185.066 136.995 185.093 137.5 184.926C137.048 184.638 136.545 184.438 136.018 184.337Z" fill="#08AF24"/>
<path d="M137.766 185.074H137.718C137.271 184.835 136.412 183.886 136.498 183.429C136.514 183.354 136.555 183.287 136.616 183.238C136.676 183.19 136.751 183.164 136.828 183.164C136.906 183.154 136.984 183.16 137.059 183.183C137.134 183.206 137.202 183.245 137.26 183.297C137.761 183.7 137.868 184.936 137.873 184.994C137.873 185.013 137.868 185.031 137.86 185.048C137.852 185.064 137.84 185.079 137.825 185.09C137.804 185.09 137.784 185.085 137.766 185.074ZM136.898 183.329H136.85C136.716 183.329 136.706 183.403 136.7 183.429C136.647 183.711 137.196 184.427 137.644 184.761C137.606 184.269 137.421 183.799 137.111 183.414C137.05 183.364 136.976 183.334 136.898 183.329Z" fill="#08AF24"/>
<path opacity="0.2" d="M142.185 175.854L137.729 176.327L138.161 181.266L142.622 180.793L142.185 175.854Z" fill="black"/>
<path opacity="0.2" d="M164.924 175.148H160.601L160.788 180.284H165.116L164.924 175.148Z" fill="black"/>
<path d="M135.208 180.719L144.818 179.297L144.525 176.645L134.526 177.955L135.208 180.719Z" fill="#08AF24"/>
<path opacity="0.6" d="M135.208 180.719L144.818 179.297L144.525 176.645L134.526 177.955L135.208 180.719Z" fill="white"/>
<path d="M157.851 179.462H167.174V176.687L157.499 176.507L157.851 179.462Z" fill="#08AF24"/>
<path opacity="0.6" d="M157.851 179.462H167.174V176.687L157.499 176.507L157.851 179.462Z" fill="white"/>
<path opacity="0.2" d="M149.994 110.004C148.865 113.227 148.009 116.538 147.436 119.903C146.791 111.166 149.36 101.903 149.36 101.903L149.994 110.004Z" fill="black"/>
<path d="M149.125 48.2545C147.462 50.5463 142.265 50.907 142.265 50.907C142.265 50.907 138.934 50.7107 139.387 49.5914C141.178 48.8964 141.892 47.8461 142.052 46.6631C142.11 45.9367 142.021 45.2061 141.791 44.5146C141.678 44.1252 141.543 43.7426 141.386 43.3687L146.647 37.459C146.455 40.6844 146.641 46.4774 149.125 48.2545Z" fill="#EBB376"/>
<path opacity="0.2" d="M145.804 40.7002C146.338 44.4773 143.491 46.1537 142.031 46.6789C142.089 45.9525 142 45.2219 141.769 44.5304L145.804 40.7002Z" fill="black"/>
<path d="M135.24 28.7165C135.24 28.7165 133.939 34.5519 136.94 37.0612C139.941 39.5704 140.671 28.5361 140.671 28.5361L135.24 28.7165Z" fill="#263238"/>
<path d="M145.778 42.3765C145.05 43.3062 144.036 43.9725 142.891 44.2734C141.746 44.5743 140.534 44.4931 139.44 44.0423C138.017 43.4853 136.86 42.4098 136.205 41.0344C136.108 40.8437 136.025 40.647 135.954 40.4455C134.648 36.7321 134.584 30.3662 138.582 28.2442C139.463 27.7732 140.451 27.5344 141.451 27.5506C142.451 27.5668 143.431 27.8373 144.296 28.3366C145.162 28.8359 145.884 29.5472 146.396 30.4029C146.907 31.2586 147.19 32.2303 147.217 33.2255C147.404 37.496 147.713 39.9946 145.778 42.3765Z" fill="#EBB376"/>
<path d="M140.874 35.0818C140.933 35.4214 140.757 35.7237 140.527 35.7503C140.298 35.7768 140.09 35.5062 140.053 35.1614C140.016 34.8166 140.176 34.5195 140.399 34.4983C140.623 34.4771 140.837 34.7317 140.874 35.0818Z" fill="#263238"/>
<path d="M136.935 35.4802C136.993 35.8197 136.812 36.1221 136.583 36.1486C136.354 36.1751 136.146 35.9046 136.109 35.5651C136.071 35.2255 136.231 34.9179 136.455 34.8966C136.679 34.8754 136.935 35.1566 136.935 35.4802Z" fill="#263238"/>
<path d="M138.219 35.5225C137.912 36.6199 137.456 37.671 136.865 38.6471C137.121 38.792 137.405 38.8795 137.698 38.9033C137.99 38.9271 138.285 38.8867 138.561 38.785L138.219 35.5225Z" fill="#D58745"/>
<path d="M141.961 33.6975C141.924 33.7056 141.886 33.7044 141.85 33.6943C141.814 33.6841 141.781 33.6652 141.753 33.6392C141.582 33.4506 141.369 33.3044 141.132 33.2122C140.894 33.1201 140.638 33.0847 140.383 33.1087C140.334 33.1096 140.285 33.0927 140.247 33.0612C140.209 33.0296 140.183 32.9855 140.175 32.9367C140.166 32.888 140.176 32.8379 140.201 32.7954C140.227 32.753 140.267 32.7211 140.314 32.7055C140.636 32.6717 140.962 32.7147 141.264 32.831C141.566 32.9472 141.836 33.1333 142.052 33.3739C142.071 33.3927 142.086 33.415 142.096 33.4396C142.107 33.4642 142.112 33.4905 142.112 33.5172C142.112 33.5438 142.107 33.5702 142.096 33.5948C142.086 33.6194 142.071 33.6417 142.052 33.6604C142.024 33.6781 141.993 33.6907 141.961 33.6975Z" fill="#263238"/>
<path d="M135.133 34.3074C135.093 34.3203 135.05 34.3203 135.011 34.3074C134.985 34.2985 134.962 34.2847 134.942 34.2667C134.922 34.2488 134.906 34.2271 134.895 34.2029C134.883 34.1787 134.877 34.1525 134.876 34.1258C134.874 34.0991 134.879 34.0725 134.888 34.0474C134.993 33.7415 135.17 33.4652 135.405 33.2417C135.639 33.0183 135.925 32.8543 136.236 32.7636C136.262 32.7573 136.289 32.7561 136.316 32.7602C136.342 32.7642 136.367 32.7734 136.39 32.7872C136.413 32.801 136.433 32.8191 136.448 32.8406C136.464 32.862 136.475 32.8864 136.482 32.9122C136.493 32.9649 136.483 33.0198 136.454 33.0654C136.425 33.111 136.38 33.1436 136.327 33.1562C136.077 33.2354 135.85 33.3731 135.664 33.5577C135.479 33.7423 135.341 33.9684 135.261 34.2172C135.231 34.2616 135.185 34.2936 135.133 34.3074Z" fill="#263238"/>
<path d="M143.55 28.2705L143.422 30.1591C143.748 30.294 144.012 30.5462 144.16 30.8657C144.308 31.1851 144.33 31.5484 144.221 31.8832C143.688 33.4747 144.754 35.8884 146.002 36.8009C146.002 36.8009 146.002 36.1112 146.588 36.2704C147.174 36.4295 147.212 39.9838 146.172 41.7291C146.172 41.7291 147.798 40.1005 148.56 36.3128C149.269 32.8115 149.221 29.9469 148.432 28.6259L143.55 28.2705Z" fill="#263238"/>
<path d="M149.434 36.5255C149.248 37.0263 148.963 37.4854 148.597 37.876C148.231 38.2667 147.791 38.5812 147.302 38.8013C146.002 39.3901 145.133 38.2708 145.314 36.9445C145.479 35.7615 146.348 33.9897 147.745 33.9738C149.141 33.9579 149.877 35.2841 149.434 36.5255Z" fill="#EBB376"/>
<path d="M143.422 30.1592C141.958 30.0456 140.486 30.1893 139.072 30.5836C137.846 30.9755 136.536 31.0287 135.282 30.7375C135.282 30.7375 133.385 26.9179 135.895 24.605C138.406 22.292 142.606 23.1939 143.965 23.979C145.325 24.7641 142.564 24.6315 142.564 24.6315C142.564 24.6315 147.009 25.4538 148.933 27.1354C150.858 28.8171 150.394 31.5863 149.999 32.0531C149.605 32.5199 149.253 31.4908 149.253 31.4908C148.429 31.9042 147.508 32.0876 146.588 32.0213C144.93 32 145.623 30.5412 143.422 30.1592Z" fill="#263238"/>
<path d="M138.816 40.1753C139.109 40.6455 139.365 41.1366 139.584 41.6447C139.68 41.6256 139.774 41.6008 139.866 41.5705C141.156 41.2416 141.641 40.6633 141.791 40.1222C141.855 39.8572 141.855 39.5809 141.791 39.3159C141.761 39.1642 141.709 39.0176 141.636 38.8809C140.933 39.4358 140.119 39.8355 139.248 40.0532L138.816 40.1753Z" fill="#263238"/>
<path d="M139.254 40.0532L139.493 40.4829C140.703 40.1646 141.514 39.7774 141.796 39.3159C141.766 39.1642 141.714 39.0176 141.642 38.8809C140.938 39.4358 140.124 39.8355 139.254 40.0532Z" fill="white"/>
<path d="M139.866 41.5703C141.156 41.2414 141.641 40.6632 141.791 40.1221C141.304 40.2574 140.845 40.4784 140.437 40.7746C140.168 40.9737 139.968 41.2521 139.866 41.5703Z" fill="#DE5753"/>
<path d="M147.803 46.5723C146.477 48.2617 144.789 49.6354 142.862 50.5934C142.246 49.7931 141.829 48.8586 141.647 47.8667C140.608 48.3574 139.651 49.0052 138.811 49.7871C138.943 51.0277 139.374 52.2181 140.069 53.2565L142.771 51.3308L146.05 53.7127C146.05 53.7127 150.357 50.9435 151.321 48.1001L147.803 46.5723Z" fill="#08AF24"/>
<path opacity="0.4" d="M147.803 46.5723C146.477 48.2617 144.789 49.6354 142.862 50.5934C142.246 49.7931 141.829 48.8586 141.647 47.8667C140.608 48.3574 139.651 49.0052 138.811 49.7871C138.943 51.0277 139.374 52.2181 140.069 53.2565L142.771 51.3308L146.05 53.7127C146.05 53.7127 150.357 50.9435 151.321 48.1001L147.803 46.5723Z" fill="white"/>
<path d="M113.78 68.1425C110.145 67.8772 110.619 70.8692 111.269 73.0124L114.094 79.3783L119.84 79.1714C119.84 79.1714 117.415 68.4024 113.78 68.1425ZM113.519 75.6012C112.676 74.2219 110.246 69.9249 112.831 69.1875C115.416 68.4502 118.47 74.1742 117.735 76.3757C116.999 78.5773 115.187 78.3333 113.519 75.6012Z" fill="#08AF24"/>
<path opacity="0.5" d="M113.78 68.1425C110.145 67.8772 110.619 70.8692 111.269 73.0124L114.094 79.3783L119.84 79.1714C119.84 79.1714 117.415 68.4024 113.78 68.1425ZM113.519 75.6012C112.676 74.2219 110.246 69.9249 112.831 69.1875C115.416 68.4502 118.47 74.1742 117.735 76.3757C116.999 78.5773 115.187 78.3333 113.519 75.6012Z" fill="white"/>
<path d="M112.724 79.0021L114.515 72.3975L123.215 74.5884L120.992 85.506L112.724 79.0021Z" fill="#08AF24"/>
<path d="M122.426 84.2486L120.315 71.034L125.586 68.668L129.739 71.034L130.176 84.8799L122.426 84.2486Z" fill="#08AF24"/>
<path opacity="0.2" d="M122.426 84.2486L120.315 71.034L125.586 68.668L129.739 71.034L130.176 84.8799L122.426 84.2486Z" fill="black"/>
<path d="M126.221 80.3126C126.221 80.3126 129.121 62.2758 131.231 61.687C133.342 61.0981 135.288 63.8938 135.288 63.8938C135.288 63.8938 133.491 75.6443 132.175 79.8086C130.858 83.973 126.221 80.3126 126.221 80.3126Z" fill="#08AF24"/>
<path opacity="0.8" d="M126.221 80.3126C126.221 80.3126 129.121 62.2758 131.231 61.687C133.342 61.0981 135.288 63.8938 135.288 63.8938C135.288 63.8938 133.491 75.6443 132.175 79.8086C130.858 83.973 126.221 80.3126 126.221 80.3126Z" fill="white"/>
<path d="M133.337 80.9277C133.337 78.2752 136.855 70.8483 132.479 70.1162C128.102 69.3842 124.622 77.2885 119.686 77.2726C114.75 77.2567 111.253 73.0287 111.253 73.0287L112.01 74.5936C112.01 74.5936 102.495 93.1238 107.031 94.9646C111.253 96.6728 134.947 94.9646 134.947 94.9646C138.411 92.5986 133.337 83.5855 133.337 80.9277ZM132.804 78.1851C132.271 78.3177 129.749 75.6016 129.749 75.6016C129.536 70.6786 132.228 70.3444 133.545 71.7608C134.861 73.1772 133.337 78.0577 132.809 78.1851H132.804Z" fill="#08AF24"/>
<path opacity="0.7" d="M133.337 80.9277C133.337 78.2752 136.855 70.8483 132.479 70.1162C128.102 69.3842 124.622 77.2885 119.686 77.2726C114.75 77.2567 111.253 73.0287 111.253 73.0287L112.01 74.5936C112.01 74.5936 102.495 93.1238 107.031 94.9646C111.253 96.6728 134.947 94.9646 134.947 94.9646C138.411 92.5986 133.337 83.5855 133.337 80.9277ZM132.804 78.1851C132.271 78.3177 129.749 75.6016 129.749 75.6016C129.536 70.6786 132.228 70.3444 133.545 71.7608C134.861 73.1772 133.337 78.0577 132.809 78.1851H132.804Z" fill="white"/>
<path opacity="0.6" d="M151.568 65.1946L146.226 65.7656L146.619 69.4051L151.961 68.8341L151.568 65.1946Z" fill="white"/>
<path d="M147.969 63.7871L148.502 65.543C148.534 65.6536 148.606 65.7484 148.705 65.8092C148.803 65.8699 148.921 65.8922 149.035 65.8719C149.136 65.856 149.229 65.8082 149.301 65.7357C149.373 65.6632 149.42 65.5696 149.434 65.4687L149.717 63.4316L147.969 63.7871Z" fill="#08AF24"/>
<path opacity="0.4" d="M147.969 63.7871L148.502 65.543C148.534 65.6536 148.606 65.7484 148.705 65.8092C148.803 65.8699 148.921 65.8922 149.035 65.8719C149.136 65.856 149.229 65.8082 149.301 65.7357C149.373 65.6632 149.42 65.5696 149.434 65.4687L149.717 63.4316L147.969 63.7871Z" fill="black"/>
<path d="M151.897 68.7949C151.897 68.7949 149.914 74.7205 149.061 76.0096C148.208 77.2987 126.221 82.9591 126.221 82.9591C126.221 82.9591 124.376 82.0254 123.214 82.1262C122.052 82.227 117.522 83.2774 117.415 84.1156C117.308 84.9538 119.739 88.7309 120.315 89.0439C120.89 89.3569 126.711 88.4869 127.329 86.9803C127.329 86.9803 149.786 82.9697 151.897 82.1262C154.008 81.2827 158.533 71.3148 158.533 71.3148L151.897 68.7949Z" fill="#EBB376"/>
<path d="M157.547 47.9782C160.948 48.2063 163.917 55.4953 163.336 61.3731C162.755 67.251 157.323 77.288 157.323 77.288L149.733 73.5745C149.733 73.5745 151.631 66.8531 153.795 60.4872C155.959 54.1213 154.978 47.8031 157.547 47.9782Z" fill="#08AF24"/>
<path opacity="0.4" d="M157.547 47.9782C160.948 48.2063 163.917 55.4953 163.336 61.3731C162.755 67.251 157.323 77.288 157.323 77.288L149.733 73.5745C149.733 73.5745 151.631 66.8531 153.795 60.4872C155.959 54.1213 154.978 47.8031 157.547 47.9782Z" fill="white"/>
<path d="M148.827 74.2381L149.669 73.0127L158.533 75.9941L158.075 78.185L148.827 74.2381Z" fill="#08AF24"/>
<path opacity="0.3" d="M148.827 74.2381L149.669 73.0127L158.533 75.9941L158.075 78.185L148.827 74.2381Z" fill="white"/>
<path d="M78.8341 85.9883H94.4307C94.6838 85.9883 94.9265 86.0883 95.1054 86.2664C95.2843 86.4445 95.3849 86.686 95.3849 86.9379V95.6698H77.88V86.9326C77.8814 86.6816 77.9826 86.4415 78.1613 86.2645C78.3401 86.0876 78.582 85.9883 78.8341 85.9883Z" fill="#08AF24"/>
<path opacity="0.3" d="M95.3582 86.9326V95.6645H77.88V86.9326C77.88 86.6821 77.98 86.4419 78.1579 86.2649C78.3358 86.0878 78.5772 85.9883 78.8288 85.9883H94.4307C94.6786 85.9938 94.9145 86.0958 95.0879 86.2722C95.2612 86.4487 95.3583 86.6858 95.3582 86.9326Z" fill="white"/>
<path opacity="0.4" d="M91.0939 86.9326V95.6645H77.88V86.9326C77.88 86.6821 77.98 86.4419 78.1579 86.2649C78.3358 86.0878 78.5772 85.9883 78.8288 85.9883H90.1664C90.4144 85.9938 90.6503 86.0958 90.8236 86.2722C90.997 86.4487 91.094 86.6858 91.0939 86.9326Z" fill="white"/>
<path d="M188.788 98.2637H66.7661V189.503H188.788V98.2637Z" fill="#08AF24"/>
<path opacity="0.3" d="M188.788 98.2637H66.7661V189.503H188.788V98.2637Z" fill="white"/>
<path opacity="0.4" d="M157.126 98.2637H66.7661V189.503H157.126V98.2637Z" fill="white"/>
<path d="M189.721 94.9062H66.3131C65.8539 94.9062 65.4816 95.2768 65.4816 95.7338V99.3571C65.4816 99.8142 65.8539 100.185 66.3131 100.185H189.721C190.18 100.185 190.553 99.8142 190.553 99.3571V95.7338C190.553 95.2768 190.18 94.9062 189.721 94.9062Z" fill="#08AF24"/>
<path opacity="0.2" d="M157.739 94.9062H66.3131C65.8539 94.9062 65.4816 95.2768 65.4816 95.7338V99.3571C65.4816 99.8142 65.8539 100.185 66.3131 100.185H157.739C158.198 100.185 158.571 99.8142 158.571 99.3571V95.7338C158.571 95.2768 158.198 94.9062 157.739 94.9062Z" fill="white"/>
<path d="M206.139 176.354C206.248 176.124 206.301 175.872 206.293 175.618C206.284 175.364 206.214 175.115 206.09 174.893C205.965 174.672 205.789 174.483 205.576 174.343C205.363 174.203 205.119 174.115 204.865 174.088C205.09 173.435 205.109 172.729 204.918 172.065C204.728 171.401 204.337 170.811 203.799 170.375C203.672 170.257 203.508 170.184 203.335 170.168C203.148 170.188 202.972 170.264 202.829 170.385L199.86 172.507C199.619 172.651 199.416 172.849 199.268 173.086C198.66 174.258 200.867 175.738 199.95 176.725C199.694 177.001 199.279 177.059 198.954 177.255C198.245 177.696 198.159 178.661 197.834 179.425C197.509 180.189 196.352 180.778 195.915 180.072C196.24 179.34 195.254 178.714 194.46 178.619C193.666 178.523 192.829 178.481 192.387 177.738C191.251 178.72 188.719 175.977 188.778 174.868C187.845 174.937 187.211 175.807 187.008 176.672C186.878 177.585 186.845 178.51 186.912 179.43C186.886 181.229 186.305 182.985 186.337 184.778C186.337 186.173 186.902 187.722 188.186 188.284C188.823 188.511 189.5 188.602 190.174 188.55L204.796 188.459C205.147 188.482 205.499 188.424 205.824 188.29C206.485 187.945 206.624 187.08 206.688 186.343L207.471 176.863L206.139 176.354Z" fill="#08AF24"/>
<path opacity="0.3" d="M206.139 176.354C206.248 176.124 206.301 175.872 206.293 175.618C206.284 175.364 206.214 175.115 206.09 174.893C205.965 174.672 205.789 174.483 205.576 174.343C205.363 174.203 205.119 174.115 204.865 174.088C205.09 173.435 205.109 172.729 204.918 172.065C204.728 171.401 204.337 170.811 203.799 170.375C203.672 170.257 203.508 170.184 203.335 170.168C203.148 170.188 202.972 170.264 202.829 170.385L199.86 172.507C199.619 172.651 199.416 172.849 199.268 173.086C198.66 174.258 200.867 175.738 199.95 176.725C199.694 177.001 199.279 177.059 198.954 177.255C198.245 177.696 198.159 178.661 197.834 179.425C197.509 180.189 196.352 180.778 195.915 180.072C196.24 179.34 195.254 178.714 194.46 178.619C193.666 178.523 192.829 178.481 192.387 177.738C191.251 178.72 188.719 175.977 188.778 174.868C187.845 174.937 187.211 175.807 187.008 176.672C186.878 177.585 186.845 178.51 186.912 179.43C186.886 181.229 186.305 182.985 186.337 184.778C186.337 186.173 186.902 187.722 188.186 188.284C188.823 188.511 189.5 188.602 190.174 188.55L204.796 188.459C205.147 188.482 205.499 188.424 205.824 188.29C206.485 187.945 206.624 187.08 206.688 186.343L207.471 176.863L206.139 176.354Z" fill="white"/>
<path d="M206.992 160.974H184.306L184.492 163.255L184.625 164.883L184.972 169.127L185.169 171.562L185.43 174.804L185.542 176.193L185.58 176.607L185.713 178.241L185.894 180.48L186.006 181.87L186.123 183.281L186.257 184.915L186.358 186.151L186.47 187.541L186.518 188.146H207.338L207.386 187.541L207.498 186.156L207.599 184.91L207.733 183.276L207.85 181.87L207.962 180.48L208.143 178.236L208.276 176.607L208.308 176.193L208.42 174.804L208.687 171.562L208.884 169.133L209.225 164.889L209.358 163.26L209.545 160.979L206.992 160.974ZM208.356 162.47L207.919 162.035H208.394L208.356 162.47ZM208.244 163.854L208.202 164.385L206.171 166.406L203.841 164.088L205.926 162.013H206.416L208.244 163.854ZM207.658 171.08L206.171 172.56L203.841 170.241L206.171 167.928L207.77 169.52L207.658 171.08ZM186.07 169.53L187.669 167.939L189.998 170.252L187.669 172.57L186.187 171.09L186.07 169.53ZM205.419 167.175L203.09 169.493L200.76 167.175L203.09 164.857L205.419 167.175ZM201.757 162.035H204.422L203.09 163.361L201.757 162.035ZM202.333 170.241L200.009 172.56L197.701 170.241L200.03 167.928L202.333 170.241ZM194.599 173.308L196.928 170.995L199.252 173.308L196.928 175.605L194.599 173.308ZM196.171 176.374L193.842 178.692L191.518 176.379L193.847 174.061L196.171 176.374ZM200.009 174.061L202.333 176.379L200.009 178.692L197.701 176.374L200.009 174.061ZM196.928 169.493L194.599 167.175L196.928 164.857L199.252 167.175L196.928 169.493ZM196.171 170.241L193.847 172.56L191.518 170.241L193.847 167.928L196.171 170.241ZM190.771 169.493L188.447 167.175L190.771 164.857L193.101 167.175L190.771 169.493ZM190.771 170.995L193.101 173.308L190.771 175.605L188.447 173.286L190.771 170.995ZM193.101 179.445L190.771 181.758L188.447 179.445L190.771 177.127L193.101 179.445ZM193.852 180.193L196.182 182.512L193.858 184.83L191.518 182.501L193.852 180.193ZM194.609 179.445L196.939 177.127L199.263 179.445L196.939 181.758L194.609 179.445ZM200.02 180.193L202.344 182.512L200.02 184.83L197.701 182.501L200.02 180.193ZM203.1 183.26L205.43 185.578L203.921 187.079H202.28L200.771 185.578L203.1 183.26ZM200.771 179.445L203.1 177.127L205.43 179.445L203.1 181.758L200.771 179.445ZM200.771 173.308L203.1 170.995L205.43 173.308L203.09 175.605L200.771 173.308ZM202.344 164.109L200.02 166.427L197.701 164.109L199.785 162.035H200.275L202.344 164.109ZM196.939 163.361L195.606 162.035H198.271L196.939 163.361ZM196.182 164.109L193.858 166.427L191.528 164.109L193.612 162.035H194.103L196.182 164.109ZM192.104 162.035L190.771 163.361L189.444 162.035H192.104ZM187.936 162.035L190.02 164.109L187.69 166.427L185.665 164.406L185.622 163.875L187.445 162.056L187.936 162.035ZM185.942 162.035L185.51 162.464L185.473 162.035H185.942ZM185.798 166.04L186.939 167.175L185.974 168.141L185.798 166.04ZM186.432 173.812L186.342 172.713L186.939 173.308L186.406 173.812H186.432ZM186.544 175.207L187.69 174.061L190.02 176.379L187.69 178.692L186.752 177.758L186.544 175.207ZM186.891 179.493V179.392L186.944 179.445L186.896 179.493H186.891ZM187.296 184.432L187.003 180.878L187.69 180.193L190.02 182.512L187.69 184.825L187.296 184.432ZM187.509 187.085L187.467 186.554L187.69 186.331L188.447 187.085H187.509ZM188.447 185.583L190.771 183.265L193.101 185.583L191.592 187.085H189.95L188.447 185.583ZM193.101 187.085L193.858 186.331L194.615 187.085H193.101ZM196.118 187.085L194.609 185.583L196.939 183.265L199.263 185.583L197.759 187.085H196.118ZM199.263 187.085L200.02 186.331L200.776 187.085H199.263ZM206.363 187.085H205.424L206.181 186.331L206.405 186.554L206.363 187.085ZM206.581 184.432L206.181 184.825L203.841 182.501L206.171 180.183L206.858 180.867L206.581 184.432ZM206.992 179.387V179.493L206.944 179.445L207.002 179.387H206.992ZM207.125 177.758L206.181 178.692L203.852 176.379L206.181 174.061L207.333 175.207L207.125 177.758ZM207.445 173.817L206.912 173.286L207.514 172.692L207.445 173.817ZM208.068 166.056L207.898 168.178L206.922 167.207L208.068 166.066V166.056Z" fill="#08AF24"/>
<g opacity="0.6">
<path opacity="0.6" d="M206.992 160.974H184.306L184.492 163.255L184.625 164.883L184.972 169.127L185.169 171.562L185.43 174.804L185.542 176.193L185.58 176.607L185.713 178.241L185.894 180.48L186.006 181.87L186.123 183.281L186.257 184.915L186.358 186.151L186.47 187.541L186.518 188.146H207.338L207.386 187.541L207.498 186.156L207.599 184.91L207.733 183.276L207.85 181.87L207.962 180.48L208.143 178.236L208.276 176.607L208.308 176.193L208.42 174.804L208.687 171.562L208.884 169.133L209.225 164.889L209.358 163.26L209.545 160.979L206.992 160.974ZM208.356 162.47L207.919 162.035H208.394L208.356 162.47ZM208.244 163.854L208.202 164.385L206.171 166.406L203.841 164.088L205.926 162.013H206.416L208.244 163.854ZM207.658 171.08L206.171 172.56L203.841 170.241L206.171 167.928L207.77 169.52L207.658 171.08ZM186.07 169.53L187.669 167.939L189.998 170.252L187.669 172.57L186.187 171.09L186.07 169.53ZM205.419 167.175L203.09 169.493L200.76 167.175L203.09 164.857L205.419 167.175ZM201.757 162.035H204.422L203.09 163.361L201.757 162.035ZM202.333 170.241L200.009 172.56L197.701 170.241L200.03 167.928L202.333 170.241ZM194.599 173.308L196.928 170.995L199.252 173.308L196.928 175.605L194.599 173.308ZM196.171 176.374L193.842 178.692L191.518 176.379L193.847 174.061L196.171 176.374ZM200.009 174.061L202.333 176.379L200.009 178.692L197.701 176.374L200.009 174.061ZM196.928 169.493L194.599 167.175L196.928 164.857L199.252 167.175L196.928 169.493ZM196.171 170.241L193.847 172.56L191.518 170.241L193.847 167.928L196.171 170.241ZM190.771 169.493L188.447 167.175L190.771 164.857L193.101 167.175L190.771 169.493ZM190.771 170.995L193.101 173.308L190.771 175.605L188.447 173.286L190.771 170.995ZM193.101 179.445L190.771 181.758L188.447 179.445L190.771 177.127L193.101 179.445ZM193.852 180.193L196.182 182.512L193.858 184.83L191.518 182.501L193.852 180.193ZM194.609 179.445L196.939 177.127L199.263 179.445L196.939 181.758L194.609 179.445ZM200.02 180.193L202.344 182.512L200.02 184.83L197.701 182.501L200.02 180.193ZM203.1 183.26L205.43 185.578L203.921 187.079H202.28L200.771 185.578L203.1 183.26ZM200.771 179.445L203.1 177.127L205.43 179.445L203.1 181.758L200.771 179.445ZM200.771 173.308L203.1 170.995L205.43 173.308L203.09 175.605L200.771 173.308ZM202.344 164.109L200.02 166.427L197.701 164.109L199.785 162.035H200.275L202.344 164.109ZM196.939 163.361L195.606 162.035H198.271L196.939 163.361ZM196.182 164.109L193.858 166.427L191.528 164.109L193.612 162.035H194.103L196.182 164.109ZM192.104 162.035L190.771 163.361L189.444 162.035H192.104ZM187.936 162.035L190.02 164.109L187.69 166.427L185.665 164.406L185.622 163.875L187.445 162.056L187.936 162.035ZM185.942 162.035L185.51 162.464L185.473 162.035H185.942ZM185.798 166.04L186.939 167.175L185.974 168.141L185.798 166.04ZM186.432 173.812L186.342 172.713L186.939 173.308L186.406 173.812H186.432ZM186.544 175.207L187.69 174.061L190.02 176.379L187.69 178.692L186.752 177.758L186.544 175.207ZM186.891 179.493V179.392L186.944 179.445L186.896 179.493H186.891ZM187.296 184.432L187.003 180.878L187.69 180.193L190.02 182.512L187.69 184.825L187.296 184.432ZM187.509 187.085L187.467 186.554L187.69 186.331L188.447 187.085H187.509ZM188.447 185.583L190.771 183.265L193.101 185.583L191.592 187.085H189.95L188.447 185.583ZM193.101 187.085L193.858 186.331L194.615 187.085H193.101ZM196.118 187.085L194.609 185.583L196.939 183.265L199.263 185.583L197.759 187.085H196.118ZM199.263 187.085L200.02 186.331L200.776 187.085H199.263ZM206.363 187.085H205.424L206.181 186.331L206.405 186.554L206.363 187.085ZM206.581 184.432L206.181 184.825L203.841 182.501L206.171 180.183L206.858 180.867L206.581 184.432ZM206.992 179.387V179.493L206.944 179.445L207.002 179.387H206.992ZM207.125 177.758L206.181 178.692L203.852 176.379L206.181 174.061L207.333 175.207L207.125 177.758ZM207.445 173.817L206.912 173.286L207.514 172.692L207.445 173.817ZM208.068 166.056L207.898 168.178L206.922 167.207L208.068 166.066V166.056Z" fill="white"/>
</g>
<path d="M183.73 162.979H210.126C210.609 162.979 211 162.59 211 162.109V160.895C211 160.414 210.609 160.025 210.126 160.025H183.73C183.247 160.025 182.856 160.414 182.856 160.895V162.109C182.856 162.59 183.247 162.979 183.73 162.979Z" fill="#08AF24"/>
<path d="M208.095 186.555H185.756C185.273 186.555 184.881 186.944 184.881 187.425V188.64C184.881 189.12 185.273 189.51 185.756 189.51H208.095C208.578 189.51 208.969 189.12 208.969 188.64V187.425C208.969 186.944 208.578 186.555 208.095 186.555Z" fill="#08AF24"/>
<path d="M64.794 79.6553C66.633 80.2282 66.9261 90.8646 66.9261 90.8646H65.8601C65.8601 90.8646 66.3931 79.5916 63.6479 79.9417L64.794 79.6553Z" fill="#263238"/>
<path opacity="0.2" d="M64.794 79.6553C66.633 80.2282 66.9261 90.8646 66.9261 90.8646H65.8601C65.8601 90.8646 66.3931 79.5916 63.6479 79.9417L64.794 79.6553Z" fill="black"/>
<path d="M67.1127 180.285L63.7492 180.874L62.3687 176.311L61.1107 172.126L64.9912 170.778L66.1159 175.813L67.1127 180.285Z" fill="#E4897B"/>
<path opacity="0.2" d="M66.1319 175.913L62.3846 176.406L61.1213 172.173L64.9912 170.799L66.1319 175.913Z" fill="black"/>
<path d="M44.6666 181.829H41.2499L40.6902 177.038L40.1838 172.672L44.2349 172.004L44.4641 177.203L44.6666 181.829Z" fill="#E4897B"/>
<path opacity="0.2" d="M44.4641 177.244L40.6902 177.08L40.1838 172.693L44.2349 172.014L44.4641 177.244Z" fill="black"/>
<path d="M49.2933 188.555C48.7495 188.121 48.1321 187.786 47.4704 187.568C47.4704 187.568 45.4875 185.61 44.5333 179.717L41.9375 179.043C41.4968 178.938 41.0345 178.97 40.6124 179.134C40.1904 179.298 39.8288 179.586 39.5761 179.961C39.5041 180.065 39.4484 180.179 39.4109 180.3C39.2764 180.932 39.1838 181.572 39.1337 182.215C38.8725 184.21 39.0964 188.687 39.0964 188.687H39.5655L39.752 184.624C39.8213 183.244 40.882 184.862 41.1859 186.348C41.4897 187.833 42.1347 189.414 45.173 189.488C48.7177 189.557 50.1888 189.398 49.2933 188.555Z" fill="#263238"/>
<path d="M71.9473 188.157C71.4034 187.723 70.7861 187.389 70.1243 187.171C70.1243 187.171 68.1414 185.213 67.1873 179.319L64.5914 178.646C64.1507 178.541 63.6884 178.572 63.2664 178.737C62.8443 178.901 62.4828 179.189 62.23 179.563C62.1581 179.667 62.1023 179.782 62.0648 179.903C61.9304 180.534 61.8378 181.174 61.7876 181.818C61.5264 183.813 61.7503 188.29 61.7503 188.29H62.2194L62.4059 184.226C62.4752 182.847 63.536 184.465 63.8398 185.95C64.1436 187.436 64.7886 189.017 67.8269 189.091C71.3716 189.16 72.8428 189.022 71.9473 188.157Z" fill="#263238"/>
<path d="M66.4517 173.261L60.9242 174.226C55.3433 160.396 51.3775 148.853 48.5737 139.272C47.0653 134.105 45.8073 129.511 44.9065 125.432L45.0717 140.487V174.401H39.6241C25.9731 109.681 35.6477 94.9282 35.6477 94.9282L51.9852 92.2227C52.6286 95.2297 53.0843 98.2735 53.3497 101.337L54.0853 106.726L60.4817 139.553L66.4517 173.261Z" fill="#08AF24"/>
<g opacity="0.4">
<path opacity="0.4" d="M66.4517 173.261L60.9242 174.226C55.3433 160.396 51.3775 148.853 48.5737 139.272C47.0653 134.105 45.8073 129.511 44.9065 125.432L45.0717 140.487V174.401H39.6241C25.9731 109.681 35.6477 94.9282 35.6477 94.9282L51.9852 92.2227C52.6286 95.2297 53.0843 98.2735 53.3497 101.337L54.0853 106.726L60.4817 139.553L66.4517 173.261Z" fill="white"/>
</g>
<path d="M71.3237 76.2442L76.8353 70.8226C76.8353 70.8226 77.0272 69.369 77.5602 68.9658C78.0933 68.5626 81.8778 67.194 82.3575 67.4964C82.8373 67.7987 83.4609 70.8438 82.816 71.4008C82.171 71.9578 78.7276 72.6687 78.3758 72.6103L72.4111 79.6553L71.3237 76.2442Z" fill="#EEC1BB"/>
<path d="M51.58 66.3604C53.9574 67.6176 62.3953 79.3574 63.6426 79.941C64.8899 80.5245 74.3886 72.8536 74.3886 72.8536L75.9877 75.575C75.9877 75.575 68.1734 86.5403 63.7865 86.0098C59.3996 85.4793 50.9351 76.1957 50.9351 76.1957L51.58 66.3604Z" fill="#263238"/>
<path opacity="0.4" d="M51.58 66.3604C53.9574 67.6176 62.3953 79.3574 63.6426 79.941C64.8899 80.5245 74.3886 72.8536 74.3886 72.8536L75.9877 75.575C75.9877 75.575 68.1734 86.5403 63.7865 86.0098C59.3996 85.4793 50.9351 76.1957 50.9351 76.1957L51.58 66.3604Z" fill="white"/>
<path d="M73.8662 73.1461L74.5219 72.5254L76.2542 75.4431L75.6359 76.6367L73.8662 73.1461Z" fill="#08AF24"/>
<path opacity="0.2" d="M54.3145 79.6231C52.3423 77.7504 50.9244 76.1961 50.9244 76.1961L51.0737 73.8619L51.8146 71.5967C52.8344 72.6458 53.5919 73.9189 54.0262 75.3132C54.4605 76.7075 54.5592 78.1838 54.3145 79.6231Z" fill="black"/>
<path opacity="0.2" d="M48.5738 139.272C47.0653 134.105 45.9086 129.511 44.9865 125.431C45.0665 120.602 45.4225 115.781 46.0525 110.991C46.0525 110.991 48.4512 129.612 48.5738 139.272Z" fill="black"/>
<path d="M52.3743 91.2199C53.0406 79.5491 52.7475 73.1195 52.4436 69.91C52.1078 66.4883 51.5801 66.361 51.5801 66.361C51.5801 66.361 47.8489 66.0003 44.6134 66.0268C42.1102 66.1109 39.6164 66.3733 37.1509 66.8119C34.8043 67.2003 32.4885 67.7552 30.2214 68.4724C30.5981 69.5334 30.9446 70.5519 31.2609 71.528C31.6873 72.7906 32.0657 73.9683 32.4069 75.0611C33.0518 77.1141 33.5476 78.886 33.9473 80.4721C34.9641 84.4667 35.559 88.556 35.7224 92.6735C35.7224 92.6735 31.618 103.336 30.8184 111.161L44.4108 112.62L46.2764 104.795L48.142 112.885L55.7378 110.233L52.3743 91.2199Z" fill="#263238"/>
<path opacity="0.4" d="M52.3743 91.2199C53.0406 79.5491 52.7475 73.1195 52.4436 69.91C52.1078 66.4883 51.5801 66.361 51.5801 66.361C51.5801 66.361 47.8489 66.0003 44.6134 66.0268C42.1102 66.1109 39.6164 66.3733 37.1509 66.8119C34.8043 67.2003 32.4885 67.7552 30.2214 68.4724C30.5981 69.5334 30.9446 70.5519 31.2609 71.528C31.6873 72.7906 32.0657 73.9683 32.4069 75.0611C33.0518 77.1141 33.5476 78.886 33.9473 80.4721C34.9641 84.4667 35.559 88.556 35.7224 92.6735C35.7224 92.6735 31.618 103.336 30.8184 111.161L44.4108 112.62L46.2764 104.795L48.142 112.885L55.7378 110.233L52.3743 91.2199Z" fill="white"/>
<path d="M38.3236 65.411C38.3236 65.411 40.2798 63.8566 43.7765 65.098L44.2509 66.8699C44.2509 66.8699 41.2499 67.9998 39.7361 67.7027C38.2223 67.4057 38.3236 65.411 38.3236 65.411Z" fill="#08AF24"/>
<path opacity="0.2" d="M38.3236 65.411C38.3236 65.411 40.2798 63.8566 43.7765 65.098L44.2509 66.8699C44.2509 66.8699 41.2499 67.9998 39.7361 67.7027C38.2223 67.4057 38.3236 65.411 38.3236 65.411Z" fill="black"/>
<path opacity="0.2" d="M34.5922 83.3309C34.411 82.4397 34.1978 81.4901 33.9366 80.4716C33.7714 79.8244 33.5901 79.1453 33.4036 78.4239C33.9366 76.6149 34.4696 78.026 34.4696 78.026C34.8013 79.7758 34.8428 81.5678 34.5922 83.3309Z" fill="black"/>
<path d="M44.4267 66.7376C44.2542 66.6531 44.0761 66.5804 43.8937 66.5201C43.5099 66.2177 43.0462 65.491 43.0675 63.7244C43.0811 63.0293 43.1453 62.3361 43.2594 61.6502L38.3235 60.7324C38.3235 60.7324 40.0079 64.0427 38.6006 66.5042C38.1209 66.7164 37.8331 67.0347 37.881 67.4166C38.2542 70.2601 44.3894 73.0081 44.3894 73.0081C44.3894 73.0081 47.3851 68.3662 44.4267 66.7376Z" fill="#EEC1BB"/>
<path opacity="0.2" d="M43.2807 61.6502C43.1666 62.3361 43.1025 63.0293 43.0888 63.7244C39.752 63.7244 38.3395 60.7324 38.3395 60.7324L43.2807 61.6502Z" fill="black"/>
<path d="M41.074 45.422C41.074 45.422 46.8521 44.6953 47.9181 49.3477C48.2278 50.667 48.1541 52.0468 47.7059 53.3261C47.2576 54.6054 46.4531 55.7314 45.3862 56.573L41.074 45.422Z" fill="#263238"/>
<path d="M40.5516 47.8996C44.8479 47.6661 46.3564 49.8783 46.9107 54.2655C47.609 59.7508 46.5962 63.7295 41.1593 62.8489C33.7767 61.65 33.4143 48.2868 40.5516 47.8996Z" fill="#EEC1BB"/>
<path d="M44.1229 54.1807C44.502 54.8002 44.9548 55.372 45.4715 55.8835C45.3538 56.0651 45.1879 56.2106 44.9923 56.3043C44.7966 56.3979 44.5788 56.4359 44.3628 56.414L44.1229 54.1807Z" fill="#D4827D"/>
<path d="M41.4738 53.9741C41.5004 54.3242 41.3298 54.6213 41.0953 54.6425C40.8608 54.6637 40.6476 54.3932 40.6209 54.0377C40.5943 53.6823 40.7648 53.3905 40.9994 53.3693C41.2339 53.3481 41.4471 53.6239 41.4738 53.9741Z" fill="#263238"/>
<path d="M40.9033 53.3959L41.6442 53.0352C41.6442 53.0352 41.3138 53.7089 40.9033 53.3959Z" fill="#263238"/>
<path d="M45.8499 53.56C45.8499 53.9101 45.706 54.2072 45.4715 54.2284C45.2369 54.2497 45.0237 53.9738 44.9971 53.6237C44.9704 53.2735 45.1357 52.9765 45.3755 52.9552C45.6154 52.934 45.8233 53.2099 45.8499 53.56Z" fill="#263238"/>
<path d="M45.2529 52.9818L45.9992 52.6211C45.9992 52.6211 45.69 53.2948 45.2529 52.9818Z" fill="#263238"/>
<path d="M41.2658 51.0244C40.9239 51.0019 40.5814 51.0576 40.2644 51.1873C39.9475 51.3169 39.6646 51.5171 39.4375 51.7724" stroke="#263238" stroke-width="0.686238" stroke-linecap="round" stroke-linejoin="round"/>
<path d="M44.3788 50.6744C44.6681 50.5836 44.9743 50.5593 45.2744 50.6034C45.5745 50.6475 45.8606 50.7589 46.1112 50.929" stroke="#263238" stroke-width="0.686238" stroke-linecap="round" stroke-linejoin="round"/>
<path d="M36.25 55.3586C36.25 55.3586 38.0676 51.7406 37.6146 49.0457C37.6146 49.0457 45.9352 45.1201 46.8307 53.6929C46.8307 53.6929 47.2412 46.0113 39.848 46.266C32.4548 46.5206 33.0731 57.2525 37.0655 60.2445C37.0655 60.2232 35.1253 57.6238 36.25 55.3586Z" fill="#263238"/>
<path d="M41.8096 45.1039C41.8096 45.1039 45.3382 44.2392 46.3403 45.1675C47.3425 46.0959 40.2105 52.6634 36.4792 53.3265C36.4792 53.3265 35.2106 57.4379 36.2127 59.3582C36.2127 59.3582 32.0124 57.8994 31.8152 51.5335C31.6179 45.1675 38.3235 42.7697 41.8096 45.1039Z" fill="#263238"/>
<path d="M37.0016 56.2438C36.9303 55.7517 36.6658 55.3077 36.2661 55.0094C35.8664 54.711 35.3641 54.5826 34.8694 54.6523C33.5475 54.8698 33.0625 57.6231 36.4099 58.1006C36.9003 58.1324 37.1402 57.6602 37.0016 56.2438Z" fill="#EEC1BB"/>
<path d="M35.1253 47.6131C35.1253 47.6131 33.6594 43.8997 29.7256 44.1649C25.7918 44.4302 25.1948 50.5309 27.263 55.0401C29.3312 59.5492 27.9506 61.0187 27.9506 61.0187C27.9506 61.0187 30.1467 60.7535 30.1467 56.7058C30.2682 57.5631 30.3128 58.4295 30.28 59.2946C30.28 59.2946 31.7458 57.2363 30.3493 53.3266C28.9527 49.4168 33.4142 51.2046 33.4142 51.2046L35.1253 47.6131Z" fill="#263238"/>
<path d="M46.0046 45.4912C46.0046 45.4912 44.1389 51.4593 39.1444 53.247" stroke="#263238" stroke-width="0.686238" stroke-linecap="round" stroke-linejoin="round"/>
<path d="M40.9886 57.958C41.3125 58.2777 41.697 58.53 42.1198 58.7003C42.5426 58.8706 42.9952 58.9555 43.4513 58.95" stroke="#263238" stroke-width="0.686238" stroke-linecap="round" stroke-linejoin="round"/>
<path d="M38.3235 65.4116C38.3235 65.4116 39.2083 67.1994 42.2253 68.4726L43.4566 70.4513V68.1967C43.7964 67.2012 43.9058 66.1421 43.7764 65.0986L44.7785 66.9819C45.0818 67.0522 45.3579 67.2092 45.5729 67.4334C45.7878 67.6577 45.9323 67.9396 45.9885 68.2445C46.3083 69.4009 44.592 73.5494 44.592 73.5494C44.592 73.5494 39.1071 71.5919 37.8757 69.1357C36.9643 67.3055 38.057 66.8652 38.057 66.8652L38.3235 65.4116Z" fill="#08AF24"/>
<path d="M45.4821 75.0664C45.4821 75.144 45.459 75.2199 45.4157 75.2845C45.3723 75.3491 45.3107 75.3994 45.2386 75.4291C45.1666 75.4588 45.0873 75.4666 45.0107 75.4514C44.9342 75.4363 44.8639 75.3989 44.8088 75.344C44.7536 75.2891 44.716 75.2191 44.7008 75.143C44.6856 75.0668 44.6934 74.9879 44.7233 74.9162C44.7531 74.8444 44.8037 74.7831 44.8685 74.74C44.9334 74.6969 45.0097 74.6738 45.0877 74.6738C45.1923 74.6738 45.2926 74.7152 45.3666 74.7888C45.4406 74.8624 45.4821 74.9623 45.4821 75.0664Z" fill="#263238"/>
<path d="M46.4416 81.2041C46.4416 81.2817 46.4185 81.3576 46.3751 81.4222C46.3318 81.4868 46.2702 81.5371 46.1981 81.5668C46.126 81.5965 46.0467 81.6043 45.9702 81.5891C45.8937 81.574 45.8234 81.5366 45.7682 81.4817C45.7131 81.4268 45.6755 81.3568 45.6603 81.2807C45.6451 81.2045 45.6529 81.1256 45.6827 81.0539C45.7126 80.9821 45.7631 80.9208 45.828 80.8777C45.8929 80.8345 45.9691 80.8115 46.0472 80.8115C46.1518 80.8115 46.2521 80.8529 46.3261 80.9265C46.4 81.0001 46.4416 81.1 46.4416 81.2041Z" fill="#263238"/>
<path d="M46.852 88.6416C46.852 88.7192 46.8289 88.7951 46.7855 88.8597C46.7422 88.9242 46.6806 88.9746 46.6085 89.0043C46.5364 89.034 46.4571 89.0418 46.3806 89.0266C46.3041 89.0115 46.2338 88.9741 46.1786 88.9192C46.1235 88.8643 46.0859 88.7943 46.0707 88.7182C46.0555 88.642 46.0633 88.5631 46.0931 88.4914C46.123 88.4196 46.1735 88.3583 46.2384 88.3152C46.3033 88.272 46.3795 88.249 46.4575 88.249C46.5622 88.249 46.6625 88.2904 46.7365 88.364C46.8104 88.4376 46.852 88.5375 46.852 88.6416Z" fill="#263238"/>
<path d="M47.1772 96.4346C47.1772 96.5122 47.1541 96.5881 47.1107 96.6527C47.0674 96.7172 47.0058 96.7675 46.9337 96.7972C46.8616 96.827 46.7823 96.8347 46.7058 96.8196C46.6293 96.8044 46.559 96.7671 46.5038 96.7121C46.4487 96.6572 46.4111 96.5873 46.3959 96.5111C46.3807 96.435 46.3885 96.3561 46.4183 96.2843C46.4482 96.2126 46.4987 96.1513 46.5636 96.1082C46.6285 96.065 46.7047 96.042 46.7827 96.042C46.8874 96.042 46.9877 96.0833 47.0617 96.157C47.1356 96.2306 47.1772 96.3304 47.1772 96.4346Z" fill="#263238"/>
<path d="M78.1411 70.0371C80.6469 68.7787 83.4407 68.197 86.2432 68.3502L89.2122 71.4589C89.2122 71.4589 86.6803 70.8488 80.9662 72.1591L78.1411 70.0371Z" fill="#08AF24"/>
<path opacity="0.4" d="M78.1411 70.0371C80.6469 68.7787 83.4407 68.197 86.2432 68.3502L89.2122 71.4589C89.2122 71.4589 86.6803 70.8488 80.9662 72.1591L78.1411 70.0371Z" fill="black"/>
<path d="M78.1091 69.7987C80.5421 68.408 83.2989 67.6764 86.1046 67.6768L89.2389 70.621C89.2389 70.621 86.675 70.1701 81.0355 71.7616L78.1091 69.7987Z" fill="#08AF24"/>
<path opacity="0.2" d="M78.1091 69.7987C80.5421 68.408 83.2989 67.6764 86.1046 67.6768L89.2389 70.621C89.2389 70.621 86.675 70.1701 81.0355 71.7616L78.1091 69.7987Z" fill="black"/>
<path d="M78.3384 69.3895L81.2114 71.7714C84.0213 70.3182 87.2304 69.8154 90.353 70.3391L86.7443 67.1826C86.7443 67.1826 81.4993 66.5779 78.3384 69.3895Z" fill="#08AF24"/>
<path opacity="0.2" d="M79.0686 69.448L81.0835 71.2199C81.0835 71.2199 85.1932 69.0342 89.2549 69.8406L86.5897 67.4268C86.5897 67.4268 82.0323 66.8539 79.0686 69.448Z" fill="black"/>
<path d="M84.7242 68.6679C84.7242 69.0976 84.2551 69.4478 83.6581 69.4478C83.0611 69.4478 82.592 69.0976 82.592 68.6679C82.592 68.2382 83.0611 67.8828 83.6581 67.8828C84.2551 67.8828 84.7242 68.2329 84.7242 68.6679Z" fill="#08AF24"/>
<path d="M57.9871 102.54C58.1843 99.5853 60.0233 90.8693 60.0233 90.8693C60.8291 90.3279 61.6776 89.8524 62.5606 89.4475C63.9123 88.9653 65.3311 88.695 66.7662 88.6465C66.7662 88.6465 67.6031 99.6436 66.7662 100.848C65.9293 102.052 57.7526 106.036 57.9871 102.54Z" fill="#263238"/>
<path d="M60.0233 90.8645C60.0233 90.8645 61.3399 79.1565 64.794 79.6551C64.794 79.6551 62.0648 80.2281 61.0627 91.2464L60.0233 90.8645Z" fill="#263238"/>
<path d="M47.8328 85.3153C48.4458 85.1827 50.0342 81.1987 49.8316 80.7106C49.6291 80.2226 37.7904 81.8671 37.7904 81.8671L38.5686 86.1641L47.8328 85.3153Z" fill="#08AF24"/>
<path opacity="0.2" d="M47.8328 85.3153C48.4458 85.1827 50.0342 81.1987 49.8316 80.7106C49.6291 80.2226 37.7904 81.8671 37.7904 81.8671L38.5686 86.1641L47.8328 85.3153Z" fill="black"/>
<path d="M32.9079 81.9464C32.9079 81.9464 45.5408 80.1586 46.1058 80.3549C46.6708 80.5512 47.8328 85.3203 47.8328 85.3203C47.8328 85.3203 36.8896 87.0444 35.9355 86.7686C34.9814 86.4927 32.4601 82.6042 32.9079 81.9464Z" fill="#08AF24"/>
<path d="M28.6169 90.3659L35.1733 86.2493C35.1733 86.2493 35.6743 84.8753 36.282 84.5941C36.8896 84.313 40.8821 83.7878 41.2712 84.1857C41.6603 84.5835 41.623 87.6869 40.8714 88.0954C40.1198 88.5039 36.6071 88.4561 36.2766 88.3235L28.9261 93.9096L28.6169 90.3659Z" fill="#EEC1BB"/>
<path d="M30.216 68.4717C30.216 68.4717 34.4803 74.6678 33.878 79.9728L28.1958 89.3413L32.0124 87.3997L33.7447 90.6463C33.7447 90.6463 29.3472 97.3889 23.7503 95.7974C18.1535 94.2059 30.216 68.4717 30.216 68.4717Z" fill="#263238"/>
<path opacity="0.4" d="M30.216 68.4717C30.216 68.4717 34.4803 74.6678 33.878 79.9728L28.1958 89.3413L32.0124 87.3997L33.7447 90.6463C33.7447 90.6463 29.3472 97.3889 23.7503 95.7974C18.1535 94.2059 30.216 68.4717 30.216 68.4717Z" fill="white"/>
<path d="M31.6125 87.2201L33.7927 91.2466L34.2777 90.0954L32.5454 86.8223L31.6125 87.2201Z" fill="#08AF24"/>
</svg>
