<svg width="110" height="100" viewBox="0 0 110 100" fill="none" xmlns="http://www.w3.org/2000/svg">
<path d="M45.5558 19.8385C33.489 21.0328 20.1241 15.0385 9.3161 22.9298C-0.835741 30.3601 -1.8467 45.0887 2.25628 55.6103C12.2645 81.254 45.8712 76.0465 66.9211 68.1666C86.242 60.9358 114.205 37.7089 102.032 13.951C97.3964 4.90193 85.9801 -1.31999 75.772 0.239703C61.6777 2.38674 60.1148 18.3996 45.5558 19.8385Z" fill="#08AF24"/>
<path opacity="0.9" d="M45.5558 19.8385C33.489 21.0328 20.1241 15.0385 9.3161 22.9298C-0.835741 30.3601 -1.8467 45.0887 2.25628 55.6103C12.2645 81.254 45.8712 76.0465 66.9211 68.1666C86.242 60.9358 114.205 37.7089 102.032 13.951C97.3964 4.90193 85.9801 -1.31999 75.772 0.239703C61.6777 2.38674 60.1148 18.3996 45.5558 19.8385Z" fill="white"/>
<path d="M54.8125 100C85.0734 100 109.605 98.5707 109.605 96.8076C109.605 95.0445 85.0734 93.6152 54.8125 93.6152C24.5517 93.6152 0.020443 95.0445 0.020443 96.8076C0.020443 98.5707 24.5517 100 54.8125 100Z" fill="#F5F5F5"/>
<path d="M45.7331 21.9212C45.7529 25.2631 43.3537 25.2292 43.4017 24.1914C43.4498 23.1536 42.8563 20.6691 43.4017 20.9088C43.9471 21.1485 45.7246 20.4434 45.7331 21.9212Z" fill="#263238"/>
<path d="M44.224 27.9741C44.5546 27.9487 45.2187 28.2561 45.278 29.1275C45.2935 29.3807 45.3676 29.6269 45.4947 29.8466C45.6217 30.0663 45.7981 30.2537 46.01 30.3938C46.01 30.3938 44.9107 30.5263 44.1901 29.9566C43.6023 29.497 43.3423 28.4902 43.6503 28.2646C43.8191 28.1288 44.0145 28.0299 44.224 27.9741Z" fill="#263238"/>
<path d="M43.7919 25.5986C44.3571 26.0978 44.8742 27.4176 43.5997 28.0437C42.3252 28.6698 40.3216 27.2118 40.3216 27.2118L42.523 26.1937L43.7919 25.5986Z" fill="#263238"/>
<path d="M44.4191 28.0948C44.388 27.9121 44.3368 27.7333 44.2665 27.5618C44.2604 27.5455 44.2508 27.5307 44.2382 27.5187C44.2257 27.5066 44.2105 27.4975 44.194 27.4921C44.1774 27.4867 44.1598 27.485 44.1425 27.4873C44.1252 27.4897 44.1087 27.4958 44.0941 27.5054L43.3113 28.0271C43.2956 28.0377 43.2827 28.052 43.2738 28.0687C43.2649 28.0854 43.2602 28.1041 43.2602 28.123C43.2602 28.1419 43.2649 28.1606 43.2738 28.1773C43.2827 28.194 43.2956 28.2083 43.3113 28.2189C43.424 28.3013 43.5453 28.3713 43.6731 28.4276C43.8567 28.5009 44.2382 28.2922 44.3682 28.202C44.3861 28.1908 44.4004 28.1748 44.4094 28.1558C44.4184 28.1368 44.4218 28.1156 44.4191 28.0948Z" fill="#08AF24"/>
<path opacity="0.3" d="M44.4191 28.0948C44.388 27.9121 44.3368 27.7333 44.2665 27.5618C44.2604 27.5455 44.2508 27.5307 44.2382 27.5187C44.2257 27.5066 44.2105 27.4975 44.194 27.4921C44.1774 27.4867 44.1598 27.485 44.1425 27.4873C44.1252 27.4897 44.1087 27.4958 44.0941 27.5054L43.3113 28.0271C43.2956 28.0377 43.2827 28.052 43.2738 28.0687C43.2649 28.0854 43.2602 28.1041 43.2602 28.123C43.2602 28.1419 43.2649 28.1606 43.2738 28.1773C43.2827 28.194 43.2956 28.2083 43.3113 28.2189C43.424 28.3013 43.5453 28.3713 43.6731 28.4276C43.8567 28.5009 44.2382 28.2922 44.3682 28.202C44.3861 28.1908 44.4004 28.1748 44.4094 28.1558C44.4184 28.1368 44.4218 28.1156 44.4191 28.0948Z" fill="black"/>
<path d="M35.9948 26.7106C35.6812 26.6062 34.9634 26.7472 34.6977 27.582C34.6223 27.8242 34.4917 28.0457 34.3162 28.2292C34.1407 28.4126 33.925 28.5531 33.6861 28.6395C33.6861 28.6395 34.7232 29.0287 35.5596 28.6395C36.2379 28.3321 36.7183 27.4128 36.4837 27.1195C36.3523 26.9495 36.1855 26.81 35.9948 26.7106Z" fill="#263238"/>
<path d="M39.1092 20.9707C37.9647 21.2809 36.4246 22.6346 37.1085 24.2956C36.4331 24.7553 35.5683 26.078 36.58 26.924C37.668 27.8349 40.3442 26.5574 40.3442 26.5574L40.3639 26.1231L40.6833 22.8912L39.1092 20.9707Z" fill="#263238"/>
<path d="M35.7773 26.7835C35.8533 26.6127 35.9481 26.451 36.0599 26.3012C36.0711 26.2877 36.0851 26.2767 36.1009 26.2692C36.1168 26.2617 36.1342 26.2578 36.1518 26.2578C36.1693 26.2578 36.1867 26.2617 36.2026 26.2692C36.2185 26.2767 36.2325 26.2877 36.2436 26.3012L36.8766 26.9922C36.8894 27.0062 36.8986 27.0231 36.9035 27.0415C36.9083 27.0598 36.9087 27.0791 36.9045 27.0976C36.9004 27.1161 36.8918 27.1334 36.8796 27.1479C36.8673 27.1624 36.8518 27.1738 36.8342 27.1811C36.7058 27.2334 36.5723 27.2721 36.4358 27.2967C36.238 27.3249 35.9328 27.0345 35.8141 26.916C35.7949 26.9005 35.781 26.8794 35.7744 26.8556C35.7679 26.8319 35.7689 26.8066 35.7773 26.7835Z" fill="#08AF24"/>
<path opacity="0.3" d="M35.7773 26.7835C35.8533 26.6127 35.9481 26.451 36.0599 26.3012C36.0711 26.2877 36.0851 26.2767 36.1009 26.2692C36.1168 26.2617 36.1342 26.2578 36.1518 26.2578C36.1693 26.2578 36.1867 26.2617 36.2026 26.2692C36.2185 26.2767 36.2325 26.2877 36.2436 26.3012L36.8766 26.9922C36.8894 27.0062 36.8986 27.0231 36.9035 27.0415C36.9083 27.0598 36.9087 27.0791 36.9045 27.0976C36.9004 27.1161 36.8918 27.1334 36.8796 27.1479C36.8673 27.1624 36.8518 27.1738 36.8342 27.1811C36.7058 27.2334 36.5723 27.2721 36.4358 27.2967C36.238 27.3249 35.9328 27.0345 35.8141 26.916C35.7949 26.9005 35.781 26.8794 35.7744 26.8556C35.7679 26.8319 35.7689 26.8066 35.7773 26.7835Z" fill="black"/>
<path d="M46.0752 32.7422C46.6149 33.1596 47.2056 33.6051 47.799 34.0112C48.3925 34.4173 48.9887 34.8263 49.602 35.2013C50.2152 35.5764 50.8369 35.9261 51.4642 36.2589L51.9362 36.4986L52.4166 36.7214C52.5748 36.7975 52.7359 36.8652 52.8998 36.9273L53.14 37.026C53.222 37.057 53.3096 37.0965 53.3605 37.1106C53.6558 37.2009 53.9583 37.266 54.2648 37.3052C54.5982 37.3531 54.9486 37.3869 55.3047 37.4123C56.014 37.4574 56.7431 37.4772 57.475 37.48C58.2069 37.4828 58.9473 37.48 59.6849 37.4574C60.4225 37.4349 61.1685 37.418 61.9033 37.3954L62.0417 38.5037C60.5575 38.8024 59.0587 39.0236 57.5513 39.1664C56.7911 39.2341 56.0281 39.2849 55.2482 39.2905C54.8582 39.2905 54.4626 39.2905 54.0556 39.2539C53.618 39.2281 53.1843 39.1573 52.7614 39.0424C52.6314 39.0085 52.5494 38.9747 52.4533 38.9437L52.1707 38.845C51.9814 38.7829 51.7949 38.7152 51.6055 38.6391L51.0573 38.4191L50.5204 38.1822C49.8109 37.8628 49.1194 37.5051 48.449 37.1106C47.7821 36.7186 47.1264 36.3125 46.4934 35.8782C45.8604 35.4439 45.25 34.9955 44.6283 34.4681L46.0752 32.7422Z" fill="#E4897B"/>
<path d="M43.1415 31.4763C43.8451 30.9292 46.7417 32.72 47.6234 33.4673L46.9819 37.3394C46.9819 37.3394 42.8137 35.5965 42.5621 34.4064C42.3022 33.1627 42.6102 31.8937 43.1415 31.4763Z" fill="#263238"/>
<path d="M61.5951 37.4915L63.3415 36.1406L63.48 38.2303C63.48 38.2303 62.2762 38.9749 61.4821 38.5124L61.5951 37.4915Z" fill="#E4897B"/>
<path d="M64.8987 35.9346L65.7917 36.9273L63.4687 38.2302L63.3303 36.1404L64.8987 35.9346Z" fill="#E4897B"/>
<path d="M31.7191 94.0516L33.9205 94.2152L34.7231 89.1587L32.5245 88.9951L31.7191 94.0516Z" fill="#E4897B"/>
<path d="M16.1455 86.9846L18.0134 88.1578L21.3395 84.2209L19.4716 83.0449L16.1455 86.9846Z" fill="#E4897B"/>
<path d="M18.604 87.7374L16.8547 85.9805C16.8248 85.9499 16.7848 85.9313 16.7421 85.9282C16.6994 85.9251 16.657 85.9377 16.623 85.9636L15.032 87.1509C14.9932 87.1822 14.9614 87.2213 14.9387 87.2656C14.916 87.3099 14.9029 87.3585 14.9002 87.4083C14.8976 87.458 14.9054 87.5077 14.9232 87.5542C14.9411 87.6007 14.9685 87.643 15.0037 87.6782C15.6226 88.2789 15.9533 88.5384 16.7219 89.3111C17.1938 89.7877 17.8353 90.5294 18.4881 91.1865C19.1409 91.8436 19.8248 91.2316 19.6185 90.9045C18.6633 89.4183 18.8357 88.8627 18.7707 88.1069C18.7611 87.9678 18.702 87.8368 18.604 87.7374Z" fill="#263238"/>
<path d="M34.0677 93.8996H31.5865C31.5429 93.8995 31.5006 93.9147 31.467 93.9425C31.4335 93.9704 31.4108 94.009 31.4028 94.0519L31.01 96.009C31.0009 96.0586 31.0033 96.1096 31.0168 96.1582C31.0304 96.2067 31.0549 96.2516 31.0883 96.2893C31.1218 96.3271 31.1634 96.3568 31.2101 96.3761C31.2567 96.3954 31.3072 96.404 31.3576 96.401C32.2224 96.3869 32.6434 96.3361 33.7342 96.3361C34.404 96.3361 36.2776 96.4038 37.213 96.4038C38.1483 96.4038 38.2416 95.4901 37.8601 95.4083C36.1504 95.0361 34.9974 94.5256 34.4407 94.0349C34.3378 93.9447 34.2047 93.8963 34.0677 93.8996Z" fill="#263238"/>
<path d="M34.723 89.1588L34.2765 91.9677L32.1062 91.6039L32.5216 88.998L34.723 89.1588Z" fill="#CE6F64"/>
<path d="M19.4716 83.0479L21.3395 84.221L19.9633 85.8511L18.053 84.7258L19.4716 83.0479Z" fill="#CE6F64"/>
<path d="M33.3924 43.1935L42.1924 44.9053C46.7393 32.618 45.7502 32.2147 45.7502 32.2147C45.1107 31.864 44.4501 31.5532 43.7721 31.284L43.6534 31.2389C43.0882 31.033 42.9752 31.002 42.2235 30.782C40.9292 30.4747 39.7225 30.218 38.2276 30.0065L37.945 29.967C37.6624 29.9332 37.4052 29.905 37.1453 29.8796C36.97 29.8599 36.7948 29.8486 36.6281 29.8373L36.0629 29.8063C35.0965 29.7583 34.4041 29.7724 34.4041 29.7724C34.6726 37.446 34.2374 39.6486 33.3924 43.1935Z" fill="#263238"/>
<path d="M39.499 25.5986C39.499 26.9297 39.2927 29.3297 38.2245 30.0121C38.2245 30.0121 38.3234 31.3827 40.7113 31.8452C43.3394 32.3557 42.2204 30.7877 42.2204 30.7877C40.8554 30.1673 41.09 29.1125 41.5421 28.165L39.499 25.5986Z" fill="#E4897B"/>
<path d="M40.3327 26.6455L41.5422 28.1656C41.4362 28.3852 41.3492 28.6136 41.2822 28.848C40.7481 28.6619 40.1123 27.9174 40.1518 27.3336C40.1699 27.0952 40.2311 26.8621 40.3327 26.6455Z" fill="#CE6F64"/>
<path d="M39.3717 22.5416C39.0891 24.7103 38.9167 25.6212 39.7871 26.9326C41.0955 28.9066 43.8254 28.7797 44.7551 26.7408C45.6029 24.9049 45.9194 21.6645 43.9836 20.4096C43.5587 20.1295 43.069 19.9624 42.5611 19.9244C42.0532 19.8863 41.544 19.9785 41.0819 20.1921C40.6198 20.4058 40.2201 20.7338 39.9207 21.145C39.6214 21.5562 39.4324 22.037 39.3717 22.5416Z" fill="#E4897B"/>
<path d="M46.4453 19.1071C46.4848 19.451 46.4589 19.7992 46.369 20.1336C46.3484 20.0202 46.321 19.9081 46.287 19.798C45.5127 17.2429 42.0255 17.8521 40.9743 18.9519C39.2787 18.4669 37.6651 18.8532 37.8799 20.926C37.9067 21.4601 38.0993 21.9726 38.4309 22.3925C38.1681 23.1201 38.4309 24.2792 39.2985 24.313C40.5193 24.361 41.6779 22.7478 42.1442 21.8623C42.992 22.0062 44.2128 22.1443 45.1397 21.9187C45.2951 22.0118 45.4223 22.0767 45.4223 22.0767C46.4086 21.5493 47.1603 21.0388 46.4453 19.1071Z" fill="#263238"/>
<path d="M38.6202 24.0229C38.5856 24.4437 38.7187 24.8612 38.9904 25.1848C39.3578 25.6106 39.8382 25.3596 40.0106 24.8548C40.1547 24.398 40.1349 23.6281 39.6432 23.3884C39.5349 23.3375 39.4155 23.3146 39.296 23.3215C39.1765 23.3285 39.0606 23.3652 38.959 23.4283C38.8573 23.4913 38.7731 23.5788 38.7139 23.6826C38.6547 23.7865 38.6225 23.9034 38.6202 24.0229Z" fill="#E4897B"/>
<path d="M42.0593 44.9055C42.0593 44.9055 42.0932 62.3395 40.6632 68.9048C39.1768 75.7352 34.8051 91.2741 34.8051 91.2741L31.64 90.8652C31.64 90.8652 34.1184 75.1683 35.1725 68.3803C36.3226 60.983 35.6189 43.6533 35.6189 43.6533L42.0593 44.9055Z" fill="#08AF24"/>
<path opacity="0.3" d="M42.0593 44.9055C42.0593 44.9055 42.0932 62.3395 40.6632 68.9048C39.1768 75.7352 34.8051 91.2741 34.8051 91.2741L31.64 90.8652C31.64 90.8652 34.1184 75.1683 35.1725 68.3803C36.3226 60.983 35.6189 43.6533 35.6189 43.6533L42.0593 44.9055Z" fill="black"/>
<path d="M35.345 91.5474L31.0977 91.0003L31.2785 89.5L36.0996 90.064L35.345 91.5474Z" fill="#263238"/>
<path d="M39.8694 44.4549C39.8694 44.4549 35.1303 58.863 32.7763 67.1626C30.2951 75.9192 20.783 85.6035 20.783 85.6035L18.056 84.0299C18.056 84.0299 24.5556 74.8362 26.9436 66.6663C31.807 50.0811 29.8091 46.5672 33.3923 43.1943L39.8694 44.4549Z" fill="#08AF24"/>
<path opacity="0.3" d="M39.8694 44.4549C39.8694 44.4549 35.1303 58.863 32.7763 67.1626C30.2951 75.9192 20.783 85.6035 20.783 85.6035L18.056 84.0299C18.056 84.0299 24.5556 74.8362 26.9436 66.6663C31.807 50.0811 29.8091 46.5672 33.3923 43.1943L39.8694 44.4549Z" fill="black"/>
<path d="M21.2266 86.0406L17.437 83.8578L18.3809 82.5098L22.5887 84.8251L21.2266 86.0406Z" fill="#263238"/>
<path d="M42.5085 23.7751C42.4746 23.9502 42.5397 24.1084 42.6557 24.1309C42.7717 24.1535 42.8906 24.0293 42.9387 23.8485C42.9868 23.6678 42.9076 23.5124 42.7916 23.4898C42.6755 23.4672 42.5425 23.6 42.5085 23.7751Z" fill="#263238"/>
<path d="M44.4839 24.1577C44.4499 24.3328 44.515 24.4938 44.6311 24.5164C44.7471 24.539 44.866 24.4147 44.8999 24.234C44.9339 24.0532 44.8688 23.8979 44.7528 23.8781C44.6367 23.8583 44.5179 23.9798 44.4839 24.1577Z" fill="#263238"/>
<path d="M44.7015 23.8814L45.1459 23.8447C45.1459 23.8447 44.8657 24.13 44.7015 23.8814Z" fill="#263238"/>
<path d="M43.9045 24.3584C43.9825 24.786 44.1194 25.2007 44.3114 25.5908C44.2102 25.6381 44.0997 25.6627 43.9879 25.6627C43.876 25.6627 43.7656 25.6381 43.6643 25.5908L43.9045 24.3584Z" fill="#DE5753"/>
<path d="M42.9241 26.1543C42.6879 26.1158 42.4645 26.0207 42.2731 25.8773C42.0817 25.7339 41.9279 25.5464 41.8248 25.3309C41.822 25.3246 41.8206 25.3178 41.8205 25.311C41.8205 25.3041 41.8218 25.2973 41.8245 25.291C41.8271 25.2847 41.831 25.2789 41.8359 25.2742C41.8408 25.2694 41.8467 25.2656 41.8531 25.2632C41.8658 25.2584 41.88 25.2586 41.8926 25.2639C41.9052 25.2691 41.9153 25.279 41.9209 25.2914C42.0196 25.4895 42.1636 25.6616 42.3413 25.7939C42.519 25.9262 42.7255 26.0149 42.9439 26.0528C42.9506 26.0538 42.957 26.0562 42.9628 26.0597C42.9686 26.0633 42.9736 26.068 42.9776 26.0735C42.9816 26.079 42.9844 26.0853 42.9858 26.0919C42.9873 26.0985 42.9875 26.1054 42.9863 26.112C42.9835 26.1258 42.9755 26.138 42.9638 26.1459C42.9522 26.1538 42.9379 26.1568 42.9241 26.1543Z" fill="#263238"/>
<path d="M42.0595 23.0242C42.0386 23.024 42.0182 23.0176 42.001 23.0058C41.9838 22.994 41.9705 22.9773 41.9629 22.9578C41.9553 22.9384 41.9537 22.9172 41.9583 22.8968C41.963 22.8765 41.9736 22.858 41.9888 22.8437C42.11 22.7303 42.2565 22.6474 42.4163 22.6018C42.576 22.5562 42.7443 22.5492 42.9072 22.5814C42.934 22.5893 42.9566 22.6073 42.9703 22.6315C42.984 22.6557 42.9877 22.6843 42.9807 22.7112C42.9734 22.7376 42.956 22.7601 42.9322 22.7739C42.9084 22.7876 42.8802 22.7914 42.8536 22.7845C42.7241 22.7616 42.5912 22.769 42.4651 22.8062C42.3391 22.8434 42.2234 22.9094 42.1273 22.9988C42.1086 23.0153 42.0844 23.0243 42.0595 23.0242Z" fill="#263238"/>
<path d="M45.5805 23.4161C45.5598 23.4163 45.5395 23.4102 45.5223 23.3987C45.5052 23.3871 45.492 23.3705 45.4845 23.3512C45.436 23.2291 45.3597 23.1198 45.2616 23.0322C45.1635 22.9446 45.0463 22.881 44.9193 22.8464C44.9057 22.844 44.8928 22.839 44.8812 22.8316C44.8696 22.8242 44.8595 22.8146 44.8517 22.8034C44.8438 22.7921 44.8382 22.7794 44.8353 22.766C44.8323 22.7525 44.8321 22.7387 44.8345 22.7252C44.8406 22.6985 44.8564 22.6751 44.8789 22.6594C44.9014 22.6438 44.9288 22.6371 44.956 22.6405C45.1172 22.6807 45.2665 22.7588 45.3913 22.8682C45.5162 22.9775 45.613 23.1151 45.6738 23.2694C45.6793 23.2822 45.6823 23.2959 45.6824 23.3098C45.6826 23.3237 45.68 23.3375 45.6747 23.3504C45.6694 23.3633 45.6616 23.375 45.6518 23.3848C45.6419 23.3946 45.6302 23.4024 45.6173 23.4076L45.5805 23.4161Z" fill="#263238"/>
<path d="M42.7462 25.3201C42.6587 25.3204 42.5723 25.3005 42.4938 25.2618C42.4154 25.2231 42.347 25.1668 42.294 25.0973C42.1611 24.8904 42.0725 24.6584 42.0336 24.4158C41.9947 24.1732 42.0064 23.9251 42.068 23.6872C42.229 22.7961 42.7886 22.0713 43.317 22.0713C43.405 22.0723 43.4916 22.0932 43.5703 22.1322C43.6491 22.1713 43.718 22.2276 43.772 22.2969C43.9044 22.504 43.9928 22.736 44.0317 22.9785C44.0706 23.2211 44.0592 23.469 43.9981 23.707C43.837 24.5981 43.2746 25.3201 42.7462 25.3201ZM43.3114 22.1503C42.8168 22.1503 42.2856 22.8496 42.1301 23.707C42.0312 24.271 42.1104 24.7786 42.3421 25.0522C42.3892 25.1131 42.4495 25.1625 42.5185 25.1967C42.5876 25.2309 42.6635 25.2489 42.7405 25.2496C43.2379 25.2496 43.7664 24.553 43.9218 23.6957H43.9557H43.9218C43.9817 23.469 43.9939 23.2324 43.9574 23.0009C43.9209 22.7693 43.8366 22.5478 43.7098 22.3505C43.6635 22.29 43.6041 22.2406 43.5362 22.2059C43.4682 22.1713 43.3933 22.1523 43.317 22.1503H43.3114Z" fill="#FAFAFA"/>
<path d="M44.9417 25.6015C44.8503 25.5996 44.7605 25.5774 44.6789 25.5364C44.5972 25.4954 44.5258 25.4367 44.4698 25.3646C44.3429 25.1748 44.257 24.9606 44.2176 24.7358C44.1782 24.511 44.1861 24.2805 44.2409 24.0589C44.385 23.2298 44.9276 22.5586 45.4504 22.5586C45.542 22.5608 45.6319 22.5835 45.7136 22.625C45.7953 22.6665 45.8666 22.7257 45.9223 22.7983C46.0483 22.988 46.1337 23.2017 46.1731 23.4259C46.2125 23.6501 46.205 23.88 46.1512 24.1012C46.0099 24.9331 45.4673 25.6015 44.9417 25.6015ZM45.4419 22.6291C44.9502 22.6291 44.4415 23.2749 44.3115 24.073C44.2607 24.2844 44.2535 24.504 44.2904 24.7183C44.3273 24.9326 44.4076 25.1372 44.5263 25.3195C44.576 25.3834 44.6393 25.4356 44.7116 25.4721C44.7839 25.5087 44.8635 25.5288 44.9445 25.531C45.4362 25.531 45.9477 24.888 46.0749 24.0899C46.1255 23.8786 46.1328 23.6593 46.0964 23.4451C46.06 23.2309 45.9806 23.0262 45.863 22.8434C45.8135 22.779 45.7504 22.7263 45.678 22.6892C45.6057 22.6522 45.526 22.6316 45.4447 22.6291H45.4419Z" fill="#FAFAFA"/>
<path d="M19.2539 88.7617C18.9713 88.7617 18.6746 88.3274 18.522 88.0764C18.5164 88.0681 18.5134 88.0583 18.5134 88.0482C18.5134 88.0382 18.5164 88.0284 18.522 88.02C18.5283 88.012 18.5365 88.0057 18.5459 88.0017C18.5553 87.9978 18.5656 87.9963 18.5757 87.9975C18.6661 88.0172 19.4433 88.1864 19.5422 88.4515C19.5534 88.4807 19.5565 88.5124 19.551 88.5433C19.5455 88.5741 19.5317 88.6028 19.5111 88.6264C19.4833 88.6689 19.4451 88.7036 19.4001 88.7273C19.3551 88.7509 19.3048 88.7628 19.2539 88.7617ZM18.6633 88.1272C18.8809 88.4543 19.0928 88.6489 19.2454 88.6574C19.2793 88.6577 19.3127 88.6493 19.3424 88.633C19.3721 88.6167 19.3971 88.593 19.415 88.5643C19.4245 88.5544 19.431 88.5419 19.4335 88.5284C19.436 88.5148 19.4345 88.5009 19.4291 88.4882C19.3783 88.3472 18.9742 88.2062 18.6633 88.1272Z" fill="#08AF24"/>
<path d="M18.7907 88.1267C18.7051 88.128 18.6197 88.1186 18.5364 88.0985C18.5279 88.0956 18.5202 88.0908 18.5138 88.0844C18.5074 88.0781 18.5026 88.0704 18.4997 88.0619C18.4931 88.0456 18.4931 88.0274 18.4997 88.0111C18.5194 87.9942 18.9518 87.5684 19.2711 87.5684H19.2938C19.3333 87.571 19.3719 87.5819 19.4069 87.6003C19.442 87.6188 19.4727 87.6444 19.4972 87.6755C19.526 87.7056 19.5439 87.7444 19.548 87.7858C19.5521 87.8273 19.5422 87.8688 19.5198 87.904C19.4294 88.0562 19.0677 88.1267 18.7907 88.1267ZM18.6636 88.0168C18.9292 88.0478 19.3588 87.9716 19.4464 87.8447C19.4605 87.825 19.4718 87.794 19.4294 87.7404C19.4146 87.7196 19.3952 87.7027 19.3726 87.6909C19.35 87.6792 19.3249 87.6729 19.2994 87.6727C19.0569 87.7191 18.8348 87.8393 18.6636 88.0168Z" fill="#08AF24"/>
<path d="M34.8787 94.2869C34.6448 94.2805 34.4121 94.2521 34.1835 94.2023C34.1726 94.2001 34.1627 94.1945 34.1551 94.1864C34.1475 94.1784 34.1426 94.1681 34.1411 94.1572C34.1399 94.1464 34.1419 94.1356 34.1469 94.126C34.152 94.1164 34.1598 94.1086 34.1694 94.1036C34.2739 94.0528 35.1811 93.6016 35.4439 93.7539C35.4678 93.769 35.4876 93.7897 35.5014 93.8144C35.5152 93.839 35.5226 93.8667 35.523 93.8949C35.5262 93.9425 35.5179 93.9902 35.4987 94.0339C35.4795 94.0776 35.4501 94.116 35.4128 94.1459C35.2555 94.2511 35.0675 94.3007 34.8787 94.2869ZM34.3615 94.1346C34.8448 94.2136 35.2093 94.1938 35.3506 94.0726C35.3747 94.0517 35.3936 94.0256 35.4058 93.9962C35.4181 93.9669 35.4234 93.9351 35.4213 93.9034C35.4218 93.8927 35.4195 93.8821 35.4145 93.8727C35.4095 93.8633 35.4021 93.8553 35.393 93.8498C35.2517 93.768 34.7487 93.9598 34.3615 94.1346Z" fill="#08AF24"/>
<path d="M34.1976 94.2019C34.1874 94.2048 34.1766 94.2048 34.1665 94.2019C34.1582 94.1965 34.1516 94.1889 34.1476 94.1799C34.1436 94.1709 34.1423 94.1609 34.1439 94.1511C34.1439 94.1116 34.2795 93.2148 34.7712 93.2148H34.8136C34.9549 93.2289 34.9945 93.2995 35.003 93.3587C35.0425 93.6068 34.4943 94.0863 34.2174 94.2047L34.1976 94.2019ZM34.7628 93.3107C34.4434 93.3107 34.3021 93.8296 34.2541 94.0552C34.5367 93.8889 34.9125 93.5138 34.8899 93.3643C34.8899 93.3643 34.8899 93.3192 34.791 93.3107H34.7628Z" fill="#08AF24"/>
<path d="M42.7262 23.4985L43.1705 23.459C43.1705 23.459 42.8903 23.7471 42.7262 23.4985Z" fill="#263238"/>
<path d="M40.7848 33.7212C37.1111 32.3309 35.9638 30.2496 36.0514 29.8125L36.6166 29.8463H36.7126C36.8483 29.8463 36.9952 29.8661 37.1337 29.883C37.3937 29.9056 37.6622 29.9338 37.9335 29.9704L38.216 30.0099C39.5648 30.1729 40.9002 30.4321 42.2119 30.7854C42.811 30.9603 43.0088 31.0167 43.3423 31.1351L43.639 31.2423L43.7577 31.2874C44.0516 31.9191 43.9866 33.2108 40.7848 33.7212Z" fill="#E4897B"/>
<path d="M40.7848 33.7212C37.1111 32.3309 35.9638 30.2496 36.0514 29.8125L36.6166 29.8463H36.7126C37.4587 30.9039 39.0921 32.3647 40.7566 32.5649C42.0961 32.2829 43.3592 31.9614 43.3479 31.1351L43.6447 31.2423L43.7634 31.2874C44.0516 31.9191 43.9866 33.2108 40.7848 33.7212Z" fill="#08AF24"/>
<path opacity="0.3" d="M40.7848 33.7212C37.1111 32.3309 35.9638 30.2496 36.0514 29.8125L36.6166 29.8463H36.7126C37.4587 30.9039 39.0921 32.3647 40.7566 32.5649C42.0961 32.2829 43.3592 31.9614 43.3479 31.1351L43.6447 31.2423L43.7634 31.2874C44.0516 31.9191 43.9866 33.2108 40.7848 33.7212Z" fill="black"/>
<path d="M33.3611 42.6525L32.7959 43.3631C32.7535 43.4167 32.8157 43.4929 32.9174 43.5126L42.1469 45.3062C42.226 45.3231 42.2995 45.3062 42.3136 45.247L42.5454 44.4771C42.5623 44.4235 42.503 44.3643 42.4154 44.3474L33.5024 42.6158C33.4776 42.6106 33.4519 42.6112 33.4274 42.6176C33.4029 42.6239 33.3802 42.6359 33.3611 42.6525Z" fill="#263238"/>
<path d="M34.3641 43.8786L34.1267 43.8335C34.0787 43.8335 34.0476 43.794 34.0561 43.763L34.3669 42.7647C34.3669 42.7336 34.4235 42.7195 34.4687 42.728L34.7089 42.7731C34.7569 42.7731 34.788 42.8154 34.7795 42.8436L34.4687 43.8448C34.4574 43.8611 34.441 43.8733 34.4221 43.8794C34.4032 43.8855 34.3828 43.8852 34.3641 43.8786Z" fill="#08AF24"/>
<path opacity="0.3" d="M34.3641 43.8786L34.1267 43.8335C34.0787 43.8335 34.0476 43.794 34.0561 43.763L34.3669 42.7647C34.3669 42.7336 34.4235 42.7195 34.4687 42.728L34.7089 42.7731C34.7569 42.7731 34.788 42.8154 34.7795 42.8436L34.4687 43.8448C34.4574 43.8611 34.441 43.8733 34.4221 43.8794C34.4032 43.8855 34.3828 43.8852 34.3641 43.8786Z" fill="black"/>
<path d="M34.9915 33.1762C34.8841 33.8445 34.7824 34.5862 34.7089 35.28C34.6354 35.9737 34.5704 36.6901 34.5365 37.412C34.5177 37.7673 34.5064 38.1227 34.5026 38.478C34.5026 38.8305 34.5026 39.1831 34.5026 39.5356C34.5166 40.2262 34.5703 40.9154 34.6637 41.5999C34.717 41.8343 34.8128 42.057 34.9463 42.257C35.1154 42.5316 35.3043 42.7936 35.5114 43.041C35.9632 43.5758 36.4464 44.0833 36.9583 44.561C37.4755 45.0574 38.018 45.5368 38.5748 46.005C39.1315 46.4731 39.7051 46.9384 40.2703 47.3868L39.6627 48.3231C38.3328 47.5957 37.0612 46.7669 35.859 45.8442C35.2385 45.3698 34.6529 44.8515 34.107 44.2931C33.8159 43.9937 33.5485 43.6722 33.3072 43.3315C33.0087 42.9285 32.7962 42.4688 32.6827 41.9806L32.5781 41.3828C32.5414 41.1882 32.516 40.9936 32.4933 40.8018C32.4368 40.4126 32.4057 40.0263 32.3747 39.6399C32.3159 38.8715 32.298 38.1005 32.321 37.3302C32.3436 36.566 32.386 35.8045 32.4623 35.0459C32.5386 34.2873 32.6346 33.5428 32.7872 32.7588L34.9915 33.1762Z" fill="#E4897B"/>
<path d="M33.1153 30.3628C31.9058 31.3385 32.194 34.2376 32.194 34.2376L36.2634 35.5744C36.2634 35.5744 36.0769 32.2325 35.879 31.0311C35.636 29.6013 34.3022 29.4011 33.1153 30.3628Z" fill="#263238"/>
<path d="M39.7732 47.2069L41.6129 46.5244L41.3303 48.2701C41.3303 48.2701 39.9964 48.7495 39.3126 48.1347L39.7732 47.2069Z" fill="#E4897B"/>
<path d="M43.8028 46.7839V48.1319L41.3301 48.2701L41.6127 46.5244L43.8028 46.7839Z" fill="#E4897B"/>
<path d="M41.4713 45.2614L41.2339 45.2163C41.1859 45.2163 41.1548 45.1768 41.1633 45.1458L41.4741 44.1475C41.4741 44.1165 41.5306 44.1024 41.5787 44.1108L41.8161 44.1559C41.8641 44.1559 41.8952 44.1982 41.8867 44.2264L41.5759 45.2276C41.5674 45.2558 41.5306 45.2727 41.4713 45.2614Z" fill="#08AF24"/>
<path opacity="0.3" d="M41.4713 45.2614L41.2339 45.2163C41.1859 45.2163 41.1548 45.1768 41.1633 45.1458L41.4741 44.1475C41.4741 44.1165 41.5306 44.1024 41.5787 44.1108L41.8161 44.1559C41.8641 44.1559 41.8952 44.1982 41.8867 44.2264L41.5759 45.2276C41.5674 45.2558 41.5306 45.2727 41.4713 45.2614Z" fill="black"/>
<path d="M37.9192 44.5671L37.679 44.522C37.6309 44.522 37.5998 44.4825 37.6111 44.4515L37.922 43.4531C37.922 43.4221 37.9757 43.408 38.0237 43.4165L38.2639 43.4616C38.3091 43.4616 38.3431 43.5039 38.3317 43.5321L38.0209 44.5332C38.0124 44.5671 37.9672 44.5812 37.9192 44.5671Z" fill="#08AF24"/>
<path opacity="0.3" d="M37.9192 44.5671L37.679 44.522C37.6309 44.522 37.5998 44.4825 37.6111 44.4515L37.922 43.4531C37.922 43.4221 37.9757 43.408 38.0237 43.4165L38.2639 43.4616C38.3091 43.4616 38.3431 43.5039 38.3317 43.5321L38.0209 44.5332C38.0124 44.5671 37.9672 44.5812 37.9192 44.5671Z" fill="black"/>
<path d="M19.9209 61.0115L34.5705 92.9411C34.9064 93.6668 35.5163 94.2303 36.267 94.5088C37.0178 94.7873 37.8485 94.758 38.5777 94.4273L40.9035 93.3669L94.7573 68.7613C95.4848 68.4272 96.0501 67.8193 96.3297 67.0705C96.6093 66.3216 96.5805 65.4928 96.2494 64.7651L83.3038 36.5638L81.6083 32.8384C81.2719 32.1132 80.6619 31.5501 79.9114 31.2718C79.1608 30.9934 78.3304 31.0223 77.6011 31.3522L21.4186 57.0154C20.6912 57.3496 20.1256 57.9571 19.845 58.7056C19.5645 59.4542 19.5918 60.283 19.9209 61.0115Z" fill="#08AF24"/>
<path opacity="0.1" d="M19.9209 61.0115L34.5705 92.9411C34.9064 93.6668 35.5163 94.2303 36.267 94.5088C37.0178 94.7873 37.8485 94.758 38.5777 94.4273L40.9035 93.3669L94.7573 68.7613C95.4848 68.4272 96.0501 67.8193 96.3297 67.0705C96.6093 66.3216 96.5805 65.4928 96.2494 64.7651L83.3038 36.5638L81.6083 32.8384C81.2719 32.1132 80.6619 31.5501 79.9114 31.2718C79.1608 30.9934 78.3304 31.0223 77.6011 31.3522L21.4186 57.0154C20.6912 57.3496 20.1256 57.9571 19.845 58.7056C19.5645 59.4542 19.5918 60.283 19.9209 61.0115Z" fill="white"/>
<path d="M33.0854 89.7034L94.7623 61.5234L87.544 45.7897L25.8671 73.9696L33.0854 89.7034Z" fill="#08AF24"/>
<path opacity="0.3" d="M33.0854 89.7034L94.7623 61.5234L87.544 45.7897L25.8671 73.9696L33.0854 89.7034Z" fill="white"/>
<path d="M48.597 76.5062L87.5729 58.6982L84.9896 53.0673L46.0137 70.8753L48.597 76.5062Z" fill="#08AF24"/>
<path opacity="0.8" d="M48.597 76.5062L87.5729 58.6982L84.9896 53.0673L46.0137 70.8753L48.597 76.5062Z" fill="white"/>
<path d="M27.2437 76.9778L88.9206 48.7979L85.0692 40.4028L23.3922 68.5827L27.2437 76.9778Z" fill="#08AF24"/>
<path opacity="0.3" d="M27.2437 76.9778L88.9206 48.7979L85.0692 40.4028L23.3922 68.5827L27.2437 76.9778Z" fill="black"/>
<g style="mix-blend-mode:multiply">
<path d="M28.2971 61.4122L40.9036 93.3559L94.7575 68.7502C95.4849 68.4162 96.0503 67.8082 96.3299 67.0594C96.6095 66.3106 96.5806 65.4817 96.2496 64.7541L83.3039 36.5527L30.0039 57.5007C29.2594 57.7955 28.662 58.3723 28.3422 59.1052C28.0224 59.8381 28.0062 60.6674 28.2971 61.4122Z" fill="#08AF24"/>
</g>
<path d="M99.5787 51.3147L99.3121 51.4082L99.7533 52.6614L100.02 52.5679L99.5787 51.3147Z" fill="#08AF24"/>
<path opacity="0.1" d="M99.5787 51.3147L99.3121 51.4082L99.7533 52.6614L100.02 52.5679L99.5787 51.3147Z" fill="white"/>
<path d="M97.3513 45.013L97.0847 45.1064L98.8225 50.0449L99.0892 49.9515L97.3513 45.013Z" fill="#08AF24"/>
<path opacity="0.1" d="M97.3513 45.013L97.0847 45.1064L98.8225 50.0449L99.0892 49.9515L97.3513 45.013Z" fill="white"/>
<path d="M32.0471 57.6106L90.3461 37.1787C91.1025 36.916 91.9322 36.9629 92.654 37.309C93.3758 37.6552 93.9309 38.2725 94.1979 39.0259L105.858 72.1596C106.121 72.9144 106.075 73.7426 105.728 74.4633C105.382 75.184 104.764 75.7387 104.01 76.0063L45.7105 96.4382C44.9537 96.7002 44.1239 96.653 43.4019 96.307C42.6798 95.961 42.1241 95.3442 41.8559 94.591L30.1961 61.4572C29.9328 60.7021 29.9797 59.8736 30.3265 59.1529C30.6733 58.4321 31.2919 57.8776 32.0471 57.6106Z" fill="#08AF24"/>
<path opacity="0.1" d="M32.0471 57.6106L90.3461 37.1787C91.1025 36.916 91.9322 36.9629 92.654 37.309C93.3758 37.6552 93.9309 38.2725 94.1979 39.0259L105.858 72.1596C106.121 72.9144 106.075 73.7426 105.728 74.4633C105.382 75.184 104.764 75.7387 104.01 76.0063L45.7105 96.4382C44.9537 96.7002 44.1239 96.653 43.4019 96.307C42.6798 95.961 42.1241 95.3442 41.8559 94.591L30.1961 61.4572C29.9328 60.7021 29.9797 59.8736 30.3265 59.1529C30.6733 58.4321 31.2919 57.8776 32.0471 57.6106Z" fill="white"/>
<path d="M39.7311 88.5489L103.733 66.1191L98.661 51.7054L34.6589 74.1352L39.7311 88.5489Z" fill="#08AF24"/>
<path opacity="0.3" d="M39.7311 88.5489L103.733 66.1191L98.661 51.7054L34.6589 74.1352L39.7311 88.5489Z" fill="white"/>
<path d="M78.4935 51.3856L91.7237 46.749L90.9999 44.6922L77.7697 49.3288L78.4935 51.3856Z" fill="#08AF24"/>
<path opacity="0.8" d="M78.4935 51.3856L91.7237 46.749L90.9999 44.6922L77.7697 49.3288L78.4935 51.3856Z" fill="white"/>
<path d="M89.6278 74.674L100.242 70.9541L99.8641 69.8791L89.2495 73.599L89.6278 74.674Z" fill="#08AF24"/>
<path opacity="0.8" d="M89.6278 74.674L100.242 70.9541L99.8641 69.8791L89.2495 73.599L89.6278 74.674Z" fill="white"/>
<path d="M87.2874 77.8053L100.966 73.0117L100.587 71.9367L86.9092 76.7303L87.2874 77.8053Z" fill="#08AF24"/>
<path opacity="0.8" d="M87.2874 77.8053L100.966 73.0117L100.587 71.9367L86.9092 76.7303L87.2874 77.8053Z" fill="white"/>
<path d="M45.7899 92.348L52.6289 89.9512L51.8153 87.6389L44.9762 90.0357L45.7899 92.348Z" fill="#08AF24"/>
<path opacity="0.8" d="M45.7899 92.348L52.6289 89.9512L51.8153 87.6389L44.9762 90.0357L45.7899 92.348Z" fill="white"/>
<path d="M88.3819 67.8331L96.368 65.0355C96.7889 64.886 97.1338 64.5767 97.3275 64.1748C97.5211 63.7729 97.548 63.3109 97.4022 62.8894C97.2524 62.4693 96.9424 62.1251 96.5397 61.9318C96.137 61.7386 95.6741 61.7117 95.2517 61.8572L87.2628 64.6576C86.8418 64.8071 86.497 65.1165 86.3033 65.5184C86.1096 65.9202 86.0827 66.3822 86.2285 66.8037C86.3789 67.224 86.6895 67.568 87.0928 67.7608C87.4961 67.9536 87.9594 67.9796 88.3819 67.8331Z" fill="#08AF24"/>
<path d="M74.7017 72.6278L82.6906 69.8274C83.1084 69.6772 83.4505 69.3695 83.6434 68.9703C83.8363 68.5711 83.8645 68.1123 83.7221 67.6925C83.5717 67.2729 83.2615 66.9294 82.8588 66.7367C82.4562 66.544 81.9936 66.5176 81.5715 66.6632L73.5854 69.4636C73.1644 69.6131 72.8196 69.9224 72.6259 70.3243C72.4322 70.7262 72.4053 71.1881 72.5511 71.6097C72.7037 72.0272 73.0149 72.3681 73.4173 72.5586C73.8197 72.7491 74.2811 72.7739 74.7017 72.6278Z" fill="#08AF24"/>
<path d="M61.03 77.4217L69.019 74.6213C69.4358 74.4701 69.7766 74.1618 69.9683 73.7628C70.1601 73.3637 70.1875 72.9055 70.0448 72.4865C69.8944 72.0669 69.5842 71.7234 69.1815 71.5307C68.7789 71.3379 68.3163 71.3115 67.8942 71.4571L59.8997 74.2462C59.4792 74.3963 59.135 74.7059 58.9419 75.1077C58.7488 75.5095 58.7223 75.9712 58.8682 76.3924C59.0185 76.8147 59.3305 77.1602 59.7358 77.3532C60.1411 77.5462 60.6066 77.5708 61.03 77.4217Z" fill="#08AF24"/>
<path d="M47.3439 82.2157L55.3328 79.4153C55.7511 79.2657 56.0939 78.9582 56.2873 78.5589C56.4808 78.1596 56.5094 77.7005 56.3671 77.2804C56.2167 76.8608 55.9065 76.5173 55.5038 76.3246C55.1012 76.1319 54.6386 76.1055 54.2165 76.2511L46.2276 79.0515C45.8066 79.201 45.4618 79.5103 45.2681 79.9122C45.0744 80.3141 45.0476 80.776 45.1933 81.1976C45.346 81.6152 45.6571 81.956 46.0595 82.1465C46.4619 82.337 46.9233 82.3618 47.3439 82.2157Z" fill="#08AF24"/>
<g opacity="0.8">
<path opacity="0.8" d="M88.3821 67.8331L96.3682 65.0355C96.7892 64.886 97.134 64.5767 97.3277 64.1748C97.5214 63.7729 97.5483 63.3109 97.4025 62.8894C97.2527 62.4693 96.9427 62.1251 96.54 61.9318C96.1373 61.7386 95.6744 61.7117 95.252 61.8572L87.263 64.6576C86.842 64.8071 86.4972 65.1165 86.3035 65.5184C86.1098 65.9202 86.083 66.3822 86.2287 66.8037C86.3791 67.224 86.6898 67.568 87.0931 67.7608C87.4964 67.9536 87.9597 67.9796 88.3821 67.8331Z" fill="white"/>
<path opacity="0.8" d="M74.7016 72.6278L82.6906 69.8274C83.1084 69.6772 83.4505 69.3695 83.6434 68.9703C83.8363 68.5711 83.8645 68.1123 83.722 67.6925C83.5716 67.2729 83.2614 66.9294 82.8588 66.7367C82.4561 66.544 81.9936 66.5176 81.5715 66.6632L73.5854 69.4636C73.1644 69.6131 72.8196 69.9224 72.6259 70.3243C72.4322 70.7262 72.4053 71.1881 72.5511 71.6097C72.7037 72.0272 73.0149 72.3681 73.4173 72.5586C73.8197 72.7491 74.281 72.7739 74.7016 72.6278Z" fill="white"/>
<path opacity="0.8" d="M61.0297 77.4217L69.0187 74.6213C69.4355 74.4701 69.7763 74.1618 69.968 73.7628C70.1598 73.3637 70.1872 72.9055 70.0445 72.4865C69.8941 72.0669 69.5839 71.7234 69.1812 71.5307C68.7786 71.3379 68.316 71.3115 67.8939 71.4571L59.8994 74.2462C59.4789 74.3963 59.1347 74.7059 58.9416 75.1077C58.7485 75.5095 58.722 75.9712 58.8679 76.3924C59.0182 76.8147 59.3302 77.1602 59.7355 77.3532C60.1408 77.5461 60.6063 77.5708 61.0297 77.4217Z" fill="white"/>
<path opacity="0.8" d="M47.3438 82.2157L55.3328 79.4153C55.7511 79.2657 56.0939 78.9582 56.2873 78.5589C56.4808 78.1596 56.5094 77.7005 56.3671 77.2804C56.2167 76.8608 55.9065 76.5173 55.5038 76.3246C55.1012 76.1319 54.6386 76.1055 54.2165 76.2511L46.2276 79.0515C45.8066 79.201 45.4618 79.5103 45.2681 79.9122C45.0744 80.3141 45.0475 80.776 45.1933 81.1976C45.3459 81.6152 45.6571 81.956 46.0595 82.1465C46.4619 82.337 46.9232 82.3618 47.3438 82.2157Z" fill="white"/>
</g>
<path d="M87.6712 61.4192L94.7796 58.928C95.3834 58.7164 95.7009 58.0565 95.4889 57.454L94.0076 53.2445C93.7956 52.642 93.1343 52.3251 92.5305 52.5367L85.4222 55.0279C84.8184 55.2395 84.5009 55.8994 84.7129 56.5019L86.1942 60.7114C86.4062 61.3139 87.0675 61.6308 87.6712 61.4192Z" fill="#08AF24"/>
<path opacity="0.3" d="M87.6712 61.4192L94.7796 58.928C95.3834 58.7164 95.7009 58.0565 95.4889 57.454L94.0076 53.2445C93.7956 52.642 93.1343 52.3251 92.5305 52.5367L85.4222 55.0279C84.8184 55.2395 84.5009 55.8994 84.7129 56.5019L86.1942 60.7114C86.4062 61.3139 87.0675 61.6308 87.6712 61.4192Z" fill="black"/>
<path d="M45.7699 65.7775C44.7444 65.7777 43.7562 65.3937 43.001 64.7015C42.2457 64.0092 41.7784 63.0592 41.6916 62.0395C41.6048 61.0198 41.9049 60.0047 42.5324 59.1953C43.1598 58.3858 44.069 57.841 45.0798 57.6687C46.0907 57.4963 47.1295 57.7091 47.9907 58.2647C48.8518 58.8204 49.4725 59.6785 49.7299 60.6691C49.9873 61.6597 49.8625 62.7107 49.3804 63.6139C48.8982 64.5171 48.0938 65.2067 47.1264 65.5462C46.6906 65.6994 46.2319 65.7776 45.7699 65.7775ZM45.7699 57.8811C45.3359 57.8819 44.9051 57.9553 44.4954 58.0982C43.5355 58.435 42.7488 59.1384 42.3084 60.0538C41.868 60.9693 41.81 62.0218 42.1471 62.9799C42.3807 63.6415 42.7921 64.2264 43.3362 64.6704C43.8804 65.1145 44.5364 65.4008 45.2326 65.498C45.9287 65.5952 46.6383 65.4996 47.2837 65.2216C47.9291 64.9435 48.4855 64.4938 48.8921 63.9216C49.2987 63.3493 49.5398 62.6765 49.5892 61.9768C49.6386 61.277 49.4942 60.5771 49.172 59.9537C48.8498 59.3302 48.362 58.8071 47.762 58.4416C47.162 58.0761 46.4729 57.8822 45.7699 57.8811Z" fill="#08AF24"/>
<path opacity="0.8" d="M45.7699 65.7775C44.7444 65.7777 43.7562 65.3937 43.001 64.7015C42.2457 64.0092 41.7784 63.0592 41.6916 62.0395C41.6048 61.0198 41.9049 60.0047 42.5324 59.1953C43.1598 58.3858 44.069 57.841 45.0798 57.6687C46.0907 57.4963 47.1295 57.7091 47.9907 58.2647C48.8518 58.8204 49.4725 59.6785 49.7299 60.6691C49.9873 61.6597 49.8625 62.7107 49.3804 63.6139C48.8982 64.5171 48.0938 65.2067 47.1264 65.5462C46.6906 65.6994 46.2319 65.7776 45.7699 65.7775ZM45.7699 57.8811C45.3359 57.8819 44.9051 57.9553 44.4954 58.0982C43.5355 58.435 42.7488 59.1384 42.3084 60.0538C41.868 60.9693 41.81 62.0218 42.1471 62.9799C42.3807 63.6415 42.7921 64.2264 43.3362 64.6704C43.8804 65.1145 44.5364 65.4008 45.2326 65.498C45.9287 65.5952 46.6383 65.4996 47.2837 65.2216C47.9291 64.9435 48.4855 64.4938 48.8921 63.9216C49.2987 63.3493 49.5398 62.6765 49.5892 61.9768C49.6386 61.277 49.4942 60.5771 49.172 59.9537C48.8498 59.3302 48.362 58.8071 47.762 58.4416C47.162 58.0761 46.4729 57.8822 45.7699 57.8811Z" fill="white"/>
<path d="M36.1843 65.0614C36.4448 65.7972 36.9179 66.4394 37.5439 66.9069C38.1699 67.3745 38.9207 67.6465 39.7015 67.6885C40.4823 67.7305 41.258 67.5407 41.9308 67.143C42.6036 66.7454 43.1432 66.1577 43.4814 65.4542C43.8197 64.7506 43.9415 63.9629 43.8315 63.1903C43.7214 62.4178 43.3844 61.6951 42.8631 61.1135C42.3417 60.532 41.6594 60.1177 40.9022 59.9229C40.1451 59.7281 39.347 59.7615 38.6089 60.019C38.1174 60.1905 37.6647 60.4571 37.2766 60.8036C36.8886 61.15 36.5729 61.5695 36.3476 62.0379C36.1224 62.5064 35.992 63.0146 35.964 63.5334C35.9359 64.0523 36.0108 64.5715 36.1843 65.0614Z" fill="#08AF24"/>
<path opacity="0.8" d="M36.1843 65.0614C36.4448 65.7972 36.9179 66.4394 37.5439 66.9069C38.1699 67.3745 38.9207 67.6465 39.7015 67.6885C40.4823 67.7305 41.258 67.5407 41.9308 67.143C42.6036 66.7454 43.1432 66.1577 43.4814 65.4542C43.8197 64.7506 43.9415 63.9629 43.8315 63.1903C43.7214 62.4178 43.3844 61.6951 42.8631 61.1135C42.3417 60.532 41.6594 60.1177 40.9022 59.9229C40.1451 59.7281 39.347 59.7615 38.6089 60.019C38.1174 60.1905 37.6647 60.4571 37.2766 60.8036C36.8886 61.15 36.5729 61.5695 36.3476 62.0379C36.1224 62.5064 35.992 63.0146 35.964 63.5334C35.9359 64.0523 36.0108 64.5715 36.1843 65.0614Z" fill="white"/>
</svg>
