<svg width="100" height="100" viewBox="0 0 100 100" fill="none" xmlns="http://www.w3.org/2000/svg">
<path d="M95.4437 33.4285C103.825 53.5385 66.2798 67.8254 45.262 67.1896C18.6688 66.3857 2.27578 53.8319 0.136092 31.8176C-1.98525 10.002 21.105 -5.30893 40.6495 1.73063C50.2811 5.19997 57.9014 12.6277 67.533 16.2866C78.9681 20.6271 90.2076 20.8625 95.4437 33.4285Z" fill="#08AF24"/>
<path opacity="0.9" d="M95.4437 33.4285C103.825 53.5385 66.2798 67.8254 45.262 67.1896C18.6688 66.3857 2.27578 53.8319 0.136092 31.8176C-1.98525 10.002 21.105 -5.30893 40.6495 1.73063C50.2811 5.19997 57.9014 12.6277 67.533 16.2866C78.9681 20.6271 90.2076 20.8625 95.4437 33.4285Z" fill="white"/>
<path d="M33.8576 14.5318C34.9978 11.7288 34.5882 8.31448 31.3542 7.55031C30.6416 7.36672 29.8958 7.35265 29.1768 7.50924C28.4577 7.66582 27.7854 7.9887 27.2136 8.452C26.6418 8.91529 26.1866 9.5061 25.8843 10.1771C25.5821 10.848 25.4412 11.5805 25.4731 12.3157C25.6015 15.3724 27.6128 17.9186 24.0884 20.1347C20.5641 22.3508 20.94 29.0297 27.7565 27.7397C34.5729 26.4498 30.8896 22.9438 30.8896 22.9438C30.8896 22.9438 29.2176 24.3071 28.6796 22.9193C27.9979 21.122 32.5371 17.8116 33.8576 14.5318Z" fill="#263238"/>
<path d="M21.8632 23.726L21.7134 23.6924C22.1688 21.6536 22.8841 21.1278 23.6391 20.5715C24.3941 20.0152 25.1094 19.4864 25.6871 17.4812C25.9591 16.5367 25.7879 15.4913 25.6198 14.4826C25.4059 13.1957 25.1858 11.863 25.8491 10.6709L25.9805 10.7473C25.3447 11.8905 25.5618 13.1927 25.7696 14.4581C25.9408 15.4852 26.1181 16.5459 25.8338 17.5148C25.2439 19.5689 24.4736 20.1344 23.7308 20.6846C22.988 21.2348 22.3064 21.7453 21.8632 23.726Z" fill="#263238"/>
<path d="M42.5385 29.9287C42.5599 30.0326 42.5966 30.1885 42.6302 30.3291L42.7372 30.7601C42.8106 31.0505 42.8931 31.3409 42.9787 31.6313C43.1529 32.209 43.3394 32.7928 43.5411 33.3675C43.9446 34.5239 44.4057 35.6593 44.9228 36.7696L45.3079 37.5735C45.3731 37.7172 45.4655 37.847 45.5799 37.9556C45.9235 38.2319 46.3335 38.4132 46.769 38.4813C47.9119 38.6661 49.0771 38.6661 50.22 38.4813L50.6327 39.7804C50.3164 39.9198 49.993 40.0422 49.6637 40.1472C49.3365 40.2561 49.0039 40.3479 48.6672 40.4223C47.9661 40.5838 47.2464 40.6507 46.5275 40.621C45.6816 40.5972 44.8591 40.3378 44.1525 39.8721C43.7549 39.5963 43.4196 39.2402 43.1682 38.8267L43.1193 38.7503L43.0887 38.6984L43.0276 38.5883L42.9023 38.3743L42.6547 37.9403C42.0151 36.7744 41.4534 35.5675 40.9735 34.3273C40.7412 33.716 40.512 33.0771 40.3255 32.4321C40.2338 32.1265 40.1421 31.7872 40.0596 31.4571C39.977 31.1269 39.9037 30.8152 39.8364 30.4239L42.5385 29.9287Z" fill="#FFC3BD"/>
<path d="M40.1788 25.6544C43.263 27.0299 43.2355 31.6516 43.2355 31.6516L39.9862 33.6049C39.9862 33.6049 37.5409 29.9857 37.7243 28.3412C37.9046 26.6264 38.4304 24.8811 40.1788 25.6544Z" fill="#08AF24"/>
<path opacity="0.2" d="M40.6648 29.5986C39.8211 28.7457 39.0784 29.73 38.3998 30.8212C38.8652 31.7861 39.3952 32.7185 39.9862 33.612L41.3189 32.8111C41.5818 31.7933 41.5054 30.4544 40.6648 29.5986Z" fill="black"/>
<path d="M49.899 38.5967L52.0692 37.5146L52.0937 40.3543C52.0937 40.3543 50.4737 40.6355 49.3947 39.4984L49.899 38.5967Z" fill="#FFC3BD"/>
<path d="M54.4016 38.019L54.0287 40.1281L52.0938 40.3543L52.0693 37.5146L54.4016 38.019Z" fill="#FFC3BD"/>
<path d="M30.0337 97.3073L32.7175 97.5641L33.9676 91.3193L31.2839 91.0625L30.0337 97.3073Z" fill="#FFC3BD"/>
<path d="M12.4364 89.9861L14.6189 91.5756L18.2594 86.4098L16.0739 84.8203L12.4364 89.9861Z" fill="#FFC3BD"/>
<path d="M15.4196 90.5819L13.6223 88.1213C13.5924 88.0777 13.5475 88.0467 13.4961 88.0343C13.4448 88.0219 13.3906 88.0289 13.3441 88.054L11.1892 89.1972C11.1359 89.2281 11.0898 89.27 11.0538 89.3199C11.0178 89.3699 10.9928 89.4269 10.9804 89.4872C10.968 89.5475 10.9685 89.6098 10.9818 89.6699C10.9951 89.73 11.021 89.7867 11.0577 89.8361C11.6996 90.6828 12.0512 91.0588 12.8428 92.1439C13.3319 92.8103 14.3101 94.3539 14.9825 95.2739C15.655 96.194 16.5995 95.5796 16.4039 95.1364C15.5175 93.1465 15.4869 91.9819 15.5541 91.0496C15.567 90.8826 15.5192 90.7166 15.4196 90.5819Z" fill="#263238"/>
<path d="M33.0721 96.7533H29.8503C29.7924 96.7534 29.7361 96.7726 29.6902 96.808C29.6444 96.8434 29.6115 96.8929 29.5966 96.9489L28.8967 99.489C28.8795 99.5491 28.8766 99.6124 28.8883 99.6739C28.8999 99.7353 28.9258 99.7931 28.9638 99.8427C29.0019 99.8923 29.051 99.9324 29.1073 99.9596C29.1635 99.9868 29.2254 100 29.2879 99.9995C30.425 99.9995 30.963 99.9995 32.3782 99.9995H36.7096C37.8864 99.9995 38.1309 98.8104 37.6449 98.7004C35.4624 98.2175 34.2031 97.5511 33.5275 96.9153C33.4017 96.8057 33.2389 96.7478 33.0721 96.7533Z" fill="#263238"/>
<path opacity="0.2" d="M33.9676 91.3222L33.3227 94.5409H30.5869L31.2838 91.0654L33.9676 91.3222Z" fill="black"/>
<path opacity="0.2" d="M16.0738 84.8203L18.2594 86.4128L16.3826 89.0752L14.197 87.4827L16.0738 84.8203Z" fill="black"/>
<path d="M41.4504 28.0917C41.2609 30.1549 40.5762 34.2051 38.5741 42.1188L27.5883 41.1682C28.1171 37.0447 28.3647 34.3732 27.3316 26.5664C27.298 26.3083 27.3178 26.0461 27.3898 25.7961C27.4618 25.546 27.5845 25.3134 27.7502 25.1128C27.9159 24.9121 28.121 24.7477 28.3529 24.6296C28.5849 24.5116 28.8386 24.4425 29.0983 24.4267C29.89 24.3839 30.8315 24.3564 31.776 24.3931C33.4469 24.4181 35.114 24.5621 36.7645 24.8241C37.7335 24.9983 38.7666 25.2489 39.6072 25.469C40.1749 25.6177 40.6715 25.9628 41.009 26.4429C41.3464 26.923 41.5028 27.5072 41.4504 28.0917Z" fill="#08AF24"/>
<path opacity="0.2" d="M27.6128 28.8528C27.7534 30.0755 27.8573 31.1667 27.9185 32.1449C28.9302 32.0562 29.6761 30.9467 29.7525 28.6266C29.3734 27.5048 28.4717 27.9114 27.6128 28.8528Z" fill="black"/>
<path d="M38.574 42.1183C38.574 42.1183 42.291 58.5633 39.7967 70.1573C38.1369 77.9213 34.4414 93.6052 34.4414 93.6052L29.7555 93.486C29.7555 93.486 31.993 77.0257 32.9314 70.5608C34.5362 59.4895 30.5166 41.4336 30.5166 41.4336L38.574 42.1183Z" fill="#263238"/>
<path opacity="0.2" d="M34.2886 45.4414L31.9441 49.1369C32.6501 53.5187 33.0981 57.9381 33.286 62.3724C36.5811 56.473 35.0191 48.5623 34.2886 45.4414Z" fill="black"/>
<path d="M35.114 93.8495L29.3246 93.7028L29.6608 91.9238L35.5663 92.202L35.114 93.8495Z" fill="#08AF24"/>
<path d="M36.1715 41.9444C36.1715 41.9444 33.9921 59.3828 29.2634 68.9044C25.4456 76.595 17.4584 88.8187 17.4584 88.8187L14.5393 86.4803C14.5393 86.4803 19.5339 72.9606 22.3705 67.8529C29.3306 55.3204 23.6421 45.7683 27.5883 41.168L36.1715 41.9444Z" fill="#263238"/>
<path d="M81.8863 26.4254L29.9298 48.2552C28.2987 48.9405 27.532 50.8183 28.2173 52.4494L40.575 81.8615C41.2603 83.4925 43.1381 84.2592 44.7691 83.5739L96.7256 61.7441C98.3567 61.0588 99.1234 59.181 98.4381 57.5499L86.0805 28.1379C85.3952 26.5068 83.5174 25.7401 81.8863 26.4254Z" fill="#08AF24"/>
<path opacity="0.1" d="M81.8863 26.4254L29.9298 48.2552C28.2987 48.9405 27.532 50.8183 28.2173 52.4494L40.575 81.8615C41.2603 83.4925 43.1381 84.2592 44.7691 83.5739L96.7256 61.7441C98.3567 61.0588 99.1234 59.181 98.4381 57.5499L86.0805 28.1379C85.3952 26.5068 83.5174 25.7401 81.8863 26.4254Z" fill="black"/>
<path opacity="0.2" d="M44.2616 46.9463L34.0884 51.2206C33.304 51.5502 32.9353 52.4533 33.2648 53.2377L35.4091 58.3412C35.7387 59.1256 36.6417 59.4943 37.4262 59.1647L47.5993 54.8904C48.3837 54.5608 48.7525 53.6578 48.4229 52.8734L46.2786 47.7699C45.949 46.9855 45.046 46.6167 44.2616 46.9463Z" fill="white"/>
<path opacity="0.4" d="M51.4001 67.1196L41.4326 71.3075C41.1385 71.4311 41.0002 71.7697 41.1238 72.0639L41.8804 73.8646C42.004 74.1588 42.3426 74.297 42.6368 74.1734L52.6043 69.9855C52.8984 69.862 53.0367 69.5233 52.9131 69.2292L52.1565 67.4284C52.0329 67.1343 51.6943 66.996 51.4001 67.1196Z" fill="white"/>
<path opacity="0.4" d="M64.3684 61.6723L54.4009 65.8602C54.1067 65.9838 53.9685 66.3224 54.0921 66.6166L54.8487 68.4173C54.9722 68.7115 55.3109 68.8498 55.6051 68.7262L65.5725 64.5383C65.8667 64.4147 66.0049 64.076 65.8813 63.7819L65.1248 61.9812C65.0012 61.687 64.6625 61.5487 64.3684 61.6723Z" fill="white"/>
<path opacity="0.4" d="M77.3334 56.2251L67.366 60.4129C67.0718 60.5365 66.9336 60.8752 67.0572 61.1693L67.8137 62.9701C67.9373 63.2642 68.276 63.4025 68.5701 63.2789L78.5376 59.091C78.8317 58.9674 78.97 58.6288 78.8464 58.3346L78.0898 56.5339C77.9662 56.2397 77.6276 56.1015 77.3334 56.2251Z" fill="white"/>
<path opacity="0.4" d="M90.3017 50.7778L80.3343 54.9657C80.0401 55.0893 79.9018 55.4279 80.0254 55.7221L80.782 57.5228C80.9056 57.817 81.2442 57.9552 81.5384 57.8316L91.5059 53.6437C91.8 53.5201 91.9383 53.1815 91.8147 52.8874L91.0581 51.0866C90.9345 50.7925 90.5959 50.6542 90.3017 50.7778Z" fill="white"/>
<g opacity="0.6">
<path opacity="0.6" d="M81.2831 40.6826C83.5998 40.1363 85.035 37.8152 84.4886 35.4985C83.9423 33.1817 81.6212 31.7465 79.3045 32.2929C76.9877 32.8393 75.5525 35.1603 76.0989 37.4771C76.6453 39.7938 78.9663 41.229 81.2831 40.6826Z" fill="#263238"/>
<path opacity="0.6" d="M78.5189 41.2575C79.9468 39.353 79.5604 36.6516 77.6559 35.2237C75.7514 33.7959 73.05 34.1823 71.6221 36.0868C70.1943 37.9913 70.5806 40.6927 72.4851 42.1205C74.3896 43.5484 77.091 43.162 78.5189 41.2575Z" fill="white"/>
</g>
<path d="M17.7641 89.1421L14.0197 86.3086L14.9397 84.6641L18.9195 87.7513L17.7641 89.1421Z" fill="#08AF24"/>
<path d="M27.4783 40.5103L26.8975 41.4517C26.8517 41.522 26.9373 41.6107 27.0626 41.6198L38.5863 42.6163C38.6841 42.6163 38.7697 42.5827 38.782 42.5216L38.9654 41.5465C38.9806 41.4792 38.8981 41.415 38.7911 41.4059L27.6648 40.443C27.6305 40.4375 27.5955 40.4408 27.5629 40.4526C27.5303 40.4643 27.5012 40.4842 27.4783 40.5103V40.5103Z" fill="#08AF24"/>
<path opacity="0.5" d="M27.4783 40.5103L26.8975 41.4517C26.8517 41.522 26.9373 41.6107 27.0626 41.6198L38.5863 42.6163C38.6841 42.6163 38.7697 42.5827 38.782 42.5216L38.9654 41.5465C38.9806 41.4792 38.8981 41.415 38.7911 41.4059L27.6648 40.443C27.6305 40.4375 27.5955 40.4408 27.5629 40.4526C27.5303 40.4643 27.5012 40.4842 27.4783 40.5103V40.5103Z" fill="black"/>
<path d="M28.869 41.8824L28.5634 41.8579C28.5053 41.8579 28.4625 41.8182 28.4686 41.7815L28.7192 40.516C28.7192 40.4763 28.7804 40.4519 28.8415 40.458L29.1472 40.4824C29.2083 40.4824 29.2511 40.5222 29.2419 40.5588L28.9913 41.8243C28.9791 41.861 28.924 41.8885 28.869 41.8824Z" fill="#08AF24"/>
<path d="M37.7334 42.6507L37.4277 42.6262C37.3697 42.6262 37.3269 42.5865 37.333 42.5498L37.5836 41.2843C37.5946 41.2624 37.6126 41.2448 37.6348 41.2343C37.6569 41.2238 37.682 41.2209 37.7059 41.2263L38.0116 41.2507C38.0727 41.2507 38.1155 41.2905 38.1063 41.3271L37.8557 42.5926C37.8526 42.6354 37.7976 42.6568 37.7334 42.6507Z" fill="#08AF24"/>
<path d="M33.3013 42.2682L32.9957 42.2407C32.9345 42.2407 32.8917 42.2009 32.9009 42.1642L33.1515 40.8988C33.1515 40.8621 33.2127 40.8346 33.2708 40.8407L33.5764 40.8682C33.6345 40.8682 33.6773 40.9079 33.6712 40.9446L33.4205 42.2101C33.4144 42.2468 33.3625 42.2712 33.3013 42.2682Z" fill="#08AF24"/>
<path d="M16.1043 91.9422C16.0699 91.9481 16.0347 91.9481 16.0003 91.9422C15.6672 91.875 15.389 91.3095 15.2423 90.9794C15.2365 90.9708 15.2334 90.9607 15.2334 90.9503C15.2334 90.94 15.2365 90.9299 15.2423 90.9213C15.2502 90.9153 15.2599 90.9121 15.2698 90.9121C15.2797 90.9121 15.2894 90.9153 15.2973 90.9213C15.4012 90.958 16.3121 91.3095 16.3824 91.6427C16.3909 91.6787 16.389 91.7165 16.3771 91.7516C16.3653 91.7867 16.3438 91.8178 16.3152 91.8413C16.2574 91.8965 16.1835 91.9319 16.1043 91.9422V91.9422ZM15.392 91.0497C15.5999 91.5051 15.8322 91.7955 16.0217 91.8322C16.0645 91.8386 16.1083 91.8342 16.1489 91.8192C16.1895 91.8043 16.2257 91.7793 16.254 91.7466C16.2693 91.7352 16.2809 91.7195 16.2874 91.7016C16.294 91.6837 16.2951 91.6643 16.2907 91.6457C16.2479 91.4409 15.7069 91.178 15.392 91.0497Z" fill="#08AF24"/>
<path d="M16.1319 91.0921C15.8413 91.1281 15.5464 91.0968 15.2699 91.0004C15.2614 90.9967 15.2542 90.9907 15.2488 90.9832C15.2434 90.9757 15.2401 90.9669 15.2393 90.9576C15.2381 90.9483 15.2395 90.9389 15.2432 90.9302C15.247 90.9216 15.2531 90.9142 15.2607 90.9087C15.2882 90.8904 15.9179 90.4319 16.2969 90.5175C16.3437 90.5264 16.388 90.5456 16.4266 90.5736C16.4652 90.6016 16.4971 90.6377 16.5201 90.6795C16.5503 90.7178 16.5668 90.7652 16.5668 90.814C16.5668 90.8628 16.5503 90.9102 16.5201 90.9485C16.4113 91.04 16.274 91.0909 16.1319 91.0921ZM15.4197 90.9301C15.7253 91.0188 16.2969 91.0249 16.4375 90.869C16.462 90.8445 16.4834 90.8048 16.4375 90.7253C16.4225 90.6969 16.4011 90.6723 16.3752 90.6532C16.3493 90.6341 16.3194 90.6212 16.2878 90.6153C16.031 90.5633 15.5908 90.817 15.4197 90.9301Z" fill="#08AF24"/>
<path d="M34.5025 97.2736C34.2061 97.266 33.9112 97.2292 33.6221 97.1635C33.6123 97.1592 33.604 97.1522 33.5981 97.1432C33.5922 97.1343 33.5891 97.1238 33.5891 97.1131C33.5891 97.1024 33.5922 97.0919 33.5981 97.0829C33.604 97.074 33.6123 97.0669 33.6221 97.0626C33.7566 96.9985 34.9243 96.4513 35.2177 96.6592C35.245 96.6765 35.2666 96.7012 35.2802 96.7305C35.2937 96.7597 35.2986 96.7923 35.2942 96.8242C35.2934 96.8841 35.2787 96.9429 35.2511 96.996C35.2235 97.0491 35.1838 97.095 35.1352 97.1299C34.945 97.2441 34.7233 97.2944 34.5025 97.2736V97.2736ZM33.8055 97.0902C34.154 97.1543 34.7959 97.2399 35.0588 97.0412C35.0929 97.0144 35.1209 96.9807 35.1409 96.9422C35.1609 96.9037 35.1725 96.8614 35.1749 96.8181C35.1749 96.7753 35.1749 96.757 35.1474 96.7478C34.9824 96.6347 34.2916 96.8762 33.8055 97.0902Z" fill="#08AF24"/>
<path d="M33.6344 97.1629C33.6236 97.1671 33.6116 97.1671 33.6008 97.1629C33.5929 97.1571 33.5869 97.149 33.5836 97.1397C33.5803 97.1304 33.5799 97.1204 33.5824 97.1109C33.5824 97.0589 33.8575 95.9066 34.4995 95.9799C34.6584 96.0013 34.7012 96.0777 34.7104 96.1419C34.7501 96.4476 34.0134 97.0284 33.6589 97.172L33.6344 97.1629ZM34.4353 96.0716C34.0287 96.0716 33.7934 96.7441 33.7139 97.0131C34.096 96.8113 34.6309 96.3314 34.5973 96.145C34.5973 96.1297 34.5973 96.0869 34.4781 96.0747L34.4353 96.0716Z" fill="#08AF24"/>
<path d="M28.8049 28.9075L28.6429 29.1368L28.4656 29.3966C28.3464 29.5739 28.2272 29.7542 28.1141 29.9407C27.8818 30.3075 27.6709 30.6896 27.4569 31.0717C27.0344 31.8402 26.6627 32.6356 26.3443 33.4528C26.0232 34.2652 25.7547 35.0973 25.5404 35.944L25.3967 36.5554C25.3967 36.537 25.3784 36.6012 25.412 36.7174C25.5172 37.0441 25.6707 37.3531 25.8674 37.6344C26.3612 38.3443 26.9155 39.01 27.5242 39.6243C28.1355 40.2723 28.8141 40.8989 29.4896 41.5225C30.1651 42.1461 30.8743 42.7452 31.5834 43.3351C32.2926 43.925 33.017 44.5211 33.7231 45.0958L32.959 46.2237C31.3216 45.2525 29.7408 44.1891 28.2241 43.0386C27.46 42.464 26.7111 41.8587 25.9867 41.2046C25.227 40.5388 24.5339 39.8007 23.9173 39.0007C23.5476 38.5309 23.2584 38.0031 23.0614 37.4387C22.9276 37.0459 22.8827 36.6283 22.93 36.2161V36.1305V36.0846L22.9452 35.9929L22.9758 35.8065L23.04 35.4366C23.2198 34.4521 23.4732 33.4825 23.7981 32.5358C24.134 31.5939 24.5312 30.6749 24.9871 29.7848C25.2164 29.3385 25.467 28.9075 25.736 28.4826C25.8674 28.2687 26.005 28.0578 26.1487 27.8469L26.3748 27.5412C26.4543 27.4342 26.5216 27.3394 26.6286 27.208L28.8049 28.9075Z" fill="#FFC3BD"/>
<path d="M28.5328 24.6007C26.4359 25.1509 24.4124 30.2341 24.4124 30.2341L27.1267 32.7162C27.1267 32.7162 31.3908 28.8281 31.2471 27.0735C31.1279 25.5818 30.217 24.1544 28.5328 24.6007Z" fill="#08AF24"/>
<path opacity="0.2" d="M31.776 24.2949C31.3919 24.3734 31.0003 24.4092 30.6084 24.4019C30.5258 25.9119 31.4948 27.37 33.876 29.3262C34.4476 27.5442 35.71 27.159 35.71 27.159L31.776 24.2949Z" fill="black"/>
<path opacity="0.2" d="M36.7645 24.7754C36.7645 24.7754 37.0427 24.8151 37.706 24.968C38.1492 25.6496 38.7239 27.7496 37.4187 29.2473C36.9113 27.4133 35.7008 27.181 35.7008 27.181L36.7645 24.7754Z" fill="black"/>
<path d="M31.776 24.2949C31.776 24.2949 31.1646 24.2949 30.4188 24.2949C29.9756 24.9766 31.5009 26.8656 33.879 28.8219C34.4506 27.0398 35.713 27.1468 35.713 27.1468L31.776 24.2949Z" fill="white"/>
<path d="M36.7645 24.7754C36.7645 24.7754 37.0427 24.8151 37.706 24.968C38.1492 25.6496 39.1059 27.4958 37.8007 28.9814C37.2933 27.1474 35.7008 27.1718 35.7008 27.1718L36.7645 24.7754Z" fill="white"/>
<path d="M32.7572 18.8076C32.9345 20.4399 32.9926 23.3926 31.776 24.383C31.776 24.383 32.4087 26.217 35.7008 27.1707C37.6815 26.0275 36.7645 24.814 36.7645 24.814C35.013 24.2332 35.175 22.9097 35.5938 21.687L32.7572 18.8076Z" fill="#FFC3BD"/>
<path opacity="0.2" d="M33.9127 19.9854L35.5939 21.6879C35.4909 21.9709 35.4132 22.2624 35.3616 22.5591C34.686 22.4032 33.7079 21.7002 33.6987 20.9788C33.7112 20.6376 33.7836 20.3014 33.9127 19.9854V19.9854Z" fill="black"/>
<path d="M36.474 12.285C37.009 11.6951 38.0696 12.447 38.4609 13.8928C39.0478 16.0325 37.4827 16.1854 36.6635 15.1155C35.8444 14.0457 36.0278 12.7772 36.474 12.285Z" fill="#263238"/>
<path d="M38.1309 16.042C38.6676 16.2277 39.175 16.4892 39.6378 16.8184C39.3719 16.1704 39.1335 15.7761 38.1309 16.042Z" fill="#263238"/>
<path d="M38.4396 16.1425C38.8741 16.0559 39.3186 16.0313 39.7601 16.0691C39.326 15.7359 39.0112 15.5709 38.4396 16.1425Z" fill="#263238"/>
<path d="M31.3144 16.2586C31.9961 18.8659 32.2315 19.9847 33.827 21.0759C36.2327 22.7204 39.2863 21.3143 39.3994 18.5541C39.5003 16.0721 38.3693 12.2268 35.5785 11.6827C34.9635 11.5579 34.3268 11.5929 33.7292 11.7844C33.1316 11.976 32.5931 12.3176 32.1653 12.7768C31.7375 13.2359 31.4346 13.797 31.2856 14.4066C31.1367 15.0163 31.1466 15.6539 31.3144 16.2586V16.2586Z" fill="#FFC3BD"/>
<path d="M32.5738 12.8201L31.8188 13.6974C31.5922 13.9566 31.2727 14.1161 30.9294 14.1412C30.5861 14.1664 30.2467 14.0553 29.9847 13.8319C29.7251 13.6058 29.5651 13.2864 29.5393 12.9431C29.5136 12.5998 29.6242 12.2602 29.8472 11.9979L30.6022 11.1237C30.8287 10.8647 31.148 10.7052 31.491 10.6795C31.8341 10.6537 32.1736 10.7639 32.4362 10.9861V10.9861C32.6951 11.2126 32.8547 11.5319 32.8804 11.875C32.9061 12.218 32.796 12.5575 32.5738 12.8201V12.8201Z" fill="white"/>
<path d="M33.2708 13.7988L32.3538 14.2573C31.9774 14.4417 31.5434 14.4696 31.1465 14.335C30.7496 14.2004 30.4221 13.9142 30.2355 13.539C30.051 13.1622 30.023 12.7277 30.1576 12.3303C30.2921 11.9329 30.5784 11.6049 30.9538 11.4177L31.8708 10.9591C32.248 10.7749 32.6828 10.7473 33.0802 10.8825C33.4777 11.0176 33.8055 11.3045 33.9922 11.6805V11.6805C34.1763 12.0573 34.2038 12.4916 34.0686 12.8885C33.9334 13.2855 33.6466 13.6127 33.2708 13.7988V13.7988Z" fill="#08AF24"/>
<path d="M32.0969 18.2092C32.0969 18.2092 33.9798 17.7782 33.179 15.0241C33.1491 14.9182 33.1438 14.8067 33.1637 14.6984C33.1835 14.5901 33.2279 14.4878 33.2934 14.3992C33.3589 14.3107 33.4438 14.2384 33.5416 14.1877C33.6394 14.1371 33.7475 14.1095 33.8576 14.1071C35.9789 14.0491 37.9627 13.6058 37.6815 12.377C37.3299 10.8242 32.0449 9.62602 31.0851 12.7347C29.2114 13.1718 29.1411 16.8643 32.0969 18.2092Z" fill="#263238"/>
<path d="M32.1061 17.6649C32.6428 17.8506 33.1502 18.1121 33.613 18.4413C33.3471 17.7994 33.1087 17.4051 32.1061 17.6649Z" fill="#263238"/>
<path d="M32.4148 17.7719C32.8493 17.6854 33.2939 17.6607 33.7353 17.6985C33.3043 17.3715 32.9895 17.2034 32.4148 17.7719Z" fill="#263238"/>
<path d="M30.8866 18.3069C31.1307 18.7674 31.5472 19.1125 32.0451 19.2667C32.7084 19.4654 33.0507 18.8785 32.8796 18.2458C32.7237 17.6772 32.1918 16.8917 31.5224 16.9681C31.3768 16.9882 31.2385 17.0443 31.1199 17.1312C31.0013 17.2181 30.9062 17.3331 30.8431 17.4659C30.7801 17.5987 30.751 17.7451 30.7586 17.8919C30.7662 18.0387 30.8102 18.1813 30.8866 18.3069Z" fill="#FFC3BD"/>
<path d="M35.7345 16.1709C35.7773 16.3849 35.9271 16.5377 36.0646 16.5102C36.2022 16.4827 36.2847 16.284 36.245 16.07C36.2052 15.8561 36.0524 15.7032 35.9118 15.7307C35.7712 15.7583 35.6917 15.9539 35.7345 16.1709Z" fill="#263238"/>
<path d="M38.1644 15.6903C38.2072 15.9073 38.3539 16.0571 38.4945 16.0296C38.6352 16.0021 38.7146 15.8065 38.6718 15.5925C38.629 15.3785 38.4823 15.2257 38.3417 15.2532C38.2011 15.2807 38.1216 15.4763 38.1644 15.6903Z" fill="#263238"/>
<path d="M38.2837 15.278L38.7697 15.0273C38.7697 15.0273 38.5832 15.4828 38.2837 15.278Z" fill="#263238"/>
<path d="M37.33 16.2285C37.6176 16.6817 37.9663 17.0931 38.3662 17.4512C38.2729 17.5534 38.1583 17.6337 38.0304 17.6865C37.9026 17.7394 37.7646 17.7634 37.6265 17.7569L37.33 16.2285Z" fill="#ED847E"/>
<path d="M36.6331 18.7685C36.1808 18.7743 35.7434 18.607 35.4104 18.3008C35.4005 18.2906 35.395 18.2769 35.395 18.2626C35.395 18.2484 35.4005 18.2347 35.4104 18.2244C35.4207 18.2145 35.4344 18.209 35.4487 18.209C35.4629 18.209 35.4766 18.2145 35.4869 18.2244C35.6926 18.4058 35.9382 18.536 36.2038 18.6046C36.4694 18.6731 36.7474 18.6779 37.0152 18.6187C37.029 18.6163 37.0432 18.6194 37.0546 18.6275C37.0661 18.6355 37.0739 18.6477 37.0763 18.6615C37.0788 18.6753 37.0756 18.6895 37.0676 18.7009C37.0596 18.7124 37.0473 18.7202 37.0335 18.7227C36.9021 18.7522 36.7678 18.7676 36.6331 18.7685V18.7685Z" fill="#263238"/>
<path d="M34.2764 15.3358C34.2571 15.3351 34.2383 15.3298 34.2213 15.3206C34.197 15.306 34.1795 15.2823 34.1726 15.2548C34.1658 15.2273 34.1701 15.1982 34.1847 15.1738C34.2857 15.0021 34.4264 14.857 34.595 14.7506C34.7635 14.6443 34.9551 14.5798 35.1536 14.5625C35.1818 14.5625 35.2089 14.5732 35.2294 14.5925C35.2498 14.6119 35.2621 14.6383 35.2637 14.6664C35.2641 14.6805 35.2617 14.6945 35.2567 14.7076C35.2517 14.7207 35.2442 14.7328 35.2345 14.743C35.2249 14.7532 35.2133 14.7614 35.2005 14.7672C35.1876 14.7729 35.1738 14.7761 35.1597 14.7765C34.9958 14.7945 34.8384 14.8513 34.7008 14.9422C34.5631 15.0331 34.4491 15.1555 34.3681 15.2992C34.3568 15.3122 34.3427 15.3223 34.3267 15.3287C34.3107 15.3351 34.2935 15.3375 34.2764 15.3358Z" fill="#263238"/>
<path d="M38.84 14.4738C38.823 14.4783 38.8051 14.4783 38.7881 14.4738C38.6455 14.3897 38.4852 14.3404 38.3201 14.3298C38.1549 14.3191 37.9896 14.3475 37.8374 14.4126C37.8103 14.4264 37.7788 14.4289 37.7498 14.4194C37.7209 14.4099 37.6969 14.3894 37.6831 14.3622C37.6693 14.3351 37.6669 14.3035 37.6763 14.2746C37.6858 14.2456 37.7064 14.2216 37.7335 14.2078C37.9166 14.1249 38.1169 14.0874 38.3176 14.0986C38.5182 14.1098 38.7132 14.1693 38.8859 14.272C38.8981 14.2787 38.9088 14.2878 38.9174 14.2987C38.9261 14.3096 38.9324 14.3221 38.9361 14.3355C38.9398 14.3489 38.9408 14.3629 38.939 14.3766C38.9372 14.3904 38.9326 14.4037 38.9256 14.4157C38.9179 14.4322 38.9059 14.4463 38.8908 14.4565C38.8758 14.4668 38.8582 14.4727 38.84 14.4738Z" fill="#263238"/>
<path d="M32.7236 44.6406L35.1689 44.8118L34.0654 47.4253C34.0654 47.4253 32.0236 46.7803 31.941 45.2856L32.7236 44.6406Z" fill="#FFC3BD"/>
<path d="M36.1074 46.291L34.9245 48.0761L34.0686 47.425L35.1782 44.8115L36.1074 46.291Z" fill="#FFC3BD"/>
<path d="M35.8536 15.7546L36.3396 15.5039C36.3396 15.5039 36.1532 15.9593 35.8536 15.7546Z" fill="#263238"/>
</svg>
