<svg width="315" height="27" viewBox="0 0 315 27" fill="none" xmlns="http://www.w3.org/2000/svg">
    <path d="M21.4902 17.4746C21.291 20.2285 20.2715 22.3965 18.4316 23.9785C16.6035 25.5605 14.1895 26.3516 11.1895 26.3516C7.9082 26.3516 5.32422 25.25 3.4375 23.0469C1.5625 20.832 0.625 17.7969 0.625 13.9414V12.377C0.625 9.91602 1.05859 7.74805 1.92578 5.87305C2.79297 3.99805 4.0293 2.5625 5.63477 1.56641C7.25195 0.558594 9.12695 0.0546875 11.2598 0.0546875C14.2129 0.0546875 16.5918 0.845703 18.3965 2.42773C20.2012 4.00977 21.2441 6.23047 21.5254 9.08984H16.252C16.123 7.4375 15.6602 6.24219 14.8633 5.50391C14.0781 4.75391 12.877 4.37891 11.2598 4.37891C9.50195 4.37891 8.18359 5.01172 7.30469 6.27734C6.4375 7.53125 5.99219 9.48242 5.96875 12.1309V14.0645C5.96875 16.8301 6.38477 18.8516 7.2168 20.1289C8.06055 21.4062 9.38477 22.0449 11.1895 22.0449C12.8184 22.0449 14.0312 21.6758 14.8281 20.9375C15.6367 20.1875 16.0996 19.0332 16.2168 17.4746H21.4902ZM45.9766 13.7832C45.9766 16.3027 45.5312 18.5117 44.6406 20.4102C43.75 22.3086 42.4727 23.7734 40.8086 24.8047C39.1562 25.8359 37.2578 26.3516 35.1133 26.3516C32.9922 26.3516 31.0996 25.8418 29.4355 24.8223C27.7715 23.8027 26.4824 22.3496 25.5684 20.4629C24.6543 18.5645 24.1914 16.3848 24.1797 13.9238V12.6582C24.1797 10.1387 24.6309 7.92383 25.5332 6.01367C26.4473 4.0918 27.7305 2.62109 29.3828 1.60156C31.0469 0.570312 32.9453 0.0546875 35.0781 0.0546875C37.2109 0.0546875 39.1035 0.570312 40.7559 1.60156C42.4199 2.62109 43.7031 4.0918 44.6055 6.01367C45.5195 7.92383 45.9766 10.1328 45.9766 12.6406V13.7832ZM40.6328 12.623C40.6328 9.93945 40.1523 7.90039 39.1914 6.50586C38.2305 5.11133 36.8594 4.41406 35.0781 4.41406C33.3086 4.41406 31.9434 5.10547 30.9824 6.48828C30.0215 7.85938 29.5352 9.875 29.5234 12.5352V13.7832C29.5234 16.3965 30.0039 18.4238 30.9648 19.8652C31.9258 21.3066 33.3086 22.0273 35.1133 22.0273C36.8828 22.0273 38.2422 21.3359 39.1914 19.9531C40.1406 18.5586 40.6211 16.5312 40.6328 13.8711V12.623ZM56.6992 0.40625L63.2734 18.9688L69.8125 0.40625H76.7383V26H71.4473V19.0039L71.9746 6.92773L65.0664 26H61.4453L54.5547 6.94531L55.082 19.0039V26H49.8086V0.40625H56.6992ZM96.1094 20.7266H86.8633L85.1055 26H79.498L89.0254 0.40625H93.9121L103.492 26H97.8848L96.1094 20.7266ZM88.2871 16.4551H94.6855L91.4688 6.875L88.2871 16.4551ZM126.695 26H121.422L111.156 9.16016V26H105.883V0.40625H111.156L121.439 17.2812V0.40625H126.695V26ZM131.301 26V0.40625H139.176C141.426 0.40625 143.436 0.916016 145.205 1.93555C146.986 2.94336 148.375 4.38477 149.371 6.25977C150.367 8.12305 150.865 10.2441 150.865 12.623V13.8008C150.865 16.1797 150.373 18.2949 149.389 20.1465C148.416 21.998 147.039 23.4336 145.258 24.4531C143.477 25.4727 141.467 25.9883 139.229 26H131.301ZM136.574 4.67773V21.7637H139.123C141.186 21.7637 142.762 21.0898 143.852 19.7422C144.941 18.3945 145.498 16.4668 145.521 13.959V12.6055C145.521 10.0039 144.982 8.03516 143.904 6.69922C142.826 5.35156 141.25 4.67773 139.176 4.67773H136.574ZM168.777 20.7266H159.531L157.773 26H152.166L161.693 0.40625H166.58L176.16 26H170.553L168.777 20.7266ZM160.955 16.4551H167.354L164.137 6.875L160.955 16.4551Z" fill="#08AF24"/>
    <path d="M194.406 0.40625L200.98 18.9688L207.52 0.40625H214.445V26H209.154V19.0039L209.682 6.92773L202.773 26H199.152L192.262 6.94531L192.789 19.0039V26H187.516V0.40625H194.406ZM240.074 13.7832C240.074 16.3027 239.629 18.5117 238.738 20.4102C237.848 22.3086 236.57 23.7734 234.906 24.8047C233.254 25.8359 231.355 26.3516 229.211 26.3516C227.09 26.3516 225.197 25.8418 223.533 24.8223C221.869 23.8027 220.58 22.3496 219.666 20.4629C218.752 18.5645 218.289 16.3848 218.277 13.9238V12.6582C218.277 10.1387 218.729 7.92383 219.631 6.01367C220.545 4.0918 221.828 2.62109 223.48 1.60156C225.145 0.570312 227.043 0.0546875 229.176 0.0546875C231.309 0.0546875 233.201 0.570312 234.854 1.60156C236.518 2.62109 237.801 4.0918 238.703 6.01367C239.617 7.92383 240.074 10.1328 240.074 12.6406V13.7832ZM234.73 12.623C234.73 9.93945 234.25 7.90039 233.289 6.50586C232.328 5.11133 230.957 4.41406 229.176 4.41406C227.406 4.41406 226.041 5.10547 225.08 6.48828C224.119 7.85938 223.633 9.875 223.621 12.5352V13.7832C223.621 16.3965 224.102 18.4238 225.062 19.8652C226.023 21.3066 227.406 22.0273 229.211 22.0273C230.98 22.0273 232.34 21.3359 233.289 19.9531C234.238 18.5586 234.719 16.5312 234.73 13.8711V12.623ZM243.906 26V0.40625H252.871C255.977 0.40625 258.332 1.00391 259.938 2.19922C261.543 3.38281 262.346 5.12305 262.346 7.41992C262.346 8.67383 262.023 9.78125 261.379 10.7422C260.734 11.6914 259.838 12.3887 258.689 12.834C260.002 13.1621 261.033 13.8242 261.783 14.8203C262.545 15.8164 262.926 17.0352 262.926 18.4766C262.926 20.9375 262.141 22.8008 260.57 24.0664C259 25.332 256.762 25.9766 253.855 26H243.906ZM249.18 14.8555V21.7637H253.697C254.939 21.7637 255.906 21.4707 256.598 20.8848C257.301 20.2871 257.652 19.4668 257.652 18.4238C257.652 16.0801 256.439 14.8906 254.014 14.8555H249.18ZM249.18 11.1289H253.082C255.742 11.082 257.072 10.0215 257.072 7.94727C257.072 6.78711 256.732 5.95508 256.053 5.45117C255.385 4.93555 254.324 4.67773 252.871 4.67773H249.18V11.1289ZM272.506 26H267.232V0.40625H272.506V26ZM282.684 21.7637H293.881V26H277.41V0.40625H282.684V21.7637ZM312.32 14.9082H302.195V21.7637H314.078V26H296.922V0.40625H314.043V4.67773H302.195V10.7773H312.32V14.9082Z" fill="white"/>
</svg>