<svg width="103" height="100" viewBox="0 0 103 100" fill="none" xmlns="http://www.w3.org/2000/svg">
<path d="M39.7783 42.5841C54.731 35.3154 85.6153 2.40791 99.3499 28.6579C110.844 50.6238 85.4229 71.2295 70.2034 78.768C50.4058 88.578 21.306 84.7041 5.64108 66.1606C-1.09562 58.1761 -3.52634 46.8875 8.22577 44.7868C12.1908 44.0764 18.922 46.6645 23.404 46.4387C29.148 46.1496 34.7739 45.0153 39.7783 42.5841Z" fill="#08AF24"/>
<path opacity="0.9" d="M39.7783 42.5841C54.731 35.3154 85.6153 2.40791 99.3499 28.6579C110.844 50.6238 85.4229 71.2295 70.2034 78.768C50.4058 88.578 21.306 84.7041 5.64108 66.1606C-1.09562 58.1761 -3.52634 46.8875 8.22577 44.7868C12.1908 44.0764 18.922 46.6645 23.404 46.4387C29.148 46.1496 34.7739 45.0153 39.7783 42.5841Z" fill="white"/>
<path d="M48.195 27.1136C47.5874 28.5921 44.01 28.4903 40.2622 26.9429C36.5144 25.3955 33.9655 22.9424 34.5732 21.4638C34.7161 21.1224 35.1231 19.8421 35.53 19.6659C36.9269 19.074 39.5858 20.4038 42.4647 21.5932C45.1457 22.6946 48.2115 23.4132 48.6872 24.8697C48.9732 25.7562 48.3683 26.6923 48.195 27.1136Z" fill="#08AF24"/>
<path opacity="0.2" d="M48.6872 24.8696C48.9154 26.0287 48.4122 26.5849 48.195 27.1135C47.9778 27.6422 47.3426 27.9891 46.4545 28.1102C46.3434 28.1291 46.2314 28.142 46.119 28.1488C45.438 28.1889 44.7546 28.1529 44.0815 28.0414C43.9853 28.0414 43.889 28.0111 43.79 27.9946C42.9999 27.8526 42.2215 27.652 41.4611 27.3944L41.1861 27.3008C40.8809 27.1934 40.5674 27.075 40.254 26.9456C39.9405 26.8162 39.6435 26.6703 39.3493 26.5409L39.0964 26.4197C38.4032 26.0765 37.7352 25.6845 37.0973 25.2468L36.8719 25.0871C36.3151 24.693 35.8049 24.2367 35.3513 23.727C35.2826 23.6499 35.2193 23.5756 35.1588 23.4985C34.5676 22.7496 34.3339 22.0337 34.5676 21.4638C34.7216 21.0976 35.0516 19.8448 35.5245 19.6631C36.1062 19.499 36.7219 19.499 37.3036 19.6631L37.5785 19.7292C38.9534 20.0816 40.6857 20.8663 42.4537 21.5959C44.538 22.4577 47.0044 23.3525 48.2143 24.385C48.2863 24.4457 48.3551 24.51 48.4205 24.5778C48.517 24.6678 48.6062 24.7654 48.6872 24.8696Z" fill="black"/>
<g opacity="0.2">
<path opacity="0.2" d="M37.716 19.4925L37.5895 19.7238L35.3568 23.7243C35.288 23.6472 35.2248 23.5729 35.1643 23.4958L37.309 19.6577L37.4768 19.3604L37.716 19.4925Z" fill="black"/>
</g>
<g opacity="0.2">
<path opacity="0.2" d="M39.4043 21.1257L37.1028 25.2556L36.8773 25.0959L39.1651 20.999L39.4043 21.1257Z" fill="black"/>
</g>
<g opacity="0.2">
<path opacity="0.2" d="M43.6361 23.4926L41.4611 27.394L41.1861 27.3004L43.3859 23.3467L43.6361 23.4926Z" fill="black"/>
</g>
<g opacity="0.2">
<path opacity="0.2" d="M41.6674 22.392L39.3549 26.5413L39.1019 26.4201L41.4281 22.2461L41.6674 22.392Z" fill="black"/>
</g>
<g opacity="0.2">
<path opacity="0.2" d="M46.2015 24.248L44.0815 28.0421C43.9853 28.0421 43.8891 28.0118 43.7901 27.9953L45.9596 24.1104L46.2015 24.248Z" fill="black"/>
</g>
<path d="M48.6708 25.8251C48.0631 27.3036 44.5298 27.2458 40.7792 25.6957C37.0287 24.1456 34.4825 21.6952 35.0929 20.2166C35.7033 18.7381 39.2339 18.7987 42.9844 20.346C46.735 21.8934 49.2784 24.3383 48.6708 25.8251Z" fill="#08AF24"/>
<path opacity="0.2" d="M47.3949 25.2879C46.966 26.3314 44.2108 26.1854 41.2439 24.9602C38.277 23.735 36.2203 21.893 36.6492 20.8495C37.0782 19.806 39.8333 19.9519 42.803 21.1772C45.7726 22.4024 47.8266 24.2443 47.3949 25.2879Z" fill="white"/>
<path d="M67.1459 13.7493C68.1247 15.013 66.2605 18.0719 63.0516 20.5582C59.8427 23.0444 56.4524 24.0356 55.4762 22.7608C55.2508 22.469 54.3379 21.4915 54.3929 21.0345C54.5771 19.5284 57.0491 17.882 59.5128 15.9712C61.806 14.1925 63.948 11.8853 65.4466 12.1964C66.3567 12.3974 66.8681 13.3913 67.1459 13.7493Z" fill="#08AF24"/>
<path opacity="0.2" d="M65.4465 12.207C66.5656 12.587 66.7966 13.3084 67.1458 13.7489C67.495 14.1894 67.4813 14.9245 67.1458 15.7588C67.1073 15.8607 67.0606 15.9625 67.0111 16.0672C66.7098 16.6793 66.3409 17.2555 65.9112 17.7852C65.8535 17.8623 65.7902 17.9367 65.727 18.0137C65.2099 18.6313 64.6474 19.2093 64.0442 19.7428L63.8324 19.9273C63.5877 20.1393 63.3293 20.3513 63.0625 20.5578C62.7958 20.7643 62.5291 20.9598 62.2596 21.1443C62.1854 21.1993 62.1057 21.2516 62.0314 21.3039C61.389 21.7355 60.7163 22.1201 60.0186 22.4548C59.9334 22.4989 59.8509 22.5347 59.7712 22.5732C59.1513 22.8603 58.501 23.0765 57.8327 23.2175C57.7337 23.2395 57.6374 23.256 57.5412 23.2698C56.5981 23.4102 55.8611 23.2698 55.4844 22.7715C55.2425 22.4576 54.3213 21.5462 54.4011 21.0479C54.5449 20.4588 54.8507 19.9218 55.2837 19.4978C55.3442 19.4289 55.4102 19.3601 55.4789 19.2885C56.4716 18.2588 58.0086 17.1547 59.521 15.9846C61.3055 14.6079 63.3073 12.9036 64.8003 12.3695C64.8905 12.3363 64.9822 12.3078 65.0753 12.2841C65.197 12.2494 65.3211 12.2236 65.4465 12.207Z" fill="black"/>
<g opacity="0.2">
<path opacity="0.2" d="M55.3331 19.0625L55.4706 19.2883L57.8243 23.2172C57.7253 23.2393 57.6291 23.2558 57.5329 23.2695L55.2754 19.492L55.0994 19.2167L55.3331 19.0625Z" fill="black"/>
</g>
<g opacity="0.2">
<path opacity="0.2" d="M57.5851 18.4082L60.0103 22.4556C59.9251 22.4996 59.8426 22.5354 59.7629 22.574L57.3487 18.5486L57.5851 18.4082Z" fill="black"/>
</g>
<g opacity="0.2">
<path opacity="0.2" d="M61.7398 15.9131L64.0358 19.7457L63.8241 19.9302L61.5034 16.0535L61.7398 15.9131Z" fill="black"/>
</g>
<g opacity="0.2">
<path opacity="0.2" d="M59.8096 17.0723L62.2513 21.1444C62.1771 21.1995 62.0973 21.2518 62.0231 21.3041L59.5704 17.2127L59.8096 17.0723Z" fill="black"/>
</g>
<g opacity="0.2">
<path opacity="0.2" d="M63.6703 14.0547L65.903 17.7854C65.8453 17.8625 65.782 17.9368 65.7188 18.0139L63.4338 14.1979L63.6703 14.0547Z" fill="black"/>
</g>
<path d="M62.219 19.4774C65.4258 16.9903 67.2331 13.9499 66.2557 12.6864C65.2784 11.4229 61.8865 12.4149 58.6797 14.902C55.473 17.3891 53.6657 20.4295 54.6431 21.693C55.6204 22.9565 59.0123 21.9645 62.219 19.4774Z" fill="#08AF24"/>
<path opacity="0.2" d="M61.8213 18.7114C64.3593 16.743 65.8567 14.4231 65.1658 13.5299C64.4748 12.6367 61.8573 13.5084 59.3192 15.4768C56.7812 17.4453 55.2838 19.7651 55.9748 20.6583C56.6657 21.5515 59.2833 20.6799 61.8213 18.7114Z" fill="white"/>
<path d="M53.8732 7.8297C53.5597 9.64138 49.5012 10.4068 44.9037 9.5808C40.3063 8.75481 36.8389 6.62651 37.1606 4.81483C37.2349 4.39358 37.3641 2.85999 37.7958 2.55437C39.2229 1.54666 42.539 2.38917 46.0696 3.01693C49.3692 3.60338 52.9795 3.65019 53.8732 5.17276C54.4149 6.10889 53.9639 7.31208 53.8732 7.8297Z" fill="#08AF24"/>
<path opacity="0.2" d="M53.8731 5.17531C54.423 6.42531 53.9858 7.17145 53.8731 7.82123C53.7603 8.47101 53.1307 9.01341 52.1628 9.37134C52.0445 9.41815 51.9208 9.4567 51.7943 9.49524C51.0372 9.70831 50.2589 9.83666 49.4736 9.87795C49.3609 9.87795 49.2509 9.87795 49.1354 9.89722C48.2102 9.93129 47.2839 9.89724 46.3637 9.79535L46.042 9.75405C45.6708 9.70725 45.2886 9.65218 44.9064 9.58335C44.5242 9.51452 44.153 9.43742 43.7873 9.35207C43.6828 9.33004 43.5783 9.30251 43.4738 9.27773C42.6099 9.06412 41.7626 8.78807 40.9386 8.45174C40.8369 8.41319 40.7406 8.36914 40.6444 8.33059C39.9212 8.02234 39.2349 7.63351 38.5986 7.17145C38.5024 7.10262 38.4144 7.03379 38.3237 6.9622C37.4713 6.26562 37.0341 5.51672 37.1578 4.82013C37.2403 4.36859 37.3063 2.89282 37.7902 2.55967C38.2742 2.22652 38.9671 2.12189 39.792 2.11914H40.1219C41.7718 2.17421 43.8973 2.63401 46.0667 3.01947C48.6239 3.47652 51.6183 3.87575 53.2296 4.74029C53.3242 4.79044 53.4159 4.84559 53.5046 4.90548C53.6343 4.98568 53.7575 5.07589 53.8731 5.17531Z" fill="black"/>
<g opacity="0.2">
<path opacity="0.2" d="M40.2127 1.83891L40.1247 2.128L38.5959 7.17756C38.4996 7.10873 38.4117 7.0399 38.3209 6.96831L39.7892 2.12525L39.9047 1.74805L40.2127 1.83891Z" fill="black"/>
</g>
<g opacity="0.2">
<path opacity="0.2" d="M42.5115 3.24773L40.9359 8.44872C40.8342 8.41018 40.7379 8.36612 40.6417 8.32758L42.209 3.15137L42.5115 3.24773Z" fill="black"/>
</g>
<g opacity="0.2">
<path opacity="0.2" d="M47.854 4.87779L46.3609 9.80345L46.0392 9.76215L47.5488 4.78418L47.854 4.87779Z" fill="black"/>
</g>
<g opacity="0.2">
<path opacity="0.2" d="M45.3711 4.12353L43.7845 9.35481C43.68 9.33278 43.5755 9.30525 43.4711 9.28047L45.0659 4.02441L45.3711 4.12353Z" fill="black"/>
</g>
<g opacity="0.2">
<path opacity="0.2" d="M50.9254 5.09281L49.4708 9.88631C49.3581 9.88631 49.2481 9.88631 49.1326 9.90559L50.6202 5.00195L50.9254 5.09281Z" fill="black"/>
</g>
<path d="M54.0872 6.24711C54.4091 4.43563 50.9419 2.30283 46.3429 1.48338C41.744 0.663924 37.7548 1.46812 37.4329 3.2796C37.1109 5.09108 40.5782 7.22387 45.1771 8.04332C49.7761 8.86278 53.7653 8.05858 54.0872 6.24711Z" fill="#08AF24"/>
<path opacity="0.2" d="M52.5221 5.97091C52.7496 4.6909 49.9839 3.1276 46.3448 2.47917C42.7057 1.83075 39.5712 2.34275 39.3437 3.62276C39.1163 4.90277 41.8819 6.46608 45.5211 7.11451C49.1602 7.76293 52.2947 7.25093 52.5221 5.97091Z" fill="white"/>
<path d="M77.8778 54.0826L49.5809 55.7346C48.5813 55.7935 47.6005 56.0323 46.6855 56.4394L15.9497 70.2059C15.4104 70.4433 14.9687 70.8588 14.6985 71.3829C14.4283 71.9071 14.3458 72.5082 14.4648 73.0859L19.5435 97.136C19.6293 97.5233 19.8025 97.8858 20.0497 98.1958C20.297 98.5058 20.6117 98.755 20.9699 98.9245C21.3281 99.094 21.7203 99.1793 22.1164 99.1738C22.5126 99.1682 22.9022 99.0721 23.2555 98.8926L53.5927 83.7274L81.6063 82.7885C81.9511 82.7793 82.2899 82.6967 82.6002 82.5461C82.9105 82.3956 83.1853 82.1805 83.4061 81.9153C83.627 81.6502 83.7889 81.3409 83.8811 81.0082C83.9733 80.6755 83.9937 80.3269 83.9408 79.9857L80.193 56.957C79.9978 55.7676 79.0959 54.0468 77.8778 54.0826Z" fill="#08AF24"/>
<path opacity="0.1" d="M77.8778 54.0826L49.5809 55.7346C48.5813 55.7935 47.6005 56.0323 46.6855 56.4394L15.9497 70.2059C15.4104 70.4433 14.9687 70.8588 14.6985 71.3829C14.4283 71.9071 14.3458 72.5082 14.4648 73.0859L19.5435 97.136C19.6293 97.5233 19.8025 97.8858 20.0497 98.1958C20.297 98.5058 20.6117 98.755 20.9699 98.9245C21.3281 99.094 21.7203 99.1793 22.1164 99.1738C22.5126 99.1682 22.9022 99.0721 23.2555 98.8926L53.5927 83.7274L81.6063 82.7885C81.9511 82.7793 82.2899 82.6967 82.6002 82.5461C82.9105 82.3956 83.1853 82.1805 83.4061 81.9153C83.627 81.6502 83.7889 81.3409 83.8811 81.0082C83.9733 80.6755 83.9937 80.3269 83.9408 79.9857L80.193 56.957C79.9978 55.7676 79.0959 54.0468 77.8778 54.0826Z" fill="black"/>
<path d="M21.0802 38.4232L6.23044 52.1299L32.8789 81.0771L47.7287 67.3704L21.0802 38.4232Z" fill="#08AF24"/>
<path opacity="0.5" d="M47.7248 67.3721L32.8739 81.078L6.22952 52.1325L15.9744 43.1375L21.0805 38.4238L21.9302 39.3489L47.7248 67.3721Z" fill="#FAFAFA"/>
<path d="M21.1757 40.1928L8.07268 52.2871L32.9991 79.3637L46.1021 67.2694L21.1757 40.1928Z" stroke="#08AF24" stroke-miterlimit="10"/>
<path d="M30.0357 62.9838C31.5387 61.5965 31.3486 58.942 29.6112 57.0548C27.8737 55.1675 25.2469 54.7621 23.744 56.1493C22.2411 57.5366 22.4312 60.1911 24.1686 62.0783C25.906 63.9656 28.5328 64.371 30.0357 62.9838Z" fill="#08AF24"/>
<path opacity="0.1" d="M32.7172 69.3297L27.4405 71.1551L15.9744 43.1375L21.0805 38.4238L21.9302 39.3489L32.7172 69.3297Z" fill="black"/>
<path d="M33.7452 27.0821L14.7584 33.9756L28.1607 70.9872L47.1475 64.0938L33.7452 27.0821Z" fill="#08AF24"/>
<path opacity="0.5" d="M33.7452 27.0821L14.7584 33.9756L28.1607 70.9872L47.1475 64.0938L33.7452 27.0821Z" fill="#FAFAFA"/>
<path d="M33.1484 28.7514L16.3951 34.834L28.9313 69.4539L45.6847 63.3714L33.1484 28.7514Z" stroke="#08AF24" stroke-miterlimit="10"/>
<path d="M32.5249 53.1979C34.4465 52.5002 35.2959 49.9784 34.4221 47.5654C33.5483 45.1523 31.2822 43.7617 29.3606 44.4594C27.439 45.1571 26.5895 47.6788 27.4633 50.0919C28.3371 52.5049 30.6032 53.8955 32.5249 53.1979Z" fill="#08AF24"/>
<path d="M78.0621 55.06L50.1529 56.6349C49.1635 56.6892 48.1929 56.9273 47.2905 57.337L17.0056 71.0265C16.4721 71.2679 16.0369 71.6843 15.7719 72.207C15.507 72.7297 15.428 73.3272 15.5482 73.9009L20.6269 97.962C20.7087 98.3469 20.8775 98.7079 21.1204 99.0173C21.3633 99.3266 21.6738 99.5761 22.028 99.7465C22.3823 99.917 22.7708 100.004 23.1638 100C23.5567 99.997 23.9437 99.9034 24.2949 99.7269L54.1839 84.6471L81.8126 83.7715C82.1547 83.7607 82.4905 83.6769 82.7976 83.5258C83.1047 83.3747 83.3762 83.1597 83.5937 82.8952C83.8113 82.6307 83.97 82.3228 84.0592 81.992C84.1485 81.6612 84.1663 81.3151 84.1114 80.9769L80.3526 57.951C80.1573 56.7506 79.2664 55.027 78.0621 55.06Z" fill="#08AF24"/>
<path opacity="0.2" d="M51.2884 60.8469L75.2353 59.3711" stroke="black" stroke-width="2" stroke-linecap="round" stroke-linejoin="round"/>
<path opacity="0.2" d="M48.4206 61.4668L52.7953 81.5879" stroke="black" stroke-width="2" stroke-linecap="round" stroke-linejoin="round"/>
<path opacity="0.2" d="M19.2519 79.6328L22.337 95.1091C22.337 95.1091 24.7018 88.9693 19.2519 79.6328Z" fill="#FAFAFA"/>
<path opacity="0.2" d="M19.6561 79.8151C19.7634 80.0904 47.0594 68.3613 47.0594 68.3613C47.1333 71.0205 46.4693 73.6482 45.1412 75.9521C43.8131 78.2561 41.8729 80.1461 39.5363 81.412C31.3202 86.0238 19.6561 79.8151 19.6561 79.8151Z" fill="#FAFAFA"/>
<path d="M37.7876 80.2721C38.4405 80.2721 38.9699 79.7421 38.9699 79.0882C38.9699 78.4344 38.4405 77.9043 37.7876 77.9043C37.1346 77.9043 36.6052 78.4344 36.6052 79.0882C36.6052 79.7421 37.1346 80.2721 37.7876 80.2721Z" fill="#08AF24"/>
<path opacity="0.2" d="M47.0732 68.3613C47.0732 68.3613 50.458 73.4632 49.6386 82.1526L47.0732 68.3613Z" fill="black"/>
<g opacity="0.2">
<path opacity="0.2" d="M17.9458 73.5545L18.5755 73.2764" stroke="#FAFAFA" stroke-linecap="round" stroke-linejoin="round"/>
<path opacity="0.2" d="M19.8815 72.6981L45.371 61.415" stroke="#FAFAFA" stroke-linecap="round" stroke-linejoin="round" stroke-dasharray="5.2 5.2"/>
<path opacity="0.2" d="M46.0254 61.1257L46.6523 60.8477" stroke="#FAFAFA" stroke-linecap="round" stroke-linejoin="round"/>
</g>
<path opacity="0.2" d="M52.0913 65.3701L76.0382 63.8916" stroke="black" stroke-width="2" stroke-linecap="round" stroke-linejoin="round"/>
<path opacity="0.2" d="M53.1692 71.0127L77.1161 69.5342" stroke="black" stroke-width="2" stroke-linecap="round" stroke-linejoin="round"/>
<path d="M71.8669 30.9355C71.8669 30.9355 71.2648 37.359 68.8808 37.9124C67.4045 38.2317 65.8653 38.0776 64.4813 37.4719L62.5428 35.9796L61.5969 39.2836C61.5969 39.2836 62.6308 40.6905 64.7893 39.7158C64.7893 39.7158 68.6388 41.4119 70.7671 39.7158C72.8953 38.0198 73.5772 33.3667 73.5772 33.3667L71.8669 30.9355Z" fill="#B97964"/>
<path d="M73.7835 27.8241C73.7835 27.8241 72.1199 24.9854 72.8761 19.8395C73.6323 14.6936 77.941 14.0576 79.6045 14.4293C81.2681 14.801 82.6292 16.4006 83.7621 19.4458C84.8949 22.4909 85.3129 23.2839 87.2019 22.7497C89.0909 22.2156 94.1173 20.5471 95.5169 22.0311C95.9195 22.4365 96.2161 22.9349 96.3806 23.4824C96.5451 24.0298 96.5724 24.6094 96.4601 25.1699C96.4601 25.1699 103.452 23.4684 102.848 29.7129C102.243 35.9573 92.1513 41.7861 82.5522 35.6159C72.9531 29.4458 73.7835 27.8241 73.7835 27.8241Z" fill="#263238"/>
<path d="M73.7065 42.9373C73.7065 42.9373 71.8065 59.3002 71.8697 66.9737C71.9329 74.6471 74.6551 92.7308 74.6551 92.7308H78.0125C78.0125 92.7308 77.5698 78.2705 77.633 73.3228C77.6963 68.3751 78.5816 60.1895 78.5816 60.1895C78.5816 60.1895 79.6568 67.5463 80.9244 70.1455C82.192 72.7446 89.2229 81.9434 94.1008 84.7985L96.3803 82.7033C96.3803 82.7033 91.3126 76.4257 89.4126 73.3173C87.5126 70.2088 85.805 69.3277 85.1066 63.5458C84.4082 57.7639 85.6153 48.5155 83.5888 42.9346L73.7065 42.9373Z" fill="#263238"/>
<path opacity="0.2" d="M78.5817 60.1891L77.1216 49.8174C77.1216 49.8174 75.9695 56.0509 78.238 63.6637L78.5817 60.1891Z" fill="black"/>
<path d="M75.3453 93.6476L75.458 96.8608L77.71 97.048L77.8227 96.7479V93.4219L75.3453 93.6476Z" fill="#B97964"/>
<path d="M74.2757 92.425L74.4819 93.6282L78.3479 93.7218L78.5927 92.2764L74.2757 92.425Z" fill="#08AF24"/>
<path d="M93.0422 85.0212L96.625 81.6787L97.4142 82.937L94.3373 85.7564L93.0422 85.0212Z" fill="#08AF24"/>
<path d="M94.769 85.0212L97.1337 87.0146L98.6515 85.2277L96.7102 83.2178L94.769 85.0212Z" fill="#B97964"/>
<path d="M99.1107 85.0898L100.541 85.9709C100.606 86.0111 100.661 86.0651 100.703 86.129C100.746 86.193 100.773 86.2654 100.785 86.3412C100.796 86.417 100.79 86.4944 100.769 86.5678C100.747 86.6413 100.709 86.7092 100.659 86.7666C99.6222 87.9395 96.9742 90.9186 96.7103 91.1278C96.3831 91.4032 95.9871 90.9406 95.8854 90.5276C95.8854 90.5276 96.636 89.5309 96.7103 88.8922C96.7415 88.3989 96.7415 87.9041 96.7103 87.4109C96.7045 87.2874 96.7458 87.1664 96.8258 87.0722L98.4233 85.1945C98.5058 85.0966 98.621 85.0321 98.7474 85.0128C98.8738 84.9936 99.0029 85.021 99.1107 85.0898Z" fill="#263238"/>
<path d="M78.2599 97.1354L78.5569 98.7874C78.5705 98.8629 78.5675 98.9405 78.548 99.0148C78.5285 99.089 78.493 99.1581 78.444 99.2171C78.395 99.2762 78.3337 99.3237 78.2643 99.3565C78.195 99.3893 78.1194 99.4065 78.0427 99.4069C76.4781 99.4069 72.4966 99.4234 72.1639 99.3683C71.7487 99.2995 71.823 98.7048 72.0677 98.3579C72.0677 98.3579 73.3078 98.2532 73.8275 97.876C74.214 97.5724 74.5813 97.245 74.9273 96.8959C75.0158 96.8092 75.1336 96.759 75.2573 96.7554L77.7182 96.6976C77.8461 96.693 77.9713 96.7347 78.0708 96.8151C78.1703 96.8956 78.2375 97.0093 78.2599 97.1354Z" fill="#263238"/>
<path d="M83.949 33.862L87.3806 31.4501C87.3806 31.4501 86.4677 27.7937 85.1149 27.612C83.762 27.4303 77.0473 26.15 72.7771 27.612C72.7771 27.612 71.2428 28.0498 70.7698 32.3642L72.5956 32.9479C72.5956 32.9479 73.25 41.0261 73.6542 42.2706H83.3991C83.3991 42.2706 83.5091 35.324 83.949 33.862Z" fill="#08AF24"/>
<path d="M84.6886 33.3421C84.6886 33.3421 85.9892 37.059 86.2202 39.0579C86.2202 39.0579 83.1296 37.8245 82.3322 37.26L81.7272 35.0849L79.6815 34.0855L79.0738 35.7375L80.7813 37.8575C80.7813 37.8575 85.4365 42.2187 87.7958 41.222C90.155 40.2253 86.8636 31.8223 86.8636 31.8223L84.6886 33.3421Z" fill="#B97964"/>
<path d="M75.9585 17.0676C75.9585 17.0676 74.7678 19.4464 74.8586 21.382C74.9493 23.3175 75.9255 24.1077 77.7815 24.3803C77.7815 24.3803 78.5734 26.8583 76.4946 27.1088C76.3352 27.1281 76.2802 27.7586 76.2912 27.8605C76.3462 28.2625 76.7449 28.4827 77.1161 28.5764C77.5071 28.663 77.9062 28.7074 78.3067 28.7085C78.7272 28.723 79.1455 28.6416 79.5299 28.4703C79.9144 28.2991 80.2549 28.0425 80.5257 27.7201C80.5697 27.6678 80.9876 27.1336 80.9876 27.1336C80.9876 27.1336 79.995 26.6408 80.3442 23.4139C80.8179 23.1051 81.1818 22.654 81.3836 22.1254C81.5732 22.0246 81.7409 21.887 81.8769 21.7206C82.0129 21.5542 82.1144 21.3623 82.1755 21.1562C82.324 20.5119 81.7548 19.6199 80.7154 20.5119C80.7154 20.5119 78.7576 19.5207 78.0152 16.0488C77.4647 16.6119 76.7395 16.9711 75.9585 17.0676Z" fill="#B97964"/>
<path d="M76.5166 20.8531L76.6844 19.5811L75.7852 20.5777C75.878 20.6766 75.9922 20.7528 76.119 20.8006C76.2458 20.8483 76.3818 20.8663 76.5166 20.8531Z" fill="#A24E3F"/>
<path d="M77.0391 21.7839C77.0391 21.7839 77.9877 21.9298 78.4441 21.3213" stroke="#222221" stroke-width="0.75" stroke-linecap="round" stroke-linejoin="round"/>
<path d="M77.9877 17.7994C78.2031 17.7381 78.431 17.7362 78.6473 17.7938C78.8636 17.8515 79.0604 17.9666 79.2168 18.127" stroke="#222221" stroke-linecap="round" stroke-linejoin="round"/>
<path d="M76.3462 17.5244C76.3462 17.5244 75.7962 17.439 75.5515 17.7502" stroke="#222221" stroke-linecap="round" stroke-linejoin="round"/>
<path d="M78.3699 19.4732C78.3452 19.666 78.2214 19.8064 78.0949 19.7899C77.9685 19.7734 77.8832 19.6054 77.908 19.4127C77.9327 19.2199 78.0564 19.0795 78.1829 19.096C78.3094 19.1126 78.3947 19.2805 78.3699 19.4732Z" fill="#222221"/>
<path d="M76.1749 19.0465C76.1997 18.855 76.1161 18.6863 75.9881 18.6696C75.8601 18.653 75.7362 18.7947 75.7113 18.9863C75.6865 19.1778 75.7701 19.3465 75.8981 19.3632C76.0261 19.3798 76.15 19.238 76.1749 19.0465Z" fill="#222221"/>
<path d="M78.1857 19.0962L77.7513 18.9062C77.757 18.9539 77.775 18.9992 77.8036 19.0376C77.8322 19.0761 77.8703 19.1065 77.9142 19.1257C77.9581 19.1449 78.0062 19.1522 78.0539 19.1471C78.1015 19.1419 78.1469 19.1244 78.1857 19.0962Z" fill="#222221"/>
<path d="M76.0299 18.689L75.5955 18.499C75.6012 18.5466 75.6192 18.5919 75.6478 18.6304C75.6764 18.6689 75.7145 18.6993 75.7584 18.7184C75.8023 18.7376 75.8505 18.745 75.8981 18.7399C75.9457 18.7347 75.9912 18.7172 76.0299 18.689Z" fill="#222221"/>
<path d="M73.3133 41.8413V42.9894L83.872 43.0776L83.5888 41.7119L73.3133 41.8413Z" fill="#08AF24"/>
<path opacity="0.4" d="M73.3133 41.8413V42.9894L83.872 43.0776L83.5888 41.7119L73.3133 41.8413Z" fill="white"/>
</svg>
