<svg width="24" height="24" viewBox="0 0 24 24" fill="none" xmlns="http://www.w3.org/2000/svg">
<path d="M12 12.999C12.5523 12.999 13 12.5513 13 11.999C13 11.4467 12.5523 10.999 12 10.999C11.4477 10.999 11 11.4467 11 11.999C11 12.5513 11.4477 12.999 12 12.999Z" stroke="black" stroke-width="2" stroke-linecap="round" stroke-linejoin="round"/>
<path d="M19 12.999C19.5523 12.999 20 12.5513 20 11.999C20 11.4467 19.5523 10.999 19 10.999C18.4477 10.999 18 11.4467 18 11.999C18 12.5513 18.4477 12.999 19 12.999Z" stroke="black" stroke-width="2" stroke-linecap="round" stroke-linejoin="round"/>
<path d="M5 12.999C5.55228 12.999 6 12.5513 6 11.999C6 11.4467 5.55228 10.999 5 10.999C4.44772 10.999 4 11.4467 4 11.999C4 12.5513 4.44772 12.999 5 12.999Z" stroke="black" stroke-width="2" stroke-linecap="round" stroke-linejoin="round"/>
</svg>
