<svg width="229" height="209" viewBox="0 0 229 209" fill="none" xmlns="http://www.w3.org/2000/svg">
<path d="M131.236 103.113C94.7818 102.589 46.1626 157.48 15.543 119.935C-20.911 75.2169 61.0147 53.4463 79.7053 21.4083C106.055 -23.7862 170.944 8.77548 198.853 61.5367C209.258 81.2008 199.91 114.492 176.011 117.187C149.932 120.147 152.123 103.413 131.236 103.113Z" fill="#08AF24"/>
<path opacity="0.9" d="M131.236 103.113C94.7818 102.589 46.1626 157.48 15.543 119.935C-20.911 75.2169 61.0147 53.4463 79.7053 21.4083C106.055 -23.7862 170.944 8.77548 198.853 61.5367C209.258 81.2008 199.91 114.492 176.011 117.187C149.932 120.147 152.123 103.413 131.236 103.113Z" fill="white"/>
<path d="M114.5 209C177.737 209 229 206.018 229 202.339C229 198.661 177.737 195.679 114.5 195.679C51.2634 195.679 0 198.661 0 202.339C0 206.018 51.2634 209 114.5 209Z" fill="#F5F5F5"/>
<path d="M195.271 130.471L194.508 144.324L195.098 144.356L195.86 130.503L195.271 130.471Z" fill="#08AF24"/>
<path d="M195.922 118.719L195.529 125.857L196.119 125.89L196.512 118.751L195.922 118.719Z" fill="#08AF24"/>
<path d="M183.475 170.732H114.252C113.205 170.744 112.166 170.541 111.202 170.135C110.237 169.729 109.367 169.129 108.646 168.372C107.925 167.615 107.369 166.718 107.013 165.737C106.656 164.756 106.507 163.712 106.575 162.671L114.547 17.8551C114.696 15.6848 115.659 13.6499 117.246 12.156C118.833 10.662 120.927 9.81872 123.11 9.79416H192.339C193.384 9.78639 194.418 9.99302 195.379 10.4012C196.34 10.8093 197.206 11.4103 197.924 12.1665C198.641 12.9228 199.194 13.8181 199.549 14.7969C199.904 15.7756 200.053 16.8166 199.987 17.8551L192.008 162.671C191.862 164.836 190.903 166.868 189.322 168.361C187.741 169.855 185.654 170.701 183.475 170.732Z" fill="#08AF24"/>
<path opacity="0.8" d="M179.288 170.732H114.252C113.205 170.744 112.166 170.541 111.202 170.135C110.237 169.729 109.367 169.129 108.646 168.372C107.925 167.615 107.369 166.718 107.013 165.737C106.656 164.756 106.507 163.712 106.575 162.671L114.547 17.8552C114.696 15.6849 115.659 13.65 117.246 12.156C118.833 10.6621 120.927 9.81877 123.11 9.79421H188.152C189.197 9.78557 190.232 9.99161 191.193 10.3995C192.154 10.8073 193.021 11.4082 193.739 12.1647C194.456 12.9211 195.01 13.8168 195.364 14.7959C195.719 15.775 195.867 16.8165 195.8 17.8552L187.827 162.671C187.678 164.836 186.717 166.867 185.136 168.36C183.554 169.853 181.467 170.7 179.288 170.732Z" fill="white"/>
<path d="M147.057 36.0481H128.378C127.937 36.0515 127.5 35.9642 127.094 35.7916C126.688 35.619 126.323 35.3649 126.02 35.0452C125.717 34.7254 125.484 34.3469 125.335 33.9333C125.186 33.5197 125.124 33.0798 125.153 32.6413C125.216 31.7273 125.621 30.8701 126.288 30.24C126.955 29.6099 127.836 29.2531 128.756 29.2404H147.434C147.875 29.2362 148.312 29.3227 148.718 29.4946C149.124 29.6665 149.489 29.9201 149.792 30.2394C150.095 30.5587 150.328 30.9368 150.477 31.3502C150.626 31.7635 150.688 32.203 150.659 32.6413C150.597 33.5558 150.192 34.4137 149.525 35.0448C148.857 35.6758 147.976 36.0339 147.057 36.0481Z" fill="white"/>
<path d="M150.659 32.6412C150.553 34.2909 149.824 35.8396 148.619 36.9759C147.414 38.1122 145.822 38.7519 144.163 38.7664C143.368 38.7755 142.581 38.6207 141.849 38.3116C141.117 38.0026 140.458 37.5461 139.912 36.9707C139.366 36.3954 138.946 35.7137 138.677 34.9686C138.409 34.2235 138.298 33.4311 138.352 32.6412C138.458 30.9914 139.187 29.4427 140.392 28.3064C141.597 27.1702 143.189 26.5305 144.848 26.516C145.642 26.5069 146.43 26.6617 147.162 26.9707C147.893 27.2798 148.553 27.7363 149.099 28.3117C149.644 28.887 150.065 29.5687 150.333 30.3138C150.602 31.0589 150.713 31.8513 150.659 32.6412Z" fill="#08AF24"/>
<path d="M145.858 57.8245H127.179C126.738 57.8279 126.301 57.7405 125.895 57.568C125.489 57.3954 125.124 57.1413 124.821 56.8216C124.519 56.5018 124.285 56.1233 124.136 55.7097C123.987 55.296 123.925 54.8562 123.955 54.4177C124.017 53.5037 124.422 52.6465 125.089 52.0164C125.757 51.3863 126.638 51.0294 127.557 51.0167H146.236C146.676 51.0125 147.113 51.0991 147.519 51.271C147.925 51.4429 148.29 51.6965 148.593 52.0158C148.896 52.3351 149.129 52.7132 149.278 53.1265C149.427 53.5398 149.489 53.9794 149.46 54.4177C149.398 55.3322 148.993 56.1901 148.326 56.8212C147.659 57.4522 146.778 57.8103 145.858 57.8245Z" fill="white"/>
<path d="M139.238 58.7036C141.74 56.279 141.9 52.4007 139.596 50.0412C137.292 47.6816 133.397 47.7343 130.896 50.1588C128.394 52.5833 128.234 56.4616 130.538 58.8212C132.841 61.1808 136.737 61.1281 139.238 58.7036Z" fill="#08AF24"/>
<path opacity="0.3" d="M139.238 58.7036C141.74 56.279 141.9 52.4007 139.596 50.0412C137.292 47.6816 133.397 47.7343 130.896 50.1588C128.394 52.5833 128.234 56.4616 130.538 58.8212C132.841 61.1808 136.737 61.1281 139.238 58.7036Z" fill="#FAFAFA"/>
<path d="M124.781 101.377H143.437C144.356 101.363 145.237 101.005 145.905 100.374C146.572 99.7429 146.977 98.885 147.039 97.9705C147.068 97.5317 147.006 97.0916 146.857 96.6779C146.707 96.2642 146.473 95.8858 146.17 95.5664C145.867 95.247 145.5 94.9936 145.094 94.822C144.687 94.6505 144.25 94.5645 143.809 94.5695H125.159C124.239 94.5821 123.358 94.9388 122.689 95.5687C122.021 96.1987 121.615 97.056 121.551 97.9705C121.523 98.4093 121.585 98.8492 121.735 99.2629C121.885 99.6765 122.119 100.055 122.422 100.375C122.725 100.694 123.091 100.948 123.497 101.121C123.903 101.293 124.34 101.381 124.781 101.377Z" fill="white"/>
<path d="M131.875 102.248C134.377 99.824 134.537 95.9457 132.233 93.5861C129.93 91.2265 126.034 91.2792 123.533 93.7037C121.031 96.1283 120.871 100.007 123.175 102.366C125.479 104.726 129.374 104.673 131.875 102.248Z" fill="#08AF24"/>
<path opacity="0.7" d="M131.875 102.248C134.377 99.824 134.537 95.9457 132.233 93.5861C129.93 91.2265 126.034 91.2792 123.533 93.7037C121.031 96.1283 120.871 100.007 123.175 102.366C125.479 104.726 129.374 104.673 131.875 102.248Z" fill="#FAFAFA"/>
<path d="M142.255 123.154H123.583C123.141 123.157 122.704 123.07 122.298 122.898C121.892 122.725 121.526 122.471 121.223 122.151C120.92 121.832 120.686 121.453 120.536 121.04C120.387 120.626 120.324 120.186 120.352 119.747C120.416 118.833 120.822 117.976 121.491 117.346C122.159 116.716 123.041 116.359 123.96 116.346H142.633C143.075 116.341 143.512 116.427 143.919 116.599C144.325 116.77 144.691 117.024 144.995 117.343C145.298 117.663 145.532 118.041 145.681 118.455C145.831 118.869 145.893 119.309 145.864 119.747C145.801 120.663 145.396 121.522 144.727 122.153C144.059 122.784 143.176 123.141 142.255 123.154Z" fill="white"/>
<path d="M145.864 119.748C145.758 121.397 145.029 122.946 143.824 124.082C142.619 125.219 141.027 125.858 139.368 125.873C138.573 125.882 137.785 125.727 137.053 125.418C136.321 125.109 135.661 124.653 135.115 124.077C134.569 123.502 134.148 122.821 133.879 122.076C133.61 121.33 133.498 120.538 133.551 119.748C133.659 118.099 134.389 116.552 135.594 115.416C136.798 114.28 138.389 113.64 140.047 113.623C140.842 113.613 141.63 113.767 142.363 114.075C143.095 114.384 143.755 114.841 144.301 115.416C144.848 115.991 145.269 116.673 145.538 117.419C145.807 118.164 145.918 118.957 145.864 119.748Z" fill="#08AF24"/>
<path d="M125.98 79.6009H144.659C145.579 79.5867 146.46 79.2286 147.127 78.5976C147.794 77.9665 148.199 77.1086 148.261 76.1941C148.291 75.7553 148.229 75.3153 148.079 74.9015C147.93 74.4878 147.696 74.1094 147.392 73.79C147.089 73.4706 146.723 73.2172 146.316 73.0456C145.91 72.8741 145.472 72.7881 145.031 72.7932H126.358C125.439 72.8059 124.558 73.1627 123.89 73.7928C123.223 74.4229 122.818 75.2801 122.756 76.1941C122.727 76.6326 122.788 77.0725 122.938 77.4861C123.087 77.8997 123.32 78.2782 123.622 78.598C123.925 78.9177 124.291 79.1718 124.696 79.3444C125.102 79.517 125.539 79.6043 125.98 79.6009Z" fill="white"/>
<path d="M122.768 76.1949C122.714 76.9848 122.825 77.7772 123.093 78.5223C123.362 79.2674 123.782 79.9491 124.328 80.5244C124.874 81.0998 125.533 81.5563 126.265 81.8653C126.996 82.1744 127.784 82.3292 128.578 82.3201C130.238 82.3056 131.83 81.6659 133.035 80.5296C134.24 79.3933 134.969 77.8447 135.074 76.1949C135.128 75.405 135.017 74.6126 134.749 73.8675C134.48 73.1224 134.06 72.4407 133.514 71.8654C132.968 71.29 132.309 70.8335 131.577 70.5244C130.846 70.2154 130.058 70.0606 129.264 70.0697C127.604 70.0842 126.012 70.7239 124.807 71.8602C123.602 72.9964 122.873 74.5451 122.768 76.1949Z" fill="#08AF24"/>
<path opacity="0.7" d="M122.768 76.1949C122.714 76.9848 122.825 77.7772 123.093 78.5223C123.362 79.2674 123.782 79.9491 124.328 80.5244C124.874 81.0998 125.533 81.5563 126.265 81.8653C126.996 82.1744 127.784 82.3292 128.578 82.3201C130.238 82.3056 131.83 81.6659 133.035 80.5296C134.24 79.3933 134.969 77.8447 135.074 76.1949C135.128 75.405 135.017 74.6126 134.749 73.8675C134.48 73.1224 134.06 72.4407 133.514 71.8654C132.968 71.29 132.309 70.8335 131.577 70.5244C130.846 70.2154 130.058 70.0606 129.264 70.0697C127.604 70.0842 126.012 70.7239 124.807 71.8602C123.602 72.9964 122.873 74.5451 122.768 76.1949Z" fill="#FAFAFA"/>
<path d="M187.969 31.6237H160.285C160.108 31.6241 159.934 31.5884 159.772 31.5188C159.61 31.4493 159.465 31.3473 159.344 31.2194C159.223 31.0914 159.13 30.9401 159.07 30.7748C159.011 30.6096 158.986 30.4339 158.997 30.2586C159.022 29.8932 159.185 29.5506 159.452 29.2989C159.718 29.0471 160.071 28.9045 160.438 28.8994H188.123C188.299 28.8983 188.473 28.9332 188.635 29.0021C188.797 29.071 188.943 29.1724 189.063 29.2999C189.184 29.4274 189.277 29.5783 189.337 29.7433C189.397 29.9082 189.421 30.0837 189.41 30.2586C189.386 30.6251 189.225 30.9691 188.958 31.2221C188.691 31.4752 188.338 31.6185 187.969 31.6237Z" fill="white"/>
<path d="M178.745 36.3893H160.025C159.848 36.3905 159.673 36.3554 159.51 36.2862C159.348 36.217 159.201 36.1152 159.08 35.9871C158.959 35.8591 158.865 35.7075 158.805 35.5418C158.745 35.3762 158.72 35.2 158.732 35.0243C158.757 34.6589 158.919 34.3163 159.186 34.0645C159.453 33.8127 159.805 33.6701 160.172 33.6651H178.899C179.075 33.6639 179.249 33.6989 179.411 33.7677C179.574 33.8365 179.72 33.9378 179.841 34.0652C179.962 34.1926 180.056 34.3435 180.116 34.5085C180.177 34.6734 180.202 34.849 180.192 35.0243C180.167 35.3912 180.004 35.7353 179.736 35.9882C179.468 36.2411 179.114 36.3843 178.745 36.3893Z" fill="white"/>
<path d="M179.678 118.73H155.466C155.29 118.73 155.115 118.694 154.953 118.625C154.791 118.555 154.646 118.453 154.525 118.325C154.404 118.197 154.311 118.046 154.252 117.881C154.192 117.716 154.167 117.54 154.178 117.365C154.202 116.999 154.364 116.655 154.631 116.403C154.898 116.151 155.251 116.009 155.619 116.005H179.802C179.978 116.004 180.153 116.039 180.315 116.108C180.477 116.177 180.623 116.278 180.744 116.406C180.866 116.533 180.959 116.684 181.02 116.849C181.08 117.014 181.106 117.189 181.095 117.365C181.071 117.727 180.912 118.067 180.65 118.319C180.388 118.571 180.042 118.717 179.678 118.73Z" fill="white"/>
<path d="M167.182 123.489H155.247C155.071 123.491 154.897 123.456 154.734 123.387C154.572 123.318 154.426 123.217 154.305 123.089C154.184 122.962 154.09 122.811 154.03 122.646C153.969 122.481 153.944 122.305 153.954 122.13C153.979 121.765 154.141 121.422 154.408 121.17C154.675 120.919 155.027 120.776 155.395 120.771H167.348C167.524 120.77 167.698 120.805 167.86 120.874C168.023 120.943 168.169 121.044 168.29 121.171C168.411 121.299 168.505 121.449 168.565 121.614C168.626 121.779 168.651 121.955 168.641 122.13C168.615 122.499 168.451 122.844 168.18 123.096C167.909 123.348 167.553 123.489 167.182 123.489Z" fill="white"/>
<path d="M186.658 55.4414H158.974C158.606 55.4465 158.254 55.5891 157.987 55.8408C157.72 56.0926 157.558 56.4352 157.533 56.8006C157.522 56.9759 157.548 57.1514 157.608 57.3164C157.669 57.4814 157.762 57.6322 157.884 57.7596C158.005 57.8871 158.151 57.9883 158.313 58.0572C158.475 58.126 158.65 58.1609 158.826 58.1598H186.511C186.878 58.1548 187.23 58.0122 187.497 57.7604C187.764 57.5086 187.926 57.166 187.952 56.8006C187.962 56.6254 187.936 56.4498 187.876 56.2848C187.816 56.1199 187.722 55.969 187.601 55.8416C187.479 55.7142 187.333 55.6129 187.171 55.5441C187.009 55.4753 186.834 55.4403 186.658 55.4414Z" fill="white"/>
<path d="M177.96 50.6759H159.239C158.872 50.6809 158.52 50.8235 158.253 51.0753C157.986 51.3271 157.824 51.6697 157.799 52.0351C157.787 52.2103 157.812 52.386 157.872 52.5513C157.931 52.7165 158.024 52.8678 158.145 52.9958C158.266 53.1238 158.412 53.2257 158.573 53.2952C158.735 53.3648 158.91 53.4005 159.086 53.4001H177.812C178.18 53.3936 178.532 53.2498 178.799 52.997C179.066 52.7443 179.228 52.401 179.253 52.0351C179.264 51.8596 179.239 51.6837 179.179 51.5183C179.119 51.353 179.025 51.2017 178.904 51.0741C178.783 50.9465 178.636 50.8453 178.474 50.7768C178.311 50.7082 178.136 50.6739 177.96 50.6759Z" fill="white"/>
<path d="M172.09 75.1767H157.917C157.74 75.177 157.566 75.1413 157.404 75.0718C157.242 75.0022 157.096 74.9003 156.976 74.7723C156.855 74.6444 156.762 74.4931 156.702 74.3278C156.643 74.1625 156.618 73.9868 156.629 73.8116C156.653 73.4457 156.815 73.1023 157.082 72.8503C157.349 72.5982 157.702 72.4561 158.07 72.4524H172.243C172.421 72.4488 172.597 72.482 172.762 72.5497C172.926 72.6175 173.074 72.7183 173.197 72.846C173.32 72.9737 173.416 73.1254 173.477 73.2916C173.539 73.4578 173.565 73.6348 173.554 73.8116C173.529 74.1816 173.363 74.5282 173.092 74.7815C172.82 75.0348 172.462 75.176 172.09 75.1767Z" fill="white"/>
<path d="M185.572 75.1764H177.21C177.033 75.1776 176.858 75.1425 176.695 75.0733C176.533 75.0041 176.386 74.9023 176.265 74.7743C176.143 74.6462 176.05 74.4946 175.99 74.329C175.93 74.1633 175.905 73.9871 175.916 73.8114C175.941 73.446 176.104 73.1034 176.37 72.8516C176.637 72.5998 176.99 72.4572 177.357 72.4522H185.725C185.901 72.451 186.075 72.4859 186.237 72.5548C186.399 72.6237 186.545 72.7251 186.666 72.8526C186.786 72.9801 186.88 73.1311 186.939 73.296C186.999 73.461 187.024 73.6364 187.013 73.8114C186.987 74.1773 186.825 74.5206 186.559 74.7733C186.292 75.0261 185.94 75.1699 185.572 75.1764Z" fill="white"/>
<path d="M176.347 79.9372H157.609C157.433 79.9383 157.259 79.9033 157.097 79.8345C156.934 79.7657 156.788 79.6644 156.667 79.537C156.546 79.4096 156.452 79.2587 156.392 79.0937C156.331 78.9288 156.306 78.7532 156.316 78.578C156.341 78.2126 156.504 77.87 156.77 77.6182C157.037 77.3664 157.39 77.2238 157.757 77.2188H176.507C176.683 77.2177 176.858 77.2526 177.02 77.3214C177.182 77.3903 177.328 77.4915 177.449 77.6189C177.57 77.7464 177.664 77.8972 177.725 78.0622C177.785 78.2271 177.811 78.4027 177.8 78.578C177.775 78.9454 177.611 79.2896 177.342 79.5417C177.072 79.7938 176.717 79.9351 176.347 79.9372Z" fill="white"/>
<path d="M152.885 142.595H120.996C120.748 142.601 120.501 142.555 120.272 142.459C120.043 142.364 119.837 142.222 119.667 142.042C119.496 141.863 119.366 141.649 119.284 141.416C119.201 141.183 119.169 140.935 119.189 140.689C119.224 140.176 119.452 139.696 119.826 139.343C120.2 138.99 120.693 138.79 121.209 138.782H153.098C153.346 138.776 153.592 138.823 153.821 138.918C154.05 139.013 154.257 139.155 154.427 139.335C154.597 139.515 154.728 139.728 154.81 139.961C154.892 140.194 154.925 140.442 154.905 140.689C154.871 141.201 154.644 141.682 154.269 142.036C153.895 142.389 153.401 142.589 152.885 142.595Z" fill="white"/>
<path d="M181.314 142.595H161.743C161.495 142.601 161.249 142.555 161.02 142.459C160.791 142.364 160.585 142.222 160.414 142.042C160.244 141.863 160.113 141.649 160.031 141.416C159.949 141.183 159.916 140.935 159.936 140.689C159.972 140.176 160.199 139.696 160.573 139.343C160.947 138.99 161.441 138.79 161.956 138.782H181.526C181.774 138.776 182.021 138.823 182.25 138.918C182.479 139.013 182.685 139.155 182.856 139.335C183.026 139.515 183.157 139.728 183.239 139.961C183.321 140.194 183.353 140.442 183.333 140.689C183.298 141.201 183.071 141.681 182.697 142.034C182.323 142.387 181.829 142.587 181.314 142.595Z" fill="white"/>
<path d="M144.913 149.243H120.642C120.394 149.249 120.147 149.203 119.918 149.108C119.689 149.013 119.483 148.87 119.312 148.691C119.142 148.511 119.012 148.298 118.929 148.064C118.847 147.831 118.815 147.583 118.835 147.337C118.869 146.824 119.096 146.343 119.47 145.99C119.844 145.637 120.339 145.437 120.854 145.431H145.12C145.368 145.425 145.614 145.471 145.843 145.566C146.072 145.662 146.278 145.804 146.449 145.983C146.619 146.163 146.75 146.376 146.832 146.61C146.914 146.843 146.947 147.091 146.927 147.337C146.893 147.849 146.667 148.329 146.293 148.682C145.92 149.035 145.427 149.236 144.913 149.243Z" fill="white"/>
<path d="M171.269 155.928H120.275C120.027 155.933 119.781 155.887 119.552 155.792C119.323 155.697 119.117 155.555 118.946 155.375C118.776 155.195 118.645 154.982 118.563 154.749C118.481 154.515 118.449 154.268 118.468 154.021C118.502 153.509 118.729 153.029 119.102 152.676C119.475 152.323 119.968 152.122 120.482 152.115H171.475C171.723 152.109 171.97 152.155 172.199 152.25C172.428 152.346 172.634 152.488 172.805 152.667C172.975 152.847 173.105 153.06 173.188 153.294C173.27 153.527 173.302 153.775 173.282 154.021C173.248 154.533 173.022 155.013 172.649 155.366C172.276 155.719 171.783 155.92 171.269 155.928Z" fill="white"/>
<path d="M164.773 98.9951H156.576C156.208 99.0002 155.856 99.1428 155.589 99.3946C155.322 99.6463 155.16 99.9889 155.135 100.354C155.125 100.53 155.15 100.705 155.211 100.87C155.271 101.035 155.365 101.186 155.486 101.313C155.607 101.441 155.753 101.542 155.915 101.611C156.078 101.68 156.252 101.715 156.428 101.714H164.625C164.993 101.708 165.345 101.566 165.612 101.314C165.879 101.062 166.041 100.72 166.066 100.354C166.077 100.179 166.051 100.004 165.99 99.8386C165.93 99.6736 165.836 99.5227 165.715 99.3953C165.594 99.2679 165.448 99.1666 165.286 99.0978C165.124 99.029 164.949 98.994 164.773 98.9951Z" fill="white"/>
<path d="M179.395 98.9952H169.893C169.525 99.0002 169.173 99.1428 168.906 99.3946C168.639 99.6464 168.477 99.989 168.452 100.354C168.441 100.53 168.467 100.705 168.527 100.87C168.588 101.035 168.681 101.186 168.803 101.313C168.924 101.441 169.07 101.542 169.232 101.611C169.394 101.68 169.569 101.715 169.745 101.714H179.247C179.615 101.709 179.967 101.566 180.234 101.314C180.501 101.062 180.663 100.72 180.688 100.354C180.699 100.179 180.674 100.003 180.614 99.8376C180.554 99.6723 180.461 99.5211 180.339 99.3935C180.218 99.2659 180.071 99.1646 179.909 99.0961C179.746 99.0276 179.571 98.9932 179.395 98.9952Z" fill="white"/>
<path d="M175.562 94.2285H156.842C156.474 94.2322 156.121 94.3743 155.854 94.6264C155.586 94.8785 155.425 95.2219 155.401 95.5877C155.39 95.763 155.414 95.9387 155.474 96.1039C155.534 96.2692 155.627 96.4205 155.747 96.5485C155.868 96.6764 156.014 96.7784 156.176 96.8479C156.338 96.9175 156.512 96.9532 156.688 96.9528H175.414C175.782 96.9463 176.135 96.8024 176.401 96.5497C176.668 96.2969 176.83 95.9537 176.855 95.5877C176.866 95.4125 176.84 95.2369 176.78 95.072C176.719 94.907 176.626 94.7561 176.504 94.6287C176.383 94.5013 176.237 94.4 176.075 94.3312C175.913 94.2624 175.738 94.2274 175.562 94.2285Z" fill="white"/>
<path d="M71.9809 59.2958C70.0498 60.8903 68.0538 62.6261 66.2172 64.3677C65.296 65.2444 64.3984 66.1329 63.5657 67.0508C62.7584 67.9134 62.0181 68.8359 61.3512 69.8104L61.239 69.9751L61.1858 70.0693C61.1372 70.1437 61.0957 70.2225 61.0618 70.3046C60.9791 70.487 60.9024 70.7165 60.8197 70.9577C60.6624 71.4925 60.54 72.037 60.4536 72.5876C60.2693 73.816 60.151 75.0534 60.0992 76.2945C59.9752 78.8363 59.9752 81.49 60.0225 84.0848L57.2587 84.4967C56.5665 81.8347 56.0925 79.1211 55.8414 76.3827C55.7096 74.9608 55.676 73.5316 55.741 72.1051C55.7881 71.3345 55.8867 70.5679 56.0363 69.8104C56.1189 69.3833 56.2314 68.9626 56.3729 68.5512C56.4615 68.3217 56.5265 68.1099 56.6446 67.8687L56.8099 67.5156C56.869 67.4097 56.9103 67.345 56.9576 67.2508C57.6806 65.949 58.5248 64.7177 59.4792 63.5734C60.3636 62.475 61.3038 61.4224 62.296 60.4196C64.2396 58.4369 66.3151 56.5872 68.5085 54.8828L71.9809 59.2958Z" fill="#B55B52"/>
<path d="M70.9474 52.2405C67.9239 54.0057 63.3531 58.5952 63.3531 58.5952L68.9573 65.297C68.9573 65.297 76.9119 60.5428 77.8804 57.9244C79.4985 53.5174 73.8057 50.5519 70.9474 52.2405Z" fill="#08AF24"/>
<path d="M59.8984 83.0906L60.5835 87.0741L56.869 86.5386C56.869 86.5386 56.1072 83.832 58.05 82.9023L59.8984 83.0906Z" fill="#B55B52"/>
<path d="M59.2134 89.4987L55.8709 88.4631L56.8689 86.5391L60.5834 87.0745L59.2134 89.4987Z" fill="#B55B52"/>
<path d="M93.4294 38.1672C93.4294 38.5731 93.6538 38.9026 93.9254 38.9085C94.1971 38.9144 94.4038 38.5849 94.3979 38.1848C94.392 37.7847 94.1735 37.4493 93.9018 37.4434C93.6302 37.4376 93.4235 37.7671 93.4294 38.1672Z" fill="#263238"/>
<path d="M93.7837 37.4484L94.7699 37.1836C94.7699 37.1836 94.2738 37.9485 93.7837 37.4484Z" fill="#263238"/>
<path d="M93.7778 38.5664C94.1578 39.4986 94.6623 40.3753 95.2777 41.173C95.0669 41.3165 94.8273 41.4129 94.5756 41.4555C94.3238 41.4982 94.0657 41.4861 93.8191 41.4201L93.7778 38.5664Z" fill="#A02724"/>
<path d="M93.9431 35.4782C93.9046 35.4896 93.8636 35.4896 93.825 35.4782C93.5341 35.3724 93.2223 35.3359 92.9147 35.3716C92.607 35.4074 92.3121 35.5144 92.0534 35.6841C92.0284 35.7036 91.9997 35.7178 91.9691 35.726C91.9385 35.7342 91.9065 35.7362 91.8751 35.7318C91.8437 35.7274 91.8134 35.7167 91.7863 35.7005C91.7591 35.6842 91.7354 35.6626 91.7168 35.637C91.6789 35.5862 91.6626 35.5225 91.6714 35.4597C91.6803 35.397 91.7135 35.3402 91.764 35.3017C92.0839 35.0896 92.4487 34.9542 92.8298 34.9063C93.211 34.8583 93.5981 34.899 93.9608 35.0251C94.0207 35.0453 94.0702 35.088 94.0989 35.144C94.1276 35.2001 94.1331 35.2651 94.1144 35.3252C94.0999 35.3623 94.0769 35.3955 94.0471 35.4221C94.0174 35.4487 93.9817 35.4679 93.9431 35.4782Z" fill="#263238"/>
<path d="M81.3942 42.4854C81.6658 45.5273 80.6442 50.511 78.3411 52.2056C78.3411 52.2056 80.0773 55.4065 85.6401 56.1537C91.7641 56.9716 88.8881 53.5413 88.8881 53.5413C85.6342 52.3056 85.9768 49.8638 86.8035 47.6573L81.3942 42.4854Z" fill="#B55B52"/>
<path d="M92.266 55.9066C95.1774 56.6951 98.2364 57.4541 101.236 58.1308C102.748 58.4544 104.26 58.7192 105.772 59.0428C107.283 59.3664 108.801 59.5723 110.307 59.7665L110.898 59.843L111.287 59.8842C111.559 59.8842 111.878 59.8842 112.173 59.8842C112.86 59.8365 113.542 59.7442 114.216 59.6076C115.679 59.3069 117.124 58.9278 118.545 58.472C121.456 57.5659 124.409 56.4715 127.297 55.3418L128.608 57.7954C125.886 59.5703 123.029 61.1304 120.063 62.4614C118.528 63.1522 116.95 63.7419 115.338 64.2265C114.477 64.4814 113.599 64.678 112.711 64.8149C112.221 64.8814 111.728 64.9227 111.234 64.9385H110.431L109.84 64.8914C106.588 64.667 103.354 64.2386 100.156 63.6087C96.9673 63.0169 93.8132 62.2548 90.707 61.3258L92.266 55.9066Z" fill="#B55B52"/>
<path d="M126.529 56.3363L127.385 53.4473L130.533 54.6241C130.533 54.6241 129.813 58.9664 127.114 57.7661L126.529 56.3363Z" fill="#B55B52"/>
<path d="M129.21 51.5293L132.423 51.8882L130.533 54.6243L127.385 53.4475L129.21 51.5293Z" fill="#B55B52"/>
<path d="M72.3589 196.827L77.4198 197.197L78.9257 185.618L73.8648 185.247L72.3589 196.827Z" fill="#B55B52"/>
<path d="M35.0366 174.38L38.4736 178.181L48.0758 171.567L44.6388 167.772L35.0366 174.38Z" fill="#B55B52"/>
<path d="M41.0188 180.334C40.9581 180.342 40.8965 180.342 40.8358 180.334C40.2452 180.134 39.8023 178.998 39.6074 178.339C39.6009 178.317 39.6013 178.293 39.6084 178.271C39.6155 178.249 39.6291 178.229 39.6475 178.214C39.6659 178.2 39.6881 178.191 39.7115 178.189C39.7349 178.187 39.7583 178.193 39.7787 178.204C39.9618 178.298 41.5916 179.181 41.6448 179.828C41.6506 179.898 41.6378 179.969 41.6078 180.033C41.5777 180.097 41.5315 180.152 41.4735 180.193C41.3424 180.29 41.1821 180.34 41.0188 180.334ZM39.9263 178.528C40.2216 179.398 40.5818 179.969 40.9125 180.075C40.9842 180.095 41.06 180.097 41.1325 180.079C41.2049 180.062 41.2716 180.026 41.3259 179.975C41.3522 179.958 41.3737 179.934 41.3881 179.906C41.4026 179.879 41.4097 179.848 41.4086 179.816C41.3791 179.475 40.57 178.898 39.9263 178.528Z" fill="#08AF24"/>
<path d="M41.2136 178.763C40.6738 178.753 40.1432 178.622 39.6605 178.381C39.6428 178.369 39.6281 178.354 39.6178 178.335C39.6075 178.317 39.6019 178.296 39.6015 178.275C39.601 178.254 39.6069 178.233 39.6185 178.215C39.6301 178.197 39.6468 178.183 39.6664 178.175C39.7137 178.146 40.9656 177.457 41.6566 177.692C41.7467 177.721 41.8295 177.769 41.8989 177.833C41.9683 177.897 42.0226 177.976 42.0581 178.063C42.1055 178.147 42.122 178.245 42.1047 178.339C42.0874 178.434 42.0375 178.519 41.9636 178.581C41.7412 178.724 41.4771 178.788 41.2136 178.763ZM39.9853 178.275C40.5759 178.516 41.5444 178.628 41.8101 178.404C41.8514 178.363 41.8987 178.304 41.8101 178.157C41.7881 178.101 41.754 178.05 41.7101 178.009C41.6662 177.967 41.6137 177.935 41.5562 177.916C41.0081 177.873 40.4599 177.998 39.9853 178.275Z" fill="#08AF24"/>
<path d="M40.0149 177.622L37.1803 172.609C37.1337 172.522 37.0571 172.455 36.9648 172.421C36.8725 172.386 36.7707 172.386 36.6784 172.42L32.4914 174.021C32.3843 174.068 32.2887 174.138 32.2108 174.225C32.1329 174.312 32.0747 174.415 32.04 174.526C32.0054 174.638 31.995 174.755 32.0097 174.871C32.0244 174.987 32.0638 175.098 32.1253 175.198C33.1469 176.927 33.7197 177.71 34.9658 179.905C35.7335 181.258 36.9146 184.218 37.824 186.165C38.7334 188.113 40.6586 187.342 40.4519 186.459C39.7575 183.871 39.6605 181.159 40.1684 178.528C40.2254 178.217 40.1711 177.896 40.0149 177.622Z" fill="#263238"/>
<path d="M79.6225 197.363C79.0867 197.352 78.5531 197.293 78.028 197.186C78.0041 197.181 77.9824 197.168 77.9656 197.15C77.9487 197.133 77.9376 197.11 77.9335 197.086C77.9297 197.061 77.934 197.036 77.9457 197.014C77.9574 196.991 77.9759 196.974 77.9985 196.963C78.2288 196.845 80.2839 195.786 80.8921 196.156C80.9495 196.188 80.9976 196.234 81.0318 196.29C81.0659 196.345 81.085 196.409 81.087 196.474C81.0983 196.584 81.0828 196.695 81.0416 196.797C81.0005 196.9 80.935 196.991 80.8508 197.063C80.4866 197.297 80.0541 197.402 79.6225 197.363ZM78.4414 197.015C79.5575 197.198 80.3902 197.151 80.7091 196.874C80.7625 196.827 80.8038 196.767 80.8295 196.701C80.8551 196.634 80.8645 196.563 80.8567 196.492C80.8574 196.466 80.8512 196.44 80.8387 196.418C80.8263 196.395 80.8081 196.376 80.7859 196.362C80.4374 196.18 79.2741 196.615 78.4296 197.015H78.4414Z" fill="#08AF24"/>
<path d="M78.0516 197.186C78.0286 197.194 78.0037 197.194 77.9807 197.186C77.9634 197.175 77.9497 197.159 77.9413 197.14C77.9329 197.121 77.9302 197.101 77.9335 197.08C77.9335 196.986 78.1756 194.927 79.3095 194.927H79.4099C79.7346 194.956 79.8291 195.121 79.8528 195.256C79.9472 195.845 78.7189 196.921 78.0811 197.192C78.071 197.192 78.061 197.19 78.0516 197.186ZM79.3154 195.139C78.5831 195.139 78.2937 196.315 78.2051 196.851C78.837 196.474 79.6697 195.621 79.6165 195.274C79.6165 195.274 79.6165 195.168 79.3862 195.144L79.3154 195.139Z" fill="#08AF24"/>
<path d="M77.7386 196.48H72.0458C71.9469 196.48 71.8511 196.515 71.7755 196.578C71.6998 196.642 71.6492 196.73 71.6324 196.827L70.8706 201.311C70.8555 201.423 70.8646 201.537 70.8975 201.646C70.9303 201.754 70.9861 201.855 71.061 201.94C71.136 202.025 71.2284 202.094 71.332 202.14C71.4357 202.187 71.5482 202.211 71.662 202.211C73.6462 202.176 74.6147 202.058 77.1068 202.058C78.6422 202.058 81.8311 202.217 83.9511 202.217C86.0712 202.217 86.2424 200.128 85.3625 199.934C81.4177 199.087 79.8823 197.91 78.5772 196.792C78.3433 196.593 78.0463 196.482 77.7386 196.48Z" fill="#263238"/>
<path opacity="0.2" d="M78.9257 185.624L78.0871 192.061L73.0852 191.225L73.8588 185.247L78.9257 185.624Z" fill="black"/>
<path opacity="0.2" d="M44.6329 167.772L48.0699 171.573L44.1014 174.303L40.5405 170.59L44.6329 167.772Z" fill="black"/>
<path d="M69.8077 82.5956L90.2877 85.3376C98.2304 56.6887 95.886 55.9179 95.886 55.9179C94.3511 55.2018 92.7734 54.5808 91.1617 54.0585L90.8841 53.9703C89.5613 53.5702 89.2838 53.5172 87.518 53.1171C84.4886 52.5817 81.6776 52.1698 78.2052 51.8756C77.9867 51.8756 77.7623 51.8344 77.5438 51.8227C76.9178 51.7815 76.2978 51.7521 75.6954 51.7285C75.2938 51.7285 74.8864 51.7285 74.5143 51.7285H72.5183C72.1233 51.7374 71.7345 51.8282 71.3767 51.9953C71.019 52.1624 70.7002 52.402 70.4406 52.6988C70.1811 52.9956 69.9865 53.3431 69.8694 53.7191C69.7523 54.095 69.7152 54.4912 69.7605 54.8823C71.5144 69.9275 70.9593 74.8877 69.8077 82.5956Z" fill="#08AF24"/>
<path opacity="0.2" d="M90.8782 62.3972C91.0199 63.727 94.1025 66.157 95.1714 65.5039C95.4785 63.9094 95.7029 62.562 95.8624 61.4793C94.3151 61.3616 91.2856 59.6612 90.8782 62.3972Z" fill="black"/>
<path d="M87.5535 55.6884C87.4058 50.9813 98.8564 56.165 101.484 57.3359L98.5553 65.2263C98.5553 65.2263 94.7227 65.0969 92.2837 63.6906C90.8963 62.8464 89.739 61.6747 88.914 60.279C88.089 58.8834 87.6217 57.3067 87.5535 55.6884Z" fill="#08AF24"/>
<path d="M79.658 36.8611C80.0359 41.8389 80.0891 43.9512 82.6756 46.5401C86.5555 50.4294 92.6676 49.0526 93.8014 44.1042C94.8231 39.6501 94.0317 32.2598 89.0771 30.2122C88.0134 29.7376 86.8439 29.5475 85.684 29.6607C84.5241 29.774 83.4138 30.1866 82.4628 30.8579C81.5118 31.5292 80.7529 32.436 80.261 33.4887C79.7692 34.5415 79.5613 35.7038 79.658 36.8611Z" fill="#B55B52"/>
<path d="M80.0949 31.6061C75.0753 30.3528 74.9158 34.5481 75.0221 36.7604C75.1284 38.9728 71.4375 40.0319 71.4375 42.8032C71.4375 46.416 74.1717 48.5695 67.5222 49.6639C61.8944 50.5877 60.1582 57.5955 68.4848 61.6966C77.7032 66.2272 91.6104 59.849 89.9215 53.7827C87.3349 44.4213 91.9824 44.4507 91.4687 39.214C91.0848 35.413 94.6989 35.2247 93.3997 32.0533C91.6872 27.9051 79.6579 24.263 80.0949 31.6061Z" fill="#263238"/>
<path d="M74.284 38.6261C73.593 35.0016 73.971 32.601 75.406 31.4771C77.2544 30.0238 80.0949 31.283 80.213 31.3359L79.9709 31.8714C79.9709 31.8714 77.3312 30.6946 75.7662 31.9361C74.5202 32.9187 74.219 35.1311 74.8627 38.5143L74.284 38.6261Z" fill="#263238"/>
<path d="M68.6089 48.6284C67.3129 48.5877 66.0331 48.3291 64.8235 47.8635L65.042 47.3163C65.0834 47.3163 69.0636 48.8932 70.9061 47.3692C71.8037 46.6278 72.0577 45.2392 71.6679 43.2505L72.2585 43.1387C72.6955 45.3687 72.3707 46.9515 71.2959 47.8458C70.5188 48.4101 69.5687 48.6868 68.6089 48.6284Z" fill="#263238"/>
<path d="M90.1046 38.8671C90.0568 39.7957 90.2981 40.7164 90.7955 41.5031C91.4805 42.6152 92.4077 42.4093 92.7088 41.4678C93.01 40.5264 92.9569 39.0142 92.0297 38.2081C91.1026 37.402 90.199 37.8375 90.1046 38.8671Z" fill="#B55B52"/>
<path d="M84.896 84.6139C84.896 84.6139 76.9355 118.152 73.2151 137.387C69.2939 157.704 46.0502 174.279 46.0502 174.279L40.9479 169.048C40.9479 169.048 55.9123 155.998 59.7567 137.028C67.5577 98.5235 62.2783 90.7685 69.7959 82.5957L84.896 84.6139Z" fill="#263238"/>
<path d="M46.4873 175.033L40.1154 168.502L41.9047 166.583L49.3042 173.073L46.4873 175.033Z" fill="#08AF24"/>
<path opacity="0.2" d="M80.6677 91.8988C74.4788 97.2532 75.1462 116.252 75.7957 124.814C78.3882 112.64 81.5122 99.0831 83.3429 91.2398C82.6874 90.7573 81.8016 90.9162 80.6677 91.8988Z" fill="black"/>
<path d="M90.0042 85.3559C90.0042 85.3559 93.5829 125.149 91.6282 140.33C89.5967 156.116 79.2268 190.467 79.2268 190.467L71.9809 189.531C71.9809 189.531 77.8863 155.487 78.967 139.859C80.1126 122.795 75.0163 83.373 75.0163 83.373L90.0042 85.3559Z" fill="#263238"/>
<path d="M80.8095 190.884L70.4042 189.543L70.5636 186.483L81.8548 187.571L80.8095 190.884Z" fill="#08AF24"/>
<path d="M69.6188 81.3669L68.4967 83.0556C68.4141 83.1909 68.5676 83.3557 68.8038 83.3851L90.2877 86.2859C90.4707 86.2859 90.6361 86.2388 90.6597 86.127L91.0377 84.3618C91.0672 84.2383 90.9137 84.1088 90.7129 84.0794L69.9554 81.3081C69.8988 81.2888 69.8383 81.2841 69.7795 81.2944C69.7206 81.3047 69.6653 81.3296 69.6188 81.3669Z" fill="#08AF24"/>
<path opacity="0.3" d="M69.6188 81.3669L68.4967 83.0556C68.4141 83.1909 68.5676 83.3557 68.8038 83.3851L90.2877 86.2859C90.4707 86.2859 90.6361 86.2388 90.6597 86.127L91.0377 84.3618C91.0672 84.2383 90.9137 84.1088 90.7129 84.0794L69.9554 81.3081C69.8988 81.2888 69.8383 81.2841 69.7795 81.2944C69.7206 81.3047 69.6653 81.3296 69.6188 81.3669Z" fill="black"/>
<path d="M72.1698 84.0316L71.6147 83.961C71.5025 83.961 71.4257 83.8786 71.4435 83.808L71.9513 81.4838C71.9513 81.4191 72.0694 81.3779 72.1816 81.3897L72.7367 81.4662C72.8489 81.4662 72.9257 81.5486 72.9139 81.6133L72.4001 83.9375C72.3883 84.0081 72.282 84.0492 72.1698 84.0316Z" fill="#263238"/>
<path d="M86.2129 85.9445L85.6578 85.868C85.5456 85.868 85.4688 85.7856 85.4806 85.7209L85.9944 83.3967C85.9944 83.332 86.1125 83.2849 86.2247 83.3026L86.7798 83.3732C86.892 83.3732 86.9688 83.4556 86.9511 83.5262L86.4432 85.8503C86.4255 85.915 86.3251 85.9621 86.2129 85.9445Z" fill="#263238"/>
</svg>
