<svg width="90" height="89" viewBox="0 0 90 89" fill="none" xmlns="http://www.w3.org/2000/svg">
<path d="M73.7713 43.7822C73.7713 59.8382 60.7645 72.8541 44.7198 72.8541C28.6751 72.8541 15.6683 59.8382 15.6683 43.7822C15.6683 27.7262 28.6751 14.7103 44.7198 14.7103C60.7645 14.7103 73.7713 27.7262 73.7713 43.7822Z" fill="#08AF24"/>
<path d="M13.3088 5.79198C14.8215 4.27821 17.2741 4.27821 18.7868 5.79198L25.0348 12.0444C26.5475 13.5582 26.5475 16.0125 25.0348 17.5263L17.5026 25.0638C15.9899 26.5776 13.5373 26.5776 12.0246 25.0638L5.77651 18.8114C4.2638 17.2976 4.2638 14.8433 5.77651 13.3295L13.3088 5.79198Z" fill="#08AF24"/>
<path d="M12.1605 0.561975C12.9092 -0.187285 14.1231 -0.187284 14.8719 0.561975C15.6206 1.31124 15.6206 2.52602 14.8719 3.27528L3.27298 14.8823C2.52424 15.6316 1.31031 15.6316 0.561572 14.8823C-0.187163 14.133 -0.187162 12.9183 0.561572 12.169L12.1605 0.561975Z" fill="#08AF24"/>
<path d="M86.726 73.2417C87.4747 72.4924 88.6887 72.4924 89.4374 73.2417C90.1861 73.9909 90.1861 75.2057 89.4374 75.955L77.8385 87.562C77.0898 88.3113 75.8758 88.3113 75.1271 87.562C74.3784 86.8128 74.3784 85.598 75.1271 84.8487L86.726 73.2417Z" fill="#08AF24"/>
<path d="M72.422 62.9972C73.9347 61.4834 76.3873 61.4834 77.9 62.9972L84.1481 69.2496C85.6608 70.7634 85.6608 73.2177 84.1481 74.7315L76.6158 82.269C75.1031 83.7828 72.6505 83.7828 71.1378 82.269L64.8897 76.0166C63.377 74.5028 63.377 72.0485 64.8897 70.5347L72.422 62.9972Z" fill="#08AF24"/>
<path d="M5.81832 74.7315C4.30561 73.2177 4.30562 70.7634 5.81832 69.2496L12.0664 62.9972C13.5791 61.4834 16.0317 61.4834 17.5444 62.9972L25.0766 70.5347C26.5893 72.0485 26.5893 74.5028 25.0766 76.0166L18.8286 82.269C17.3159 83.7828 14.8633 83.7828 13.3506 82.269L5.81832 74.7315Z" fill="#08AF24"/>
<path d="M0.561592 75.9552C-0.187199 75.2059 -0.187197 73.991 0.561594 73.2417C1.31038 72.4924 2.52442 72.4924 3.27321 73.2417L14.8729 84.8495C15.6217 85.5988 15.6217 86.8137 14.8729 87.563C14.1241 88.3123 12.9101 88.3123 12.1613 87.563L0.561592 75.9552Z" fill="#08AF24"/>
<path d="M75.1271 3.2755C74.3783 2.52618 74.3783 1.3113 75.1271 0.561987C75.8759 -0.187329 77.0899 -0.187329 77.8387 0.561987L89.4384 12.1698C90.1872 12.9191 90.1872 14.134 89.4384 14.8833C88.6896 15.6326 87.4756 15.6326 86.7268 14.8833L75.1271 3.2755Z" fill="#08AF24"/>
<path d="M64.8897 17.5568C63.377 16.043 63.377 13.5887 64.8897 12.0749L71.1378 5.82248C72.6505 4.30871 75.1031 4.30871 76.6158 5.82248L84.148 13.36C85.6607 14.8738 85.6607 17.3281 84.148 18.8419L77.9 25.0943C76.3873 26.6081 73.9347 26.6081 72.422 25.0943L64.8897 17.5568Z" fill="#08AF24"/>
</svg>
